SplineFontDB: 3.2
FontName: Rom-Medium
FullName: Rom Medium
FamilyName: Rom
Weight: Medium
Copyright: (c) designteam 2020
UComments: "2020-9-26: Created with FontForge (http://fontforge.org)"
Version: 001.000
ItalicAngle: 0
UnderlinePosition: -100
UnderlineWidth: 50
Ascent: 750
Descent: 250
InvalidEm: 0
LayerCount: 2
Layer: 0 0 "Back" 1
Layer: 1 0 "Fore" 0
XUID: [1021 972 264752173 11522002]
FSType: 0
OS2Version: 0
OS2_WeightWidthSlopeOnly: 0
OS2_UseTypoMetrics: 1
CreationTime: 1601110281
ModificationTime: 1601214711
PfmFamily: 17
TTFWeight: 500
TTFWidth: 5
LineGap: 90
VLineGap: 0
OS2TypoAscent: 0
OS2TypoAOffset: 1
OS2TypoDescent: 0
OS2TypoDOffset: 1
OS2TypoLinegap: 90
OS2WinAscent: 0
OS2WinAOffset: 1
OS2WinDescent: 0
OS2WinDOffset: 1
HheadAscent: 0
HheadAOffset: 1
HheadDescent: 0
HheadDOffset: 1
OS2Vendor: 'PfEd'
Lookup: 258 0 0 "'kern' Horizontal Kerning in Greek lookup 0" { "'kern' Horizontal Kerning in Greek lookup 0 subtable"  } ['kern' ('grek' <'dflt' > ) ]
Lookup: 258 0 0 "'kern' Horizontal Kerning in Latin lookup 0" { "'kern' Horizontal Kerning in Latin lookup 0 subtable"  } ['kern' ('latn' <'dflt' > ) ]
Lookup: 258 0 0 "'kern' Horizontal Kerning lookup 0" { "'kern' Horizontal Kerning lookup 0 subtable"  } ['kern' ('DFLT' <'dflt' > ) ]
MarkAttachClasses: 1
DEI: 91125
LangName: 1033 "" "" "" "" "" "" "" "" "" "" "" "" "" "" "" "" "Rom" "Medium"
Encoding: UnicodeBmp
UnicodeInterp: none
NameList: AGL For New Fonts
DisplaySize: -48
AntiAlias: 1
FitToEm: 0
WinInfo: 0 22 13
BeginPrivate: 0
EndPrivate
BeginChars: 65550 850

StartChar: .notdef
Encoding: 65536 -1 0
Width: 500
Flags: HW
LayerCount: 2
Fore
SplineSet
0 0 m 1
 0 700 l 1
 500 700 l 1
 500 0 l 1
 0 0 l 1
250 395 m 1
 420 650 l 1
 80 650 l 1
 250 395 l 1
280 350 m 1
 450 95 l 1
 450 605 l 1
 280 350 l 1
80 50 m 1
 420 50 l 1
 250 305 l 1
 80 50 l 1
50 605 m 1
 50 95 l 1
 220 350 l 1
 50 605 l 1
EndSplineSet
EndChar

StartChar: exclam
Encoding: 33 33 2
Width: 226
Flags: HW
LayerCount: 2
Fore
SplineSet
144.9186 190.9887 m 1
 80.9078 190.9887 l 1
 67.8323 674 l 1
 157.9941 674 l 1
 144.9186 190.9887 l 1
112.9132 -11 m 0
 80 -11 56.8323 14.8377 57.6112 48.1998 c 0
 57.6112 83.0108 80.5511 107.8485 113.3621 107.8485 c 0
 147.2753 107.8485 169.113 83.0108 169.443 48.1998 c 0
 169.443 14.8377 147.2753 -11 112.9132 -11 c 0
EndSplineSet
EndChar

StartChar: quotedbl
Encoding: 34 34 3
Width: 331
Flags: HW
LayerCount: 2
Fore
SplineSet
52.0701 685 m 1
 134.632 685 l 1
 118.4376 447.9191 l 1
 68.0434 447.9191 l 1
 52.0701 685 l 1
197.3187 685 m 1
 279.8806 685 l 1
 263.6862 447.9191 l 1
 213.5131 447.9191 l 1
 197.3187 685 l 1
EndSplineSet
EndChar

StartChar: numbersign
Encoding: 35 35 4
Width: 491
Flags: HW
LayerCount: 2
Fore
SplineSet
184.8431 253.481 m 1
 289.6754 253.481 l 1
 308.9132 401.519 l 1
 203.632 401.519 l 1
 184.8431 253.481 l 1
150.6487 0 m 1
 93.4489 0 l 1
 119.4489 197.6379 l 1
 37 197.6379 l 1
 37 253.481 l 1
 127.6433 253.481 l 1
 147.2111 401.519 l 1
 60.3133 401.519 l 1
 60.3133 457.0321 l 1
 155.0755 457.0321 l 1
 181.0755 650 l 1
 236.6053 650 l 1
 211.6053 457.0321 l 1
 316.8865 457.0321 l 1
 342.8865 650 l 1
 399.0863 650 l 1
 373.6374 457.0321 l 1
 455.7563 457.0321 l 1
 455.7563 401.519 l 1
 365.443 401.519 l 1
 346.8752 253.481 l 1
 433.113 253.481 l 1
 433.113 197.9679 l 1
 338.3508 197.9679 l 1
 312.6808 0 l 1
 255.151 0 l 1
 281.151 197.9679 l 1
 176.6487 197.9679 l 1
 150.6487 0 l 1
EndSplineSet
EndChar

StartChar: dollar
Encoding: 36 36 5
Width: 509
Flags: HW
LayerCount: 2
Fore
SplineSet
276.9186 -85.1022 m 1
 217.5244 -85.1022 l 1
 217.5244 15.4756 l 1
 160.1189 16.3567 100.9245 34.3567 66.4923 59.9245 c 1
 89.6867 122.3675 l 1
 124.8811 98.2486 176.4055 79.0375 231.3621 79.0375 c 0
 303.7622 79.0375 352.3567 121.6754 352.3567 180.6433 c 0
 352.3567 236.8323 312.8811 271.8757 238.8811 302.2324 c 0
 137.2378 342.9191 75.2812 388.6813 75.2812 474.9679 c 0
 75.2812 557.6112 133.7134 619.8056 224.1944 634.4489 c 1
 224.1944 735.8056 l 1
 283.3675 735.8056 l 1
 283.3675 637.4322 l 1
 342.5619 635.4322 382.8752 619.3133 411.5185 602.6433 c 1
 387.6541 541.0814 l 1
 366.5619 552.7514 325.9186 575.0814 262.8431 575.0814 c 0
 185.0108 575.0814 155.0863 527.4435 155.0863 485.8323 c 0
 155.0863 432.5244 192.2052 406.1677 278.9941 369.481 c 0
 380.4751 327.0321 433.1618 275.7188 433.1618 187.6166 c 0
 433.1618 108.8811 379.0863 35 276.9186 18.5678 c 1
 276.9186 -85.1022 l 1
EndSplineSet
EndChar

StartChar: percent
Encoding: 37 37 6
Width: 783
Flags: HW
LayerCount: 2
Fore
SplineSet
185.1243 661 m 0
 274.2486 661 333.2319 592.6112 333.2319 467.33 c 0
 333.2319 329.4322 262.632 262 180.1243 262 c 0
 100.3133 262 31.6867 326.4055 30.2378 457.67 c 0
 30.2378 589.4001 101.2378 661 185.1243 661 c 0
182.4543 611.2491 m 0
 126.4109 611.2491 96.0375 544.519 96.0375 461.4489 c 0
 93.9186 377.0488 126.292 311.7509 182.0054 311.7509 c 0
 241.5244 311.7509 268.2111 376.2866 268.2111 463.1189 c 0
 268.2111 543.849 244.8544 611.2491 182.4543 611.2491 c 0
226.6107 -11 m 1
 173.1731 -11 l 1
 555.3187 661 l 1
 608.7563 661 l 1
 226.6107 -11 l 1
604.4751 392 m 0
 693.5994 392 752.3616 323.2812 752.3616 198 c 0
 752.3616 60.8811 682.0917 -6.8811 599.4751 -6.8811 c 0
 519.9941 -6.8811 451.0375 57.5244 449.9186 188.4489 c 0
 449.9186 320.519 520.9186 392 604.4751 392 c 0
601.8051 341.9191 m 0
 545.7617 341.9191 515.1672 275.6379 515.1672 192.1189 c 0
 513.2694 108.0488 546.3128 42.8698 601.3562 42.8698 c 0
 661.2052 42.8698 687.5619 106.9566 687.5619 193.7889 c 0
 687.5619 274.849 664.2052 341.9191 601.8051 341.9191 c 0
EndSplineSet
EndChar

StartChar: ampersand
Encoding: 38 38 7
Width: 597
Flags: HW
LayerCount: 2
Fore
SplineSet
596.0162 0 m 1
 498.5678 0 l 1
 478.8811 19.6867 460.6433 39.3734 433.9299 67.6379 c 1
 373.7509 11.8811 309.292 -11 235.6487 -11 c 0
 108.1356 -11 31 76.4055 31 177.8811 c 0
 31 270.1189 86.6867 332.5511 163.2378 375.1189 c 1
 163.2378 378.1189 l 1
 127.8811 423.2812 106.5511 472.2812 106.5511 519.8323 c 0
 106.5511 602.0434 165.4055 685 274.962 685 c 0
 357.2052 685 420.924 629.8056 420.924 543.4001 c 0
 420.924 472.2812 379.3562 416.4001 271.8539 362.9245 c 1
 271.5239 359.5945 l 1
 330.1618 291.2699 396.4864 215.6053 440.6487 166.2052 c 1
 471.8865 213.8919 492.5565 279.1297 506.1243 366.2432 c 1
 580.7617 366.2432 l 1
 562.7617 260.0054 534.4484 176.5732 485.1618 117.7188 c 1
 520.594 80.0755 555.3562 42.8811 596.0162 0 c 1
249.8431 51.1297 m 0
 309.9299 51.1297 360 77.5131 392.8323 114.0321 c 1
 352.9512 158.5999 276.1944 242.8056 200.2165 331.2491 c 1
 162.3942 307.2324 109.7296 263.7301 109.7296 190.0488 c 0
 109.7296 110.5131 167.6808 51.1297 249.8431 51.1297 c 0
268.5131 628.6058 m 0
 211.443 628.6058 181.0696 580.5457 181.0696 527.8056 c 0
 181.0696 478.0755 204.773 440.151 233.2052 404.3621 c 1
 302.962 443.7188 348.7188 480.7622 348.7188 539.4001 c 0
 348.7188 581.8924 324.9132 628.6058 268.5131 628.6058 c 0
EndSplineSet
EndChar

StartChar: quoteright
Encoding: 8217 8217 8
Width: 201
Flags: HW
LayerCount: 2
Fore
SplineSet
92.8811 676 m 1
 178.3074 685 l 1
 156.2319 602.7301 113.2319 493.9078 87.3187 450.708 c 1
 35.3734 444.6058 l 1
 56 500.5945 82.4489 605.519 92.8811 676 c 1
EndSplineSet
EndChar

StartChar: parenleft
Encoding: 40 40 9
Width: 280
Flags: HW
LayerCount: 2
Fore
SplineSet
197.3246 695.0167 m 1
 262.481 695.0167 l 1
 187.962 595.7622 134.0375 466.4489 134.0375 284.8811 c 0
 134.0375 106.3133 190.0809 -20.4322 262.481 -120.9078 c 1
 197.3246 -120.9078 l 1
 133.1623 -37.5511 65.1356 89.7622 65.1356 285.33 c 0
 65.6867 482.1189 133.1623 610.2111 197.3246 695.0167 c 1
EndSplineSet
EndChar

StartChar: parenright
Encoding: 41 41 10
Width: 280
Flags: HW
LayerCount: 2
Fore
SplineSet
83.2052 -120.9078 m 1
 18.5999 -120.9078 l 1
 91 -21.4322 146.7134 107.7622 146.7134 288 c 0
 146.7134 467.5678 92.1189 594.7622 18.5999 695.0167 c 1
 83.2052 695.0167 l 1
 147.9186 611.8811 216.1731 484.1189 216.1731 287 c 0
 215.8431 90.8811 147.9186 -35.8811 83.2052 -120.9078 c 1
EndSplineSet
EndChar

StartChar: asterisk
Encoding: 42 42 11
Width: 410
Flags: HW
LayerCount: 2
Fore
SplineSet
267.5999 685 m 1
 325.2486 652.519 l 1
 231.0809 528.0868 l 1
 231.0809 526.0868 l 1
 381.4864 544.4756 l 1
 381.4864 479.9625 l 1
 231.1998 497.698 l 1
 231.1998 494.9191 l 1
 325.9186 375.1569 l 1
 265.9299 341.0059 l 1
 204.9132 479.6058 l 1
 202.9132 479.2758 l 1
 137.4376 340.0059 l 1
 83.5678 374.4869 l 1
 177.4055 495.9191 l 1
 177.4055 498.698 l 1
 30 479.9625 l 1
 30 544.4756 l 1
 175.6266 526.7568 l 1
 175.9566 529.0868 l 1
 83.5678 650.849 l 1
 141.8865 684.33 l 1
 204.3621 546.7301 l 1
 206.6921 546.7301 l 1
 267.5999 685 l 1
EndSplineSet
EndChar

StartChar: plus
Encoding: 43 43 12
Width: 596
Flags: HW
LayerCount: 2
Fore
SplineSet
267.9679 532 m 1
 328.481 532 l 1
 328.481 295.481 l 1
 556 295.481 l 1
 556 238.519 l 1
 328.481 238.519 l 1
 328.481 0 l 1
 267.9679 0 l 1
 267.9679 238.519 l 1
 40 238.519 l 1
 40 295.481 l 1
 267.9679 295.481 l 1
 267.9679 532 l 1
EndSplineSet
EndChar

StartChar: comma
Encoding: 44 44 13
Width: 201
Flags: HW
LayerCount: 2
Fore
SplineSet
76.5565 -117.4756 m 1
 17.849 -123.6867 l 1
 38.8056 -66.708 65.8056 40.0809 76.5678 111.443 c 1
 169.0863 121.443 l 1
 146.6808 37.962 102.7997 -73.3947 76.5565 -117.4756 c 1
EndSplineSet
EndChar

StartChar: hyphen
Encoding: 45 45 14
Width: 304
Flags: HW
LayerCount: 2
Fore
SplineSet
30 301.8377 m 1
 275.5999 301.8377 l 1
 275.5999 240.5624 l 1
 30 240.5624 l 1
 30 301.8377 l 1
EndSplineSet
EndChar

StartChar: period
Encoding: 46 46 15
Width: 201
Flags: HW
LayerCount: 2
Fore
SplineSet
108.6487 -11 m 0
 75.2866 -11 52.1189 15.6166 52.5678 49.1998 c 0
 52.5678 84.2319 76.2866 109.3996 109.3187 109.3996 c 0
 142.6808 109.3996 165.3996 84.5619 165.3996 49.1998 c 0
 165.3996 15.6166 143.2319 -11 108.6487 -11 c 0
EndSplineSet
EndChar

StartChar: slash
Encoding: 47 47 16
Width: 344
Flags: HW
LayerCount: 2
Fore
SplineSet
61.3241 -40 m 1
 -2.519 -40 l 1
 282.4381 685 l 1
 347.849 685 l 1
 61.3241 -40 l 1
EndSplineSet
EndChar

StartChar: zero
Encoding: 48 48 17
Width: 509
Flags: HW
LayerCount: 2
Fore
SplineSet
260.3621 661 m 0
 394.0863 661 473.1297 542.038 473.1297 331.9078 c 0
 473.1297 109.481 390.2319 -11 248.8865 -11 c 0
 125.9679 -11 38.3567 104.632 36.2378 322.5511 c 0
 36.2378 543.8002 132.0868 661 260.3621 661 c 0
255.1243 597.4381 m 0
 176.3675 597.4381 118.2807 500.9946 118.6107 321.8811 c 0
 118.2807 151.1243 172.1297 53.0108 254.4543 53.0108 c 0
 346.5945 53.0108 390.6379 160.481 390.6379 328.1189 c 0
 390.6379 489.6379 349.0434 597.4381 255.1243 597.4381 c 0
EndSplineSet
EndChar

StartChar: one
Encoding: 49 49 18
Width: 509
Flags: HW
LayerCount: 2
Fore
SplineSet
236 0 m 1
 236 573.6926 l 1
 234 573.6926 l 1
 122.1623 512.1248 l 1
 106.0868 574.6867 l 1
 244.8377 650 l 1
 315.1618 650 l 1
 315.1618 0 l 1
 236 0 l 1
EndSplineSet
EndChar

StartChar: two
Encoding: 50 50 19
Width: 509
Flags: HW
LayerCount: 2
Fore
SplineSet
455.7997 0 m 1
 44.7889 0 l 1
 44.7889 50.1564 l 1
 112.3888 116.2319 l 1
 280.8323 277.481 356.6379 362.6433 357.189 462.9679 c 0
 357.189 529.9191 325.9679 593.0059 227.0922 593.0059 c 0
 167.4055 593.0059 118.8544 562.4381 88.7622 537.887 c 1
 62.1623 595.1189 l 1
 106.4756 633.1189 169.6433 661 243.3621 661 c 0
 382.4376 661 439.2319 563.9566 439.2319 473.849 c 0
 439.2319 352.2378 351.1885 254.1944 210.4371 118.0863 c 1
 159.4805 70.2052 l 1
 159.4805 68.2052 l 1
 455.7997 68.2052 l 1
 455.7997 0 l 1
EndSplineSet
EndChar

StartChar: three
Encoding: 51 51 20
Width: 509
Flags: HW
LayerCount: 2
Fore
SplineSet
42.6867 33.33 m 1
 65.7622 96.113 l 1
 90.3133 80.443 147.9566 55.443 209.2866 55.443 c 0
 324.9946 55.443 359.6379 130.151 359.0868 184.9566 c 0
 357.9679 278.9679 273.8811 318.6813 187.6921 318.6813 c 2
 139.1944 318.6813 l 1
 139.1944 380.481 l 1
 187.481 380.481 l 2
 252.7622 380.481 335.7301 414.7622 335.7301 494.0868 c 0
 335.7301 547.038 301.8323 594.557 219.6433 594.557 c 0
 167.7622 594.557 118.5678 571.557 90.4489 551.3192 c 1
 67.5945 610.5511 l 1
 101.2378 635.8811 166.0755 661 234.6754 661 c 0
 361.962 661 418.6541 585.2111 418.6541 506.4756 c 0
 418.6541 439.5945 377.7563 382.0267 298.2052 353.3567 c 1
 298.2052 351.3567 l 1
 378.3241 336.0167 443.443 275.1189 443.443 183.7622 c 0
 443.443 80.9245 364.1998 -11 208.7943 -11 c 0
 136.9566 -11 73.8811 11.67 42.6867 33.33 c 1
EndSplineSet
EndChar

StartChar: four
Encoding: 52 52 21
Width: 509
Flags: HW
LayerCount: 2
Fore
SplineSet
394.6374 0 m 1
 317.3567 0 l 1
 317.3567 179.3246 l 1
 14.4055 179.3246 l 1
 14.4055 232.9132 l 1
 308.2758 650 l 1
 394.6374 650 l 1
 394.6374 243.2265 l 1
 487.3675 243.2265 l 1
 487.3675 179.3246 l 1
 394.6374 179.3246 l 1
 394.6374 0 l 1
98.2807 243.2265 m 1
 317.3567 243.2265 l 1
 317.3567 467.6759 l 2
 317.3567 501.3192 318.3567 534.8436 320.6867 567.9191 c 1
 317.3567 568.368 l 1
 297.3567 529.8269 281.4756 502.8703 264.1623 474.0326 c 2
 98.6107 245.2265 l 1
 98.2807 243.2265 l 1
EndSplineSet
EndChar

StartChar: five
Encoding: 53 53 22
Width: 509
Flags: HW
LayerCount: 2
Fore
SplineSet
428.4697 650 m 1
 428.4697 581.1248 l 1
 181.6053 581.1248 l 1
 155.443 407.481 l 1
 170.443 409.9299 184.5619 411.5999 209.1564 411.5999 c 0
 258.773 411.5999 306.594 400.8377 346.5673 377.4322 c 0
 396.9073 349.5678 440.5185 293 440.5185 210.1944 c 0
 440.5185 82.8377 340.2052 -11 202.3621 -11 c 0
 131.8377 -11 72.6433 9.1189 42 29.2378 c 1
 63.6433 91.7997 l 1
 90.0755 75.6808 142.7188 55.113 202.1677 55.113 c 0
 286.4756 55.113 358.1623 112.0054 358.1623 200.9733 c 0
 357.4923 286.1623 300.9245 347.4702 170.9245 347.4702 c 0
 133.3567 347.4702 104.1189 344.1302 80.3567 340.8002 c 1
 122.6867 650 l 1
 428.4697 650 l 1
EndSplineSet
EndChar

StartChar: six
Encoding: 54 54 23
Width: 509
Flags: HW
LayerCount: 2
Fore
SplineSet
411.5886 660.1189 m 1
 412.3675 592.7681 l 1
 393.9186 592.9892 371.0108 592.3192 345.113 588.2003 c 0
 206.8752 564.8169 132.594 460.4489 118.6107 349.632 c 1
 121.1618 349.632 l 1
 152.0429 392.4543 206.6374 427.8544 279.4697 427.8544 c 0
 395.7242 427.8544 475.5619 343.5999 475.5619 217.6433 c 0
 475.5619 99.6867 395.7509 -11 261.1076 -11 c 0
 125.7134 -11 34.6867 95.1243 34.6867 265.1944 c 0
 34.6867 393.5511 80.3567 494.8811 143.8811 558.7622 c 0
 196.7188 610.9566 267.5565 644.0755 347.7997 655.2111 c 0
 373.6808 659.33 395.4697 660.4489 411.5886 660.1189 c 1
262.1243 52.3508 m 0
 340 52.3508 392.6379 117.1998 392.6379 212.4322 c 0
 392.6379 308.9191 337.3133 365.1569 255.2432 365.1569 c 0
 200.962 365.1569 150.113 332.0113 125.5185 283.1623 c 0
 119.8485 272.7134 115.7296 260.0434 115.7296 244.6112 c 0
 116.8318 133.7676 167.6808 52.3508 262.1243 52.3508 c 0
EndSplineSet
EndChar

StartChar: seven
Encoding: 55 55 24
Width: 509
Flags: HW
LayerCount: 2
Fore
SplineSet
57.9245 650 m 1
 463.3675 650 l 1
 463.3675 595.3947 l 1
 178.5185 0 l 1
 94.4001 0 l 1
 377.3513 580.2437 l 1
 377.3513 582.2437 l 1
 57.9245 582.2437 l 1
 57.9245 650 l 1
EndSplineSet
EndChar

StartChar: eight
Encoding: 56 56 25
Width: 509
Flags: HW
LayerCount: 2
Fore
SplineSet
252.9132 -11 m 0
 120.6112 -11 37.8056 68.8377 37.8056 164.3133 c 0
 37.8056 246.8811 87.0434 305.2378 167.6379 339.8056 c 1
 166.9679 343.2545 l 1
 93.5945 376.9245 62.1456 432.7134 62.1456 489.0434 c 0
 62.1456 590.7889 148.7622 661 261.6921 661 c 0
 384.6808 661 448.0108 583.0434 448.0108 501.9245 c 0
 448.0108 446.9245 420.7997 387.2378 340.1785 349.33 c 1
 340.1785 345.8811 l 1
 422.3675 313.7355 471.5619 255.2699 471.5619 177.4055 c 0
 471.5619 64.7622 375.1297 -11 252.9132 -11 c 0
254.6754 49.8164 m 0
 336.2378 49.8164 389.0868 99.7676 389.0868 168.9733 c 0
 389.0868 249.519 332.4756 288.2057 242.1243 313.8002 c 1
 163.8919 290.8757 121.2807 239.4756 121.2807 176.0755 c 0
 118.1618 108.7676 169.113 49.8164 254.6754 49.8164 c 0
256.3621 601.5136 m 0
 181.1564 601.5136 140.2052 552.2324 140.2052 495.1623 c 0
 140.2052 428.2866 190.6975 392.481 267.2432 372.5732 c 1
 324.67 391.8377 369.2812 432.3133 369.2812 493.849 c 0
 369.2812 546.2324 337.3567 601.5136 256.3621 601.5136 c 0
EndSplineSet
EndChar

StartChar: nine
Encoding: 57 57 26
Width: 509
Flags: HW
LayerCount: 2
Fore
SplineSet
97.2545 -10.1189 m 1
 97.2545 57.5619 l 1
 115.8056 55.5619 138.1623 57.2319 168.1623 61.1297 c 0
 219.0701 68.0375 267.519 89.5131 305.5357 125.6754 c 0
 347.7568 166.6166 378.9946 224.5678 390.9946 303.9191 c 1
 388.7735 303.8002 l 1
 351.519 258.0701 298.8056 231.4756 232.67 231.4756 c 0
 115.1944 231.4756 41.7134 321.0868 41.7134 431.0167 c 0
 41.7134 552.5511 129.8811 661 262.1677 661 c 0
 391.2319 661 473.7997 555.2057 473.7997 387.3567 c 0
 473.7997 243.8811 425.113 143.7622 361.9186 82 c 0
 313.1998 33.9245 245.7188 3.9245 178.6379 -4.3133 c 0
 146.6112 -9.5511 117.7134 -11.1189 97.2545 -10.1189 c 1
254.5999 598.2003 m 0
 177.1564 598.2003 122.7563 529.9946 122.7563 435.5511 c 0
 123.0863 352.4376 173.3942 294.3942 251.2432 294.3942 c 0
 311.7622 294.3942 359.4001 324.5565 383.7735 365.4055 c 0
 387.9946 372.9566 391.4435 382.5077 391.4435 396.5999 c 0
 391.7735 511.6813 348.9245 598.2003 254.5999 598.2003 c 0
EndSplineSet
EndChar

StartChar: colon
Encoding: 58 58 27
Width: 201
Flags: HW
LayerCount: 2
Fore
SplineSet
108.6487 345.2491 m 0
 75.2866 345.2491 52.1189 371.0868 52.5678 404.4489 c 0
 52.5678 439.481 76.2866 465.0976 109.3187 465.0976 c 0
 142.6808 465.0976 164.8485 439.481 165.3996 404.4489 c 0
 165.3996 371.0868 143.2319 345.2491 108.6487 345.2491 c 0
108.6487 -11 m 0
 75.2866 -11 52.1189 15.6166 52.5678 48.6487 c 0
 52.5678 83.6808 76.2866 108.8485 109.3187 108.8485 c 0
 142.6808 108.8485 164.8485 84.0108 165.3996 48.6487 c 0
 165.3996 15.6166 143.2319 -11 108.6487 -11 c 0
EndSplineSet
EndChar

StartChar: semicolon
Encoding: 59 59 28
Width: 201
Flags: HW
LayerCount: 2
Fore
SplineSet
76.3354 -117.4756 m 1
 18.0701 -123.6867 l 1
 39.3567 -66.708 66.3567 40.0809 76.7889 111.443 c 1
 169.0863 121.443 l 1
 146.1297 37.962 102.5786 -73.3947 76.3354 -117.4756 c 1
116.4376 345.2491 m 0
 83.0755 345.2491 59.9078 371.0868 60.6867 404.4489 c 0
 60.6867 439.481 84.0755 465.0976 116.8865 465.0976 c 0
 150.4697 465.0976 172.6374 439.481 172.9674 404.4489 c 0
 172.9674 371.0868 150.7997 345.2491 116.4376 345.2491 c 0
EndSplineSet
EndChar

StartChar: less
Encoding: 60 60 29
Width: 596
Flags: HW
LayerCount: 2
Fore
SplineSet
66.5945 240.519 m 1
 66.5945 291.9299 l 1
 529.4055 532 l 1
 529.4055 466.3947 l 1
 135.7242 267 l 1
 135.7242 265 l 1
 529.4055 65.7242 l 1
 529.4055 0 l 1
 66.5945 240.519 l 1
EndSplineSet
EndChar

StartChar: equal
Encoding: 61 61 30
Width: 596
Flags: HW
LayerCount: 2
Fore
SplineSet
556 338.2812 m 1
 40 338.2812 l 1
 40 395.5732 l 1
 556 395.5732 l 1
 556 338.2812 l 1
556 142.9946 m 1
 40 142.9946 l 1
 40 199.9566 l 1
 556 199.9566 l 1
 556 142.9946 l 1
EndSplineSet
EndChar

StartChar: greater
Encoding: 62 62 31
Width: 596
Flags: HW
LayerCount: 2
Fore
SplineSet
529.4055 292.811 m 1
 529.4055 239.6379 l 1
 66.5945 0 l 1
 66.5945 65.7242 l 1
 462.9191 265 l 1
 462.9191 267 l 1
 66.5945 466.7247 l 1
 66.5945 532 l 1
 529.4055 292.811 l 1
EndSplineSet
EndChar

StartChar: question
Encoding: 63 63 32
Width: 401
Flags: HW
LayerCount: 2
Fore
SplineSet
214.6541 188.3187 m 1
 142.0167 188.3187 l 1
 139.1189 214.3187 l 2
 132.5511 268.5565 151.4489 328.0321 201.3567 388.8377 c 0
 247.6379 443.6867 272.189 482.7134 272.189 528.8757 c 0
 272.189 581.3947 239.9245 616.557 175.1944 617.1081 c 0
 139.0755 617.1081 99.0755 605.887 74.0755 586.4381 c 1
 50.7889 644.67 l 1
 84.7789 669.2378 140.7622 685 192.1243 685 c 0
 305.1564 685 357.0108 614.1189 357.0108 538.5945 c 0
 357.0108 471.9679 319.2753 422.6379 270.2319 364.6867 c 0
 225.6374 311.0755 209.6374 266.2699 213.2052 214.9132 c 2
 214.6541 188.3187 l 1
176.0054 -11 m 0
 142.6433 -11 119.4756 15.6166 119.9245 48.6487 c 0
 119.9245 83.6808 143.6433 108.5185 176.6754 108.5185 c 0
 210.4864 108.5185 232.4263 83.6808 232.7563 48.6487 c 0
 232.7563 15.6166 211.0375 -11 176.0054 -11 c 0
EndSplineSet
EndChar

StartChar: at
Encoding: 64 64 33
Width: 733
Flags: HW
LayerCount: 2
Fore
SplineSet
448.8056 255.3567 m 2
 470.6112 369.9946 l 1
 459.7134 373.4435 442.6867 378.0113 418.5244 378.0113 c 0
 328.1998 378.0113 255.443 292.5945 255.443 193.7188 c 0
 255.443 148.9132 278.2486 116.4376 323.0809 116.4376 c 0
 382.8377 116.4376 437.2378 193.4489 448.8056 255.3567 c 2
506.2432 -21.7134 m 1
 521.6754 -63.7622 l 1
 467.0321 -92.4322 410.7943 -104 344.481 -104 c 0
 180.151 -104 42.0755 15.67 42.0755 208.2111 c 0
 42.0755 413.5511 184.2699 592 406.481 592 c 0
 580.6921 592 695.8698 469.5511 695.8698 303.4489 c 0
 695.8698 152.7622 611.7509 65.4489 519.481 65.4489 c 0
 480.4055 65.4489 443.1677 91.7889 446.3133 154.1623 c 1
 442.6433 154.1623 l 1
 406.9566 94.2378 360.8377 65.4489 300.3621 65.4489 c 0
 242.8377 65.4489 192.7188 112.33 192.7188 190.3133 c 0
 192.7188 314.8811 291.6433 428.4489 429.8377 428.4489 c 0
 472.7188 428.4489 510.0054 419.5678 536.0054 407.6867 c 1
 501.7676 226.9245 l 2
 486.4109 148.9566 498.3187 113.0321 532.1243 112.811 c 0
 584.0488 111.0321 641.2866 180.7622 641.2866 296.4322 c 0
 641.2866 443.1623 554.0488 547.0701 398.5999 547.0701 c 0
 234.5565 547.0701 97.3187 417.3567 97.3187 213.1944 c 0
 97.3187 46.6433 206.8865 -57.4001 354.4376 -57.4001 c 0
 412.2432 -57.4001 465.5732 -45.2812 506.2432 -21.7134 c 1
EndSplineSet
EndChar

StartChar: A
Encoding: 65 65 34
Width: 607
Flags: HW
LayerCount: 2
Fore
SplineSet
424.9245 215.8436 m 1
 181.6053 215.8436 l 1
 109.7296 0 l 1
 25.9245 0 l 1
 257.368 674 l 1
 353.0429 674 l 1
 585.2486 0 l 1
 499.1302 0 l 1
 424.9245 215.8436 l 1
198.9186 279.5244 m 1
 407.2812 279.5244 l 1
 338.3888 478.2003 l 2
 323.5999 522.557 313.7188 561.8436 303.7188 600.3947 c 1
 301.7188 600.3947 l 1
 291.7188 561.1736 281.0488 520.887 267.9299 479.3192 c 2
 198.9186 279.5244 l 1
EndSplineSet
EndChar

StartChar: B
Encoding: 66 66 35
Width: 536
Flags: HW
LayerCount: 2
Fore
SplineSet
77.0434 1.5511 m 1
 77.0434 665 l 1
 114.9245 673.4489 173.1677 679 231.8698 679 c 0
 318.8431 679 374.3942 663.9733 415.9186 629.2866 c 0
 449.6374 602.7188 469.8051 563.1944 469.8051 511.5678 c 0
 469.8051 445.7622 425.4317 388.3133 355.5673 362.8811 c 1
 355.5673 360.8811 l 1
 418.2861 345.5678 494.924 293.3734 494.924 191.1944 c 0
 494.924 133.8811 472.7296 89.7889 438.4263 57.5678 c 0
 392.443 13.5511 316.7997 -5.8811 209.2432 -5.8811 c 0
 150.1944 -5.8811 105.3567 -1.5511 77.0434 1.5511 c 1
157.6374 610.0814 m 1
 157.6374 387.3621 l 1
 240.3354 387.3621 l 2
 332.2699 387.3621 387.4322 436.7622 387.4322 503.6112 c 0
 387.4322 584.5136 326.4543 616.2003 236.3675 616.2003 c 0
 195.443 616.2003 171.7563 613.5303 157.6374 610.0814 c 1
157.6374 325.5624 m 1
 157.6374 61.9186 l 1
 175.6541 58.7997 200.6808 57.7997 232.4864 57.7997 c 0
 324.6921 57.7997 409.6867 91.6053 409.6867 192.2866 c 0
 409.6867 285.9512 328.9299 325.5624 231.8431 325.5624 c 2
 157.6374 325.5624 l 1
EndSplineSet
EndChar

StartChar: C
Encoding: 67 67 36
Width: 577
Flags: HW
LayerCount: 2
Fore
SplineSet
528.4055 86.5619 m 5
 545.2699 22.2378 l 5
 513.3621 5.67 448.9132 -10 367.2432 -10 c 4
 181.4435 -10 36.8978 107.4376 36.8978 331.2378 c 4
 36.8978 540.9299 177.2432 685 386.5999 685 c 4
 470.5077 685 523.811 666.8811 546.5732 655 c 5
 525.8377 589.0059 l 5
 492.7188 604.7948 445.811 616.7948 389.3621 616.7948 c 4
 227.5185 616.7948 121.8051 513.1135 121.8051 333.4322 c 4
 121.8051 165.962 218.6541 58.2052 384.5565 58.2052 c 4
 438.811 58.2052 493.0488 69.3241 528.4055 86.5619 c 5
EndSplineSet
EndChar

StartChar: D
Encoding: 68 68 37
Width: 662
Flags: HW
LayerCount: 2
Fore
SplineSet
77.0434 1.5511 m 1
 77.0434 665 l 1
 129.4756 673.33 192.2111 679 259.8377 679 c 0
 384.2699 679 474.4055 649.1944 533.0488 593.3888 c 0
 592.0054 538.5999 626.4109 461.2866 626.4109 353.4489 c 0
 626.4109 245.0868 593.2432 155.0868 530.811 92.1623 c 0
 467.8377 28.9245 364.1944 -5.8811 233.6433 -5.8811 c 0
 172.8323 -5.8811 121.519 -3.4489 77.0434 1.5511 c 1
157.9674 605.3192 m 1
 157.9674 64.2319 l 1
 181.0108 60.5619 214.1731 59.8919 248.7943 59.8919 c 0
 439.6813 59.5619 541.3947 165.9132 541.3947 350.1189 c 0
 542.3947 511.2057 451.4702 614.1081 263.0054 614.1081 c 0
 216.8431 614.1081 181.6808 609.9892 157.9674 605.3192 c 1
EndSplineSet
EndChar

StartChar: E
Encoding: 69 69 38
Width: 487
Flags: HW
LayerCount: 2
Fore
SplineSet
420.9186 385.7943 m 1
 420.9186 318.9191 l 1
 157.9674 318.9191 l 1
 157.9674 67.4263 l 1
 451.8164 67.4263 l 1
 451.8164 0 l 1
 77.0434 0 l 1
 77.0434 674 l 1
 436.3675 674 l 1
 436.3675 606.5737 l 1
 157.9674 606.5737 l 1
 157.9674 385.7943 l 1
 420.9186 385.7943 l 1
EndSplineSet
EndChar

StartChar: F
Encoding: 70 70 39
Width: 482
Flags: HW
LayerCount: 2
Fore
SplineSet
77.0434 0 m 1
 77.0434 674 l 1
 435.1564 674 l 1
 435.1564 606.5737 l 1
 157.9674 606.5737 l 1
 157.9674 375.3621 l 1
 413.7997 375.3621 l 1
 413.7997 308.1569 l 1
 157.9674 308.1569 l 1
 157.9674 0 l 1
 77.0434 0 l 1
EndSplineSet
EndChar

StartChar: G
Encoding: 71 71 40
Width: 642
Flags: HW
LayerCount: 2
Fore
SplineSet
585.4864 350.962 m 1
 585.4864 30.33 l 1
 547.4109 15.67 471.2432 -7 380.1243 -7 c 0
 280 -7 196.2378 18.6433 130 82.33 c 0
 72.6867 137.7622 36.5678 227.4322 36.8978 333.2378 c 0
 37.1189 531.9132 172.5565 681 398.9132 681 c 0
 476.3187 681 537.292 663.5511 565.6053 650.1189 c 1
 545.3187 583.7948 l 1
 509.4376 600.2437 464.4376 612.7948 397.2432 612.7948 c 0
 229.9674 612.7948 121.8051 508.3246 121.8051 337 c 0
 121.8051 163.4109 225.8752 60.3241 386.6921 60.3241 c 0
 445.2378 60.3241 485.4001 68.5619 506.3246 79.2486 c 1
 506.3246 285.9679 l 1
 366.2866 285.9679 l 1
 366.2866 350.962 l 1
 585.4864 350.962 l 1
EndSplineSet
EndChar

StartChar: H
Encoding: 72 72 41
Width: 648
Flags: HW
LayerCount: 2
Fore
SplineSet
77.0434 674 m 1
 157.9674 674 l 1
 157.9674 389.6754 l 1
 491.0868 389.6754 l 1
 491.0868 674 l 1
 572.2319 674 l 1
 572.2319 0 l 1
 491.0868 0 l 1
 491.0868 319.1569 l 1
 157.9674 319.1569 l 1
 157.9674 0 l 1
 77.0434 0 l 1
 77.0434 674 l 1
EndSplineSet
EndChar

StartChar: I
Encoding: 73 73 42
Width: 234
Flags: HW
LayerCount: 2
Fore
SplineSet
77.0434 674 m 1
 157.9674 674 l 1
 157.9674 0 l 1
 77.0434 0 l 1
 77.0434 674 l 1
EndSplineSet
EndChar

StartChar: J
Encoding: 74 74 43
Width: 365
Flags: HW
LayerCount: 2
Fore
SplineSet
215.0701 228.6921 m 2
 215.0701 674 l 1
 296.443 674 l 1
 296.443 221.3354 l 2
 296.443 43.1677 209.1297 -11 95.7188 -11 c 0
 63.9566 -11 25.4322 -3.8811 4.3567 5 c 1
 16.67 70.8752 l 1
 34.8811 64.2052 60.7622 57.7563 90.2111 57.7563 c 0
 169.1623 57.7563 215.0701 94.0108 215.0701 228.6921 c 2
EndSplineSet
EndChar

StartChar: K
Encoding: 75 75 44
Width: 535
Flags: HW
LayerCount: 2
Fore
SplineSet
77.0434 0 m 1
 77.0434 674 l 1
 157.6374 674 l 1
 157.6374 346.7676 l 1
 161.0863 346.7676 l 1
 178.8752 372.7676 197.443 396.3187 214.5619 418.1998 c 2
 425.4756 674 l 1
 525.9995 674 l 1
 280.1238 387.67 l 1
 545.924 0 l 1
 449.5945 0 l 1
 222.5619 334.5136 l 1
 157.6374 260.2758 l 1
 157.6374 0 l 1
 77.0434 0 l 1
EndSplineSet
EndChar

StartChar: L
Encoding: 76 76 45
Width: 467
Flags: HW
LayerCount: 2
Fore
SplineSet
77.0434 0 m 1
 77.0434 674 l 1
 157.9674 674 l 1
 157.9674 68.0863 l 1
 448.1731 68.0863 l 1
 448.1731 0 l 1
 77.0434 0 l 1
EndSplineSet
EndChar

StartChar: M
Encoding: 77 77 46
Width: 799
Flags: HW
LayerCount: 2
Fore
SplineSet
662.4001 0 m 1
 645.3734 299.8436 l 2
 639.8056 394.6759 633.2378 509.9738 634.2378 591.3459 c 1
 631.2378 591.3459 l 1
 608.1189 514.0493 580.1189 430.4327 545.6433 336.9304 c 2
 423.2486 3.5244 l 1
 362.4923 3.5244 l 1
 248.9887 330.2437 l 2
 216.2753 426.7627 189.3675 512.7193 170.2486 591.3459 c 1
 167.7997 591.3459 l 1
 165.9186 508.2704 161.2486 395.4548 154.6808 292.4869 c 2
 136.3241 0 l 1
 58.9245 0 l 1
 106.1623 674 l 1
 208.8539 674 l 1
 328.4109 338.3182 l 2
 356.4376 255.2915 379.2265 182.0049 397.1243 112.5994 c 1
 399.6754 112.5994 l 1
 417.4543 179.556 441.1243 252.9348 471.5999 338.1993 c 2
 596.1569 674 l 1
 699.0863 674 l 1
 741.8919 0 l 1
 662.4001 0 l 1
EndSplineSet
EndChar

StartChar: N
Encoding: 78 78 47
Width: 654
Flags: HW
LayerCount: 2
Fore
SplineSet
153.113 0 m 1
 77.0434 0 l 1
 77.0434 674 l 1
 164.4484 674 l 1
 387.6867 324.5727 l 2
 437.8323 244.6482 476.8323 174.9294 508.9512 106.405 c 1
 510.9512 107.075 l 1
 503.4001 197.5239 501.519 278.9294 501.519 383.7183 c 2
 501.519 674 l 1
 578.3675 674 l 1
 578.3675 0 l 1
 496.8002 0 l 1
 276.0375 349.265 l 2
 229.0108 425.2817 183.5619 501.5683 149.443 573.7627 c 1
 146.8919 572.7627 l 1
 151.8919 488.0005 153.113 407.9517 153.113 296.2817 c 2
 153.113 0 l 1
EndSplineSet
EndChar

StartChar: O
Encoding: 79 79 48
Width: 685
Flags: HW
LayerCount: 2
Fore
SplineSet
347.2699 685 m 0
 529.2753 685 649.0809 545.4001 649.0809 344 c 0
 649.0809 111.2866 507.6053 -11 338.1677 -11 c 0
 161.5945 -11 36.8978 126.1677 36.8978 330.8811 c 0
 36.8978 545.7134 168.9078 685 347.2699 685 c 0
344.0488 618.6759 m 0
 195.1885 618.6759 122.3562 481.9512 122.3562 332.8811 c 0
 122.3562 187.5999 201.8752 55.3241 342.9299 55.3241 c 0
 484.5357 55.3241 563.8436 184.7943 563.8436 340.1189 c 0
 563.8436 475.4001 492.5624 618.6759 344.0488 618.6759 c 0
EndSplineSet
EndChar

StartChar: P
Encoding: 80 80 49
Width: 526
Flags: HW
LayerCount: 2
Fore
SplineSet
77.0434 0 m 1
 77.0434 665.67 l 1
 118.3567 673.4489 172.1944 679 240.6487 679 c 0
 325.2753 679 388.3675 659.33 428.0108 622.8811 c 0
 463.7563 591 486.1785 542.9245 486.1785 483.2812 c 0
 486.1785 422.6379 467.9674 375.2324 434.443 340.8002 c 0
 388.7997 291.3513 314.0375 266.5624 229.7242 266.5624 c 0
 202.9186 266.5624 178.113 267.5624 157.6374 272.8002 c 1
 157.6374 0 l 1
 77.0434 0 l 1
157.6374 607.6492 m 1
 157.6374 339.3621 l 1
 177.5619 333.7943 202.4864 331.6754 231.962 331.6754 c 0
 339.4055 331.6754 404.8056 384.2866 404.8056 478.9512 c 0
 404.8056 570.9625 339.151 614.7681 241.8431 614.7681 c 0
 202.4697 614.7681 173.3241 611.3192 157.6374 607.6492 c 1
EndSplineSet
EndChar

StartChar: Q
Encoding: 81 81 50
Width: 685
Flags: HW
LayerCount: 2
Fore
SplineSet
654.6487 -29.1302 m 1
 630.8377 -97.0321 l 1
 540.6433 -73.7188 450.5999 -46.8377 373.8811 -20.5511 c 0
 359.5511 -16 346.4489 -11.33 333.2378 -11 c 0
 172.3133 -5.2378 36.8978 113.1189 36.8978 330.33 c 0
 36.8978 547.2812 168.3567 685 348.5999 685 c 0
 529.2753 685 649.0809 544.4001 649.0809 344.33 c 0
 649.0809 168.7943 568.0375 58.0054 454.0429 18.5565 c 1
 454.0429 15.0054 l 1
 522.113 -2.1135 596.962 -18.8002 654.6487 -29.1302 c 1
341.481 55.3241 m 0
 483.7568 55.3241 563.8436 184.5732 563.8436 340.1189 c 0
 563.8436 476.2812 492.5624 618.6759 345.7188 618.6759 c 0
 194.9674 618.6759 121.8051 479.0701 122.3562 331.7622 c 0
 121.8051 187.3621 201.9941 55.3241 341.481 55.3241 c 0
EndSplineSet
EndChar

StartChar: R
Encoding: 82 82 51
Width: 532
Flags: HW
LayerCount: 2
Fore
SplineSet
77.0434 0 m 1
 77.0434 665 l 1
 120.3567 673.67 183.0922 679 240.4376 679 c 0
 332.5131 679 392.2486 661.4322 433.8919 623.8811 c 0
 466.6374 594.4489 485.8485 548.5678 485.8485 497.1623 c 0
 485.8485 407.9245 429.7563 349.3734 358.254 324.3567 c 1
 358.254 321.8056 l 1
 409.8318 304.2545 441.5185 255.2378 457.8485 184.6433 c 0
 479.9674 89.0054 495.2807 26.4489 509.2807 0 c 1
 425.0267 0 l 1
 414.8056 19.7789 399.4756 77.2378 380.9245 161.6867 c 0
 361.2545 254.8323 323.8811 291.5624 243.3621 294.6813 c 1
 157.6374 294.6813 l 1
 157.6374 0 l 1
 77.0434 0 l 1
157.6374 608.2003 m 1
 157.6374 356.481 l 1
 249.4376 356.481 l 2
 344.0755 356.481 404.8056 408.3133 404.8056 487.4001 c 0
 404.8056 577.2925 339.5999 615.7681 245.2753 615.9892 c 0
 202.4697 615.9892 172.3241 611.8703 157.6374 608.2003 c 1
EndSplineSet
EndChar

StartChar: S
Encoding: 83 83 52
Width: 488
Flags: HW
LayerCount: 2
Fore
SplineSet
41.67 33.5678 m 1
 63.5244 101.3241 l 1
 102.4055 76.7563 158.5999 57.2052 218.2432 57.2052 c 0
 308.8811 57.2052 362.7301 105.3942 362.7301 175.8377 c 0
 362.7301 240.7134 326.0434 278.3246 234 313.3513 c 0
 124.1189 352.2324 56.4756 409.4435 56.4756 503.7568 c 0
 56.4756 607.7134 142.8811 685 271.1998 685 c 0
 338.8264 685 389.2486 668.5511 417.7563 652.1189 c 1
 394.4697 585.7948 l 1
 373.6053 598.5737 328.8431 617.7948 268.5298 617.7948 c 0
 173.5185 617.7948 137.9507 560.3513 137.9507 513.519 c 0
 137.9507 448.7622 179.1885 416.9299 272.9941 380.3621 c 0
 386.6374 335.9132 444.7563 281.8377 444.7563 182.5999 c 0
 444.7563 79.9733 369.2486 -10 212.0321 -10 c 0
 148.1944 -10 77.5511 9.33 41.67 33.5678 c 1
EndSplineSet
EndChar

StartChar: T
Encoding: 84 84 53
Width: 491
Flags: HW
LayerCount: 2
Fore
SplineSet
204.9245 0 m 1
 204.9245 605.6926 l 1
 -2.0701 605.6926 l 1
 -2.0701 674 l 1
 494.8431 674 l 1
 494.8431 605.6926 l 1
 286.5185 605.6926 l 1
 286.5185 0 l 1
 204.9245 0 l 1
EndSplineSet
EndChar

StartChar: U
Encoding: 85 85 54
Width: 643
Flags: HW
LayerCount: 2
Fore
SplineSet
76.4923 674 m 1
 157.6374 674 l 1
 157.6374 273.3888 l 2
 157.6374 119.6808 226.5131 55.773 318.6921 55.773 c 0
 420 55.773 486.2057 122.8164 486.2057 273.3888 c 2
 486.2057 674 l 1
 567.7997 674 l 1
 567.7997 279.5999 l 2
 567.7997 72.2699 458.113 -11 315.3621 -11 c 0
 180.4001 -11 76.4923 66.151 76.4923 274.7943 c 2
 76.4923 674 l 1
EndSplineSet
EndChar

StartChar: V
Encoding: 86 86 55
Width: 550
Flags: HW
LayerCount: 2
Fore
SplineSet
312.2861 0 m 1
 224.33 0 l 1
 3.1944 674 l 1
 90.6428 674 l 1
 197.6374 337.5619 l 2
 227.443 245.3996 252.3508 163.0429 270.7997 84.8485 c 1
 273.2486 84.8485 l 1
 292.3675 162.6107 320.3942 247.5185 351.6487 336.6808 c 2
 468 674 l 1
 554.6862 674 l 1
 312.2861 0 l 1
EndSplineSet
EndChar

StartChar: W
Encoding: 87 87 56
Width: 841
Flags: HW
LayerCount: 2
Fore
SplineSet
271.3729 0 m 1
 186.7134 0 l 1
 15 674 l 1
 100.1184 674 l 1
 182.9186 327.0429 l 2
 203.2753 242.3562 221.5131 159.0429 233.632 94.2807 c 1
 236.0809 94.2807 l 1
 247.0809 160.8051 268.7676 240.8051 291.7943 327.594 c 2
 385.6112 674 l 1
 468.9507 674 l 1
 554.0809 326.8485 l 2
 573.3187 245.9507 592.2432 165.8051 602.2432 95.4918 c 1
 604.6921 95.4918 l 1
 618.481 169.0429 637.3888 243.8051 659.1944 328.0429 c 2
 751.8002 674 l 1
 834.7242 674 l 1
 642.0863 0 l 1
 557.7568 0 l 1
 470.0755 356.3893 l 2
 448.151 445.255 433.9132 511.0439 424.7943 578.4494 c 1
 422.7943 578.4494 l 1
 411.2432 511.595 395.5565 445.925 369.5131 356.8382 c 2
 271.3729 0 l 1
EndSplineSet
EndChar

StartChar: X
Encoding: 88 88 57
Width: 567
Flags: HW
LayerCount: 2
Fore
SplineSet
541.3241 0 m 1
 447.4435 0 l 1
 358.5511 151.6813 l 2
 322.3888 209.7247 300.481 246.8436 279.6921 285.8436 c 1
 276.9132 285.8436 l 1
 258.0054 246.8436 237.9887 210.3947 202.4864 151.0113 c 2
 119.3729 0 l 1
 25.5945 0 l 1
 233.2057 341.4489 l 1
 34.0434 674 l 1
 127.594 674 l 1
 219.8431 512.3942 l 2
 245.1998 468.6053 264.1076 434.9353 283.4543 398.2753 c 1
 285.6754 398.2753 l 1
 305.2432 438.0375 323.0488 469.1564 348.5244 512.3942 c 2
 443.3513 674 l 1
 537.1297 674 l 1
 329.8318 345.67 l 1
 541.3241 0 l 1
EndSplineSet
EndChar

StartChar: Y
Encoding: 89 89 58
Width: 534
Flags: HW
LayerCount: 2
Fore
SplineSet
308.2807 0 m 1
 227.1356 0 l 1
 227.1356 287.0434 l 1
 13.2378 674 l 1
 105.5673 674 l 1
 203.1297 485.5565 l 2
 229.0375 433.9887 250.292 393.0809 271.1998 345.5131 c 1
 273.1998 345.5131 l 1
 292.4376 390.0809 315.9132 434.7676 342.7188 486.0054 c 2
 442.519 674 l 1
 534.5185 674 l 1
 308.2807 287.8056 l 1
 308.2807 0 l 1
EndSplineSet
EndChar

StartChar: Z
Encoding: 90 90 59
Width: 550
Flags: HW
LayerCount: 2
Fore
SplineSet
30.4756 0 m 1
 30.4756 48.0809 l 1
 409.2704 603.2437 l 1
 409.2704 606.2437 l 1
 62.5945 606.2437 l 1
 62.5945 674 l 1
 514.4376 674 l 1
 514.4376 624.1569 l 1
 137.2861 71.0863 l 1
 137.2861 67.7563 l 1
 519.4376 67.7563 l 1
 519.4376 0 l 1
 30.4756 0 l 1
EndSplineSet
EndChar

StartChar: bracketleft
Encoding: 91 91 60
Width: 280
Flags: HW
LayerCount: 2
Fore
SplineSet
264.0755 -112 m 1
 82.9512 -112 l 1
 82.9512 685 l 1
 264.0755 685 l 1
 264.0755 632.8002 l 1
 147.3187 632.8002 l 1
 147.3187 -60.1302 l 1
 264.0755 -60.1302 l 1
 264.0755 -112 l 1
EndSplineSet
EndChar

StartChar: backslash
Encoding: 92 92 61
Width: 341
Flags: HW
LayerCount: 2
Fore
SplineSet
344.6813 -40 m 1
 280.1682 -40 l 1
 0.9566 685 l 1
 65.4697 685 l 1
 344.6813 -40 l 1
EndSplineSet
EndChar

StartChar: bracketright
Encoding: 93 93 62
Width: 280
Flags: HW
LayerCount: 2
Fore
SplineSet
17.0054 686 m 1
 198.2486 686 l 1
 198.2486 -112 l 1
 17.0054 -112 l 1
 17.0054 -59.8002 l 1
 133.4322 -59.8002 l 1
 133.4322 633.8002 l 1
 17.0054 633.8002 l 1
 17.0054 686 l 1
EndSplineSet
EndChar

StartChar: asciicircum
Encoding: 94 94 63
Width: 596
Flags: HW
LayerCount: 2
Fore
SplineSet
534.3621 189.8323 m 1
 467.8757 189.8323 l 1
 299 581.2003 l 1
 296.67 581.2003 l 1
 128.2432 189.8323 l 1
 62.0868 189.8323 l 1
 268.4001 650 l 1
 327.5999 650 l 1
 534.3621 189.8323 l 1
EndSplineSet
EndChar

StartChar: underscore
Encoding: 95 95 64
Width: 500
Flags: HW
LayerCount: 2
Fore
SplineSet
0 -75 m 1
 500 -75 l 1
 500 -125 l 1
 0 -125 l 1
 0 -75 l 1
EndSplineSet
EndChar

StartChar: quoteleft
Encoding: 8216 8216 65
Width: 201
Flags: HW
LayerCount: 2
Fore
SplineSet
120.7997 454.2758 m 1
 35.5945 444.6058 l 1
 58 526.8757 101 635.9191 126.3621 679.1189 c 1
 178.6374 685 l 1
 158.2319 629.0113 131.5619 524.7568 120.7997 454.2758 c 1
EndSplineSet
EndChar

StartChar: a
Encoding: 97 97 66
Width: 477
Flags: HW
LayerCount: 2
Fore
SplineSet
415.1885 0 m 1
 341.5678 0 l 1
 334.2378 62.2812 l 1
 331.2378 62.2812 l 1
 305.0434 24.7301 252.9245 -11 182.3133 -11 c 0
 85.2111 -11 35.8056 58.2111 35.8056 126.8377 c 0
 35.8056 243.1243 138.7622 307.811 327.0434 306.3621 c 1
 327.0434 316.5999 l 2
 327.0434 357.5511 316.2812 433.6058 214.8377 433.1569 c 0
 170.1944 433.1569 123.5511 420.1736 89.8811 397.1569 c 1
 70.8056 452.0922 l 1
 110.8323 478.1189 168.6867 494.1944 226.8865 494.1944 c 0
 373.4864 494.1944 407.9674 392.5077 407.9674 297.4756 c 2
 407.9674 115.4322 l 2
 407.9674 74.5678 409.9674 33.8056 415.1885 0 c 1
328.4756 161.5999 m 2
 328.4756 248.519 l 1
 231.4055 250.9679 117.9674 233.7568 117.9674 136.9299 c 0
 117.9674 77.5131 157.2486 50.3675 202.5131 50.3675 c 0
 268.5244 50.3675 309.4489 91.7676 323.8056 133.481 c 0
 326.8056 142.9299 328.4756 152.9299 328.4756 161.5999 c 2
EndSplineSet
EndChar

StartChar: b
Encoding: 98 98 67
Width: 566
Flags: HW
LayerCount: 2
Fore
SplineSet
141.0375 0 m 1
 70.2812 0 l 1
 72.2812 33.4489 74.2812 80.9566 74.2812 123.1243 c 2
 74.2812 710 l 1
 155.2052 710 l 1
 155.2052 403.8865 l 1
 157.2052 403.8865 l 1
 188.3241 459.1677 244.6808 494.1944 324.1731 494.1944 c 0
 444.292 494.1944 528.8431 394.0755 528.292 247.6433 c 0
 528.292 74.8811 418.632 -11 311.3187 -11 c 0
 240.4864 -11 184.0375 16.8056 147.4697 80.8323 c 1
 145.2486 80.8323 l 1
 141.0375 0 l 1
155.2052 280.67 m 2
 155.2052 192.2699 l 2
 155.2052 181.5999 156.8752 170.481 158.8752 159.9132 c 0
 176.3508 97.4864 229.6487 54.443 294.9566 54.443 c 0
 390.0868 54.443 446.038 131.8865 446.038 244.8811 c 0
 446.038 344.0868 394.519 429.5303 297.7455 429.5303 c 0
 236.5565 429.5303 179.2486 386.5891 160.3241 318.0434 c 0
 157.8752 307.4756 155.2052 295.3567 155.2052 280.67 c 2
EndSplineSet
EndChar

StartChar: c
Encoding: 99 99 68
Width: 446
Flags: HW
LayerCount: 2
Fore
SplineSet
402.5244 79.5886 m 1
 417.2866 18.3567 l 1
 394.1944 6.8056 343.6433 -10 278.1677 -10 c 0
 133.33 -10 38.3567 88.7889 38.3567 236.4322 c 0
 38.3567 385.7889 140.5945 493.9733 296.5999 493.9733 c 0
 349.4322 493.9733 396.33 480.1677 419.4055 467.3888 c 1
 400.0922 404.4869 l 1
 378.0755 415.9458 344.5999 428.4114 295.6754 428.4114 c 0
 182.2052 428.4114 120.8318 343.0701 121.1618 240.6433 c 0
 121.1618 126.7676 193.9941 55.8919 292.7676 55.8919 c 0
 343.5999 55.8919 377.4055 68.9186 402.5244 79.5886 c 1
EndSplineSet
EndChar

StartChar: d
Encoding: 100 100 69
Width: 560
Flags: HW
LayerCount: 2
Fore
SplineSet
405.2057 710 m 1
 486.3508 710 l 1
 486.3508 123.1243 l 2
 486.3508 80.9566 488.1297 33.4489 490.3508 0 c 1
 417.2812 0 l 1
 413.4001 84.8323 l 1
 411.4001 84.8323 l 1
 384.6379 31.2812 326.5357 -11 245.6867 -11 c 0
 128.5678 -11 38.3567 88 38.3567 234.1944 c 0
 37.3567 395.4055 137.5678 494.1944 255.2378 494.1944 c 0
 330.9679 494.1944 381.2057 457.9132 403.2057 419.0054 c 1
 405.2057 419.0054 l 1
 405.2057 710 l 1
405.2057 201.5999 m 2
 405.2057 287.3567 l 2
 405.2057 298.9245 403.7568 314.2812 401.0868 325.849 c 0
 386.9512 382.8002 338.33 430.0814 270.2432 430.0814 c 0
 176.9186 430.0814 120.8318 348.4435 120.8318 238.6433 c 0
 120.8318 139.1243 170.2052 55.3241 268.1243 55.3241 c 0
 328.6433 55.3241 383.8323 95.3675 400.7568 163.3621 c 0
 403.7568 175.481 405.2057 187.481 405.2057 201.5999 c 2
EndSplineSet
EndChar

StartChar: e
Encoding: 101 101 70
Width: 498
Flags: HW
LayerCount: 2
Fore
SplineSet
458.632 228.9191 m 1
 116.9674 228.9191 l 1
 118.3996 104.4376 195.6808 54.1297 285.3187 54.1297 c 0
 349.481 54.1297 387.5732 65.4864 419.1998 79.0375 c 1
 433.8431 20 l 1
 405.0488 6.8056 352.1944 -10 274.3621 -10 c 0
 127.33 -10 38.3567 88.5678 38.3567 233.3133 c 0
 38.3567 381.9679 125.7301 494.1944 264.0488 494.1944 c 0
 421.5999 494.1944 461.5131 354.1243 461.5131 268.1623 c 0
 461.5131 250.7568 460.4109 238.1302 458.632 228.9191 c 1
118.5352 288.2866 m 1
 381.9946 288.2866 l 1
 382.9946 345.5945 358.519 435.038 257.4977 435.038 c 0
 165.1564 435.038 125.3241 351.4923 118.5352 288.2866 c 1
EndSplineSet
EndChar

StartChar: f
Encoding: 102 102 71
Width: 286
Flags: HW
LayerCount: 2
Fore
SplineSet
163.1618 0 m 1
 82.2378 0 l 1
 82.2378 420.9625 l 1
 14.4489 420.9625 l 1
 14.4489 483.1944 l 1
 82.2378 483.1944 l 1
 82.2378 506.8811 l 2
 82.2378 575.9245 97.4489 637.3567 137.8811 676.6867 c 0
 170.0755 708 213.9299 721 253.4643 721 c 0
 285.1243 721 311.7943 714.2111 328.4376 706.7622 c 1
 316.0809 643.3192 l 1
 303.0809 649.4381 284.962 655.0059 259.1564 655.0059 c 0
 182.4918 655.0059 162.8318 586.7735 162.8318 509.3133 c 2
 162.8318 483.1944 l 1
 281.9186 483.1944 l 1
 281.9186 420.9625 l 1
 163.1618 420.9625 l 1
 163.1618 0 l 1
EndSplineSet
EndChar

StartChar: g
Encoding: 103 103 72
Width: 556
Flags: HW
LayerCount: 2
Fore
SplineSet
414.519 483.1944 m 1
 486.6053 483.1944 l 1
 484.6053 448.4055 482.6053 409.5244 482.6053 351.9245 c 2
 482.6053 70.33 l 2
 482.6053 -43.0868 459.5886 -109.5945 414.4109 -151.1189 c 0
 367.4376 -194.5511 300.1243 -209 240.2866 -209 c 0
 182.3133 -209 119 -195.33 80.3567 -168.8811 c 1
 101.7622 -105.8703 l 1
 133.8811 -126.1081 183.1944 -144.4381 243.7622 -144.4381 c 0
 335.4001 -144.4381 402.5624 -96.8436 402.5624 28.5244 c 2
 402.5624 84.849 l 1
 400.5624 84.849 l 1
 374.1302 38.7134 320.9946 1.4322 244.6867 1.4322 c 0
 123.9078 1.4322 38.3567 104.1189 38.3567 238.0922 c 0
 38.3567 402.1189 145.7134 494.1944 256.4489 494.1944 c 0
 342.0868 494.1944 387.8757 449.2432 409.0868 409.2432 c 1
 411.0868 409.2432 l 1
 414.519 483.1944 l 1
401.6813 205.1677 m 2
 401.6813 294.0167 l 2
 401.6813 308.5945 400.2324 322.1623 396.5624 334.4001 c 0
 379.7568 386.5624 335.8056 430.4114 269.481 430.4114 c 0
 182.3508 430.4114 120.8318 357.2057 120.8318 242.7622 c 0
 120.8318 145.8865 170.8919 64.5619 268.0321 64.5619 c 0
 323.8811 64.5619 374.849 99.4864 394.4435 157.3621 c 0
 399.2324 172.151 401.6813 189.5999 401.6813 205.1677 c 2
EndSplineSet
EndChar

StartChar: h
Encoding: 104 104 73
Width: 551
Flags: HW
LayerCount: 2
Fore
SplineSet
74.2812 0 m 1
 74.2812 710 l 1
 155.7563 710 l 1
 155.7563 405.6754 l 1
 157.7563 405.6754 l 1
 172.0863 430.9132 193.8752 453.7188 221.443 469.2866 c 0
 247.2319 484.8544 278.4697 494.1944 312.6053 494.1944 c 0
 374.5673 494.1944 480.5886 456.8757 480.5886 288.5678 c 2
 480.5886 0 l 1
 399.4435 0 l 1
 399.4435 279.0434 l 2
 399.4435 358.7735 369.189 426.3192 284.4055 426.3192 c 0
 225.4376 426.3192 178.6808 384.9191 161.8752 335.1623 c 0
 157.2052 322.9245 155.7563 309.4756 155.7563 292.5678 c 2
 155.7563 0 l 1
 74.2812 0 l 1
EndSplineSet
EndChar

StartChar: i
Encoding: 105 105 74
Width: 229
Flags: HW
LayerCount: 2
Fore
SplineSet
155.7563 0 m 1
 74.2812 0 l 1
 74.2812 483.1944 l 1
 155.7563 483.1944 l 1
 155.7563 0 l 1
115.2432 672.7676 m 0
 146.7242 672.7676 166.6808 649.3621 167.0108 619.6433 c 0
 167.2319 590.9245 146.7242 567.519 113.5732 567.519 c 0
 83.3133 567.519 62.8056 590.9245 62.8056 619.6433 c 0
 62.8056 648.9132 84.7622 672.7676 115.2432 672.7676 c 0
EndSplineSet
EndChar

StartChar: j
Encoding: 106 106 75
Width: 238
Flags: HW
LayerCount: 2
Fore
SplineSet
-37.1623 -209 m 1
 -45.8056 -144.557 l 1
 -4.9078 -142.0059 29.5511 -130.1081 50.67 -106.8703 c 0
 74.7889 -78.9625 84.6867 -40.9625 84.6867 76.6754 c 2
 84.6867 483.1944 l 1
 165.8318 483.1944 l 1
 165.8318 43.2432 l 2
 165.8318 -49.4756 152.2052 -110.2378 109.3241 -154.6867 c 0
 71.2486 -193.5678 7.7242 -208.5511 -37.1623 -209 c 1
126.3187 672.7676 m 0
 157.1297 672.7676 177.0863 648.9132 177.0863 619.6433 c 0
 177.3074 591.9245 157.7997 567.519 123.8698 567.519 c 0
 93.1677 567.519 73.2111 591.9245 73.2111 619.6433 c 0
 73.2111 648.9132 94.8377 672.7676 126.3187 672.7676 c 0
EndSplineSet
EndChar

StartChar: k
Encoding: 107 107 76
Width: 461
Flags: HW
LayerCount: 2
Fore
SplineSet
155.2052 710 m 1
 155.2052 259.7943 l 1
 157.2052 259.7943 l 1
 169.2052 276.5565 186.5619 298.0054 200.6808 314.5565 c 2
 346.8811 483.1944 l 1
 445.1939 483.1944 l 1
 257.3616 284.1944 l 1
 471.6428 0 l 1
 372.1189 0 l 1
 201.0108 235.368 l 1
 155.2052 184.8002 l 1
 155.2052 0 l 1
 74.2812 0 l 1
 74.2812 710 l 1
 155.2052 710 l 1
EndSplineSet
EndChar

StartChar: l
Encoding: 108 108 77
Width: 231
Flags: HW
LayerCount: 2
Fore
SplineSet
74.2812 0 m 1
 74.2812 710 l 1
 155.7563 710 l 1
 155.7563 0 l 1
 74.2812 0 l 1
EndSplineSet
EndChar

StartChar: m
Encoding: 109 109 78
Width: 831
Flags: HW
LayerCount: 2
Fore
SplineSet
74.2812 0 m 1
 74.2812 354.7568 l 2
 74.2812 404.0434 72.8323 443.4322 70.2812 483.1944 c 1
 142.0375 483.1944 l 1
 146.3675 404.0321 l 1
 148.9186 404.0321 l 1
 176.2753 451.4322 221.3942 494.1944 301.6053 494.1944 c 0
 367.3942 494.1944 417.8431 453.7188 438.3942 395.9132 c 1
 440.3942 395.9132 l 1
 455.6053 423.811 474.0375 444.481 494.1297 459.151 c 0
 523.3675 481.9566 555.4864 494.1944 601.7509 494.1944 c 0
 663.7296 494.1944 760.7242 455.0868 760.7242 284.7622 c 2
 760.7242 0 l 1
 681.0113 0 l 1
 681.0113 274.1456 l 2
 681.0113 369.9191 645.4001 426.8703 572.9733 426.8703 c 0
 521.1243 426.8703 480.7242 389.038 465.0375 345.0868 c 0
 460.9186 332.189 457.4697 316.519 457.4697 300.7301 c 2
 457.4697 0 l 1
 377.7568 0 l 1
 377.7568 291.849 l 2
 377.7568 370.368 342.4756 426.8703 274.2866 426.8703 c 0
 217.7676 426.8703 176.2486 381.9191 161.443 335.8323 c 0
 156.443 323.1623 153.9941 307.5945 153.9941 292.4756 c 2
 153.9941 0 l 1
 74.2812 0 l 1
EndSplineSet
EndChar

StartChar: n
Encoding: 110 110 79
Width: 551
Flags: HW
LayerCount: 2
Fore
SplineSet
74.2812 0 m 1
 74.2812 354.7568 l 2
 74.2812 404.0434 72.8323 443.4322 70.2812 483.1944 c 1
 142.9186 483.1944 l 1
 147.7997 402.3621 l 1
 150.1297 402.3621 l 1
 174.0375 449.3133 230.8431 494.1944 310.7242 494.1944 c 0
 374.2373 494.1944 480.5886 456.8757 480.5886 288.5511 c 2
 480.5886 0 l 1
 399.4435 0 l 1
 399.4435 279.9245 l 2
 399.4435 359.3246 369.189 426.6492 284.2866 426.6492 c 0
 224.7676 426.6492 178.0108 384.4869 161.8752 333.6112 c 0
 157.8752 322.1623 155.7563 306.7134 155.7563 292.0434 c 2
 155.7563 0 l 1
 74.2812 0 l 1
EndSplineSet
EndChar

StartChar: o
Encoding: 111 111 80
Width: 545
Flags: HW
LayerCount: 2
Fore
SplineSet
276.481 494.1944 m 0
 414.7676 494.1944 507.962 393.7622 507.962 246.2111 c 0
 507.962 66.7622 383.7509 -11 268.9299 -11 c 0
 138.7622 -11 38.3567 85.1189 38.3567 237.7622 c 0
 38.3567 400.4489 144.9245 494.1944 276.481 494.1944 c 0
274.5999 432.3947 m 0
 168.1297 432.3947 121.4918 334.0701 121.4918 240.7622 c 0
 121.4918 132.4376 184.7242 50.9186 272.481 50.9186 c 0
 359.0434 50.9186 424.6058 131.5565 424.6058 243.2111 c 0
 424.6058 325.9245 381.8757 432.3947 274.5999 432.3947 c 0
EndSplineSet
EndChar

StartChar: p
Encoding: 112 112 81
Width: 566
Flags: HW
LayerCount: 2
Fore
SplineSet
74.2812 -198 m 1
 74.2812 326.1189 l 2
 74.2812 387.8811 72.2812 437.6433 70.2812 483.1944 c 1
 143.5886 483.1944 l 1
 148.2486 399.2432 l 1
 150.2486 399.2432 l 1
 185.3508 459.1677 243.2486 494.1944 322.8431 494.1944 c 0
 440.8865 494.1944 528.292 394.8377 528.292 248.8811 c 0
 528.292 75.1189 422.4376 -11 308.5298 -11 c 0
 243.2753 -11 186.6808 17.6867 157.2052 67.2057 c 1
 155.2052 67.2057 l 1
 155.2052 -198 l 1
 74.2812 -198 l 1
155.2052 281.0167 m 2
 155.2052 195.7188 l 2
 155.2052 183.0488 156.8752 170.9299 159.2052 159.481 c 0
 175.6808 96.2753 230.6487 53.5619 294.9566 53.5619 c 0
 390.6379 53.5619 446.038 131.7676 446.038 245.4489 c 0
 446.038 343.7568 393.9679 429.2003 298.4055 429.2003 c 0
 236.8865 429.2003 178.4697 385.4869 161.3241 317.6112 c 0
 158.3241 306.0434 155.2052 292.8056 155.2052 281.0167 c 2
EndSplineSet
EndChar

StartChar: q
Encoding: 113 113 82
Width: 558
Flags: HW
LayerCount: 2
Fore
SplineSet
405.2057 -198 m 1
 405.2057 75.9512 l 1
 402.7568 75.9512 l 1
 377.1135 27.8323 322.7568 -11 243.9245 -11 c 0
 130 -11 38.3567 86.9078 38.3567 233.3133 c 0
 38.3567 415.5678 155.7134 494.1944 257.9245 494.1944 c 0
 334.2057 494.1944 384.4435 456.2432 408.2057 409.1243 c 1
 410.2057 408.7943 l 1
 412.7568 483.1944 l 1
 490.1297 483.1944 l 1
 488.1297 443.4489 486.3508 401.9245 486.3508 351.5945 c 2
 486.3508 -198 l 1
 405.2057 -198 l 1
405.2057 195.5999 m 2
 405.2057 288.6867 l 2
 405.2057 301.3734 403.7568 314.8323 401.0868 326.519 c 0
 386.9512 381.9191 339 429.2003 271.2432 429.2003 c 0
 177.9186 429.2003 120.8318 350.1135 120.8318 239.0922 c 0
 120.8318 140.4643 167.6374 54.443 267.7943 54.443 c 0
 326.0755 54.443 376.9245 90.2486 397.6379 152.6754 c 0
 402.0868 165.5732 405.2057 182.0321 405.2057 195.5999 c 2
EndSplineSet
EndChar

StartChar: r
Encoding: 114 114 83
Width: 321
Flags: HW
LayerCount: 2
Fore
SplineSet
74.2812 0 m 1
 74.2812 333.3567 l 2
 74.2812 389.2866 72.8323 438.0755 70.2812 483.1944 c 1
 142.3675 483.1944 l 1
 145.2486 387.9566 l 1
 148.3508 387.9566 l 1
 170.5619 452.0321 223.5352 494.1944 283.3675 494.1944 c 0
 292.2319 494.1944 299.2319 493.1944 306.9941 491.6433 c 1
 306.9941 414.3626 l 1
 298.5619 416.3626 289.7997 417.2437 278.1564 417.2437 c 0
 215.3508 417.2437 171.3241 368.7247 159.2052 301.4168 c 0
 157.2052 288.849 155.2052 274.2812 155.2052 259.1623 c 2
 155.2052 0 l 1
 74.2812 0 l 1
EndSplineSet
EndChar

StartChar: s
Encoding: 115 115 84
Width: 392
Flags: HW
LayerCount: 2
Fore
SplineSet
40.2545 23.33 m 1
 60.67 85.4697 l 1
 87.33 68.9186 132.4977 51.3675 176.0488 51.3675 c 0
 242.1356 51.3675 272.849 84.1076 272.849 125.9566 c 0
 272.849 169.9245 246.3567 193.189 181.2111 217.9946 c 0
 95.1623 249.2057 53.5945 296.2812 53.9245 353.9512 c 0
 53.9245 430.5511 115.5244 494.1944 218.0054 494.1944 c 0
 266.4109 494.1944 308.0375 480.6433 334.4697 464.5244 c 1
 313.1564 404.1569 l 1
 294.8431 416.1569 260.3187 432.6058 214.632 432.6058 c 0
 161.2319 432.6058 132.5352 401.5357 132.5352 363.9245 c 0
 132.5352 322.4055 161.7997 303.5999 225.3675 278.9132 c 0
 307.9941 247.811 351.6808 206.1677 352.0108 133.7188 c 0
 352.0108 49.0755 285.9186 -10 173.9299 -10 c 0
 121.6433 -10 74.0167 3.33 40.2545 23.33 c 1
EndSplineSet
EndChar

StartChar: t
Encoding: 116 116 85
Width: 327
Flags: HW
LayerCount: 2
Fore
SplineSet
93.7134 600.8056 m 1
 173.8752 622.1944 l 1
 173.8752 483.1944 l 1
 301.8431 483.1944 l 1
 301.8431 420.9625 l 1
 173.8752 420.9625 l 1
 173.8752 152.2486 l 2
 173.8752 92.1297 191.443 56.8752 240.6808 56.8752 c 0
 263.9186 56.8752 281.0375 60.3241 292.4864 63.773 c 1
 296.7242 1.5511 l 1
 279.8431 -5 253.4376 -10 220.0321 -10 c 0
 180.4055 -10 147.5511 2.7622 127.2378 26.6433 c 0
 103.2545 52.8544 93.7134 94.8377 93.7134 150.5565 c 2
 93.7134 420.9625 l 1
 17.67 420.9625 l 1
 17.67 483.1944 l 1
 93.7134 483.1944 l 1
 93.7134 600.8056 l 1
EndSplineSet
EndChar

StartChar: u
Encoding: 117 117 86
Width: 547
Flags: HW
LayerCount: 2
Fore
SplineSet
473.3508 483.1944 m 1
 473.3508 129.8865 l 2
 473.3508 80.8377 475.1297 38.2111 477.3508 0 c 1
 404.7134 0 l 1
 400.2812 80.0434 l 1
 398.2812 80.0434 l 1
 375.4923 40.1189 323.6867 -11 237.3567 -11 c 0
 163.8002 -11 71.1623 29.2432 71.1623 201 c 2
 71.1623 483.1944 l 1
 152.3074 483.1944 l 1
 152.3074 215.2866 l 2
 152.3074 121.5298 181.8919 56.9941 263.6754 56.9941 c 0
 324.3133 56.9941 366.8323 99.6053 383.6379 140.0054 c 0
 388.3079 153.2432 392.2057 169.5999 392.2057 186.2866 c 2
 392.2057 483.1944 l 1
 473.3508 483.1944 l 1
EndSplineSet
EndChar

StartChar: v
Encoding: 118 118 87
Width: 476
Flags: HW
LayerCount: 2
Fore
SplineSet
13.2378 483.1944 m 1
 100.8051 483.1944 l 1
 198.1564 207.773 l 2
 214.8431 162.7563 227.7509 122.6374 238.7676 82.6374 c 1
 241.3187 82.6374 l 1
 253.0054 122.6374 267.3621 162.8752 283.2699 207.773 c 2
 380.6379 483.1944 l 1
 466.3241 483.1944 l 1
 275.3996 0 l 1
 198.0434 0 l 1
 13.2378 483.1944 l 1
EndSplineSet
EndChar

StartChar: w
Encoding: 119 119 88
Width: 733
Flags: HW
LayerCount: 2
Fore
SplineSet
18.9245 483.1944 m 1
 102.3996 483.1944 l 1
 169.292 233.3241 l 2
 183.6487 179.0863 196.4376 128.9941 205.8865 79.7997 c 1
 208.5565 79.7997 l 1
 219.6754 127.8752 235.6754 180.0863 252.811 232.773 c 2
 334.1623 483.1944 l 1
 403.7242 483.1944 l 1
 481.7355 236.7563 l 2
 499.1944 179.0863 513.3133 128.3241 525.2111 79.7997 c 1
 527.4322 79.7997 l 1
 536.33 128.3241 549.5678 178.6374 565.4756 236.0863 c 2
 637.1569 483.1944 l 1
 718.3187 483.1944 l 1
 561.5131 0 l 1
 487.3513 0 l 1
 411.4489 236.2704 l 2
 393.3133 291.076 379.4055 340.2116 367.2866 396.5249 c 1
 365.2866 396.5249 l 1
 353.0488 338.3138 337.3621 287.6271 320.0054 235.6004 c 2
 239.2052 0 l 1
 164.7134 0 l 1
 18.9245 483.1944 l 1
EndSplineSet
EndChar

StartChar: x
Encoding: 120 120 89
Width: 457
Flags: HW
LayerCount: 2
Fore
SplineSet
16.5945 483.1944 m 1
 107.7129 483.1944 l 1
 178.9186 377.3187 l 2
 197.6053 350.1998 212.7242 325.5298 228.962 298.292 c 1
 231.5131 298.292 l 1
 248.1998 326.632 264.4376 352.0809 281.1243 378.1998 c 2
 350.7889 483.1944 l 1
 439.8051 483.1944 l 1
 274.5673 249.1944 l 1
 444.594 0 l 1
 352.3734 0 l 1
 278.2699 110.8757 l 2
 259.3621 139.1135 242.6754 166.6813 225.3187 195.9191 c 1
 223.3187 195.9191 l 1
 207.0809 166.3513 190.1731 140.5624 170.5886 110.8757 c 2
 98.924 0 l 1
 8.3567 0 l 1
 181.1623 246.4322 l 1
 16.5945 483.1944 l 1
EndSplineSet
EndChar

StartChar: y
Encoding: 121 121 90
Width: 466
Flags: HW
LayerCount: 2
Fore
SplineSet
9.5678 483.1944 m 1
 98.2373 483.1944 l 1
 207.2753 192.8752 l 2
 218.8431 160.6374 230.632 122.9674 238.7509 93.3996 c 1
 241.0809 93.3996 l 1
 250.1998 122.5185 260.7676 159.1885 273.1243 194.9941 c 2
 371.9512 483.1944 l 1
 458.9674 483.1944 l 1
 324.8806 136.6487 l 2
 262.8051 -27 220.0429 -112.4756 159.3562 -165.1623 c 0
 116.9507 -202.1189 75.6808 -217 55.1998 -221 c 1
 34.3621 -152.3626 l 1
 56.9299 -145.1248 86.2866 -130.7681 112.8544 -107.3947 c 0
 136.5244 -87.9191 166.4322 -52.8757 187.2378 -6.4489 c 0
 191.5678 3.4489 194.1189 9.5511 194.1189 14.8811 c 0
 194.1189 19.8811 192.4489 26.4322 187.7889 37.3133 c 2
 9.5678 483.1944 l 1
EndSplineSet
EndChar

StartChar: z
Encoding: 122 122 91
Width: 423
Flags: HW
LayerCount: 2
Fore
SplineSet
17.7622 0 m 1
 17.7622 47.7242 l 1
 242.3893 341.0326 l 2
 263.3626 367.0059 282.7948 389.887 304.7681 415.6492 c 1
 304.7681 417.6492 l 1
 37.5511 417.6492 l 1
 37.5511 483.1944 l 1
 403.962 483.1944 l 1
 403.292 431.9191 l 1
 180.6482 141.594 l 2
 160.6749 115.7296 141.0316 91.7563 120.2861 67.3241 c 1
 120.2861 65.3241 l 1
 407.2753 65.3241 l 1
 407.2753 0 l 1
 17.7622 0 l 1
EndSplineSet
EndChar

StartChar: braceleft
Encoding: 123 123 92
Width: 280
Flags: HW
LayerCount: 2
Fore
SplineSet
27.8811 263.2812 m 1
 27.8811 311.7188 l 1
 99 311.5999 109.2378 350.7188 109.2378 386.5244 c 0
 109.2378 414.7622 105.1189 442.4322 101.4489 470.5511 c 0
 97 499 92.8811 526.4489 92.8811 554.2378 c 0
 92.8811 646.4489 153.33 685.33 237.4055 685.33 c 2
 257.0054 685.33 l 1
 257.0054 632.8002 l 1
 239.0054 632.8002 l 2
 178.7242 632.8002 157.5886 600.8924 157.5886 544.9512 c 0
 157.5886 521.5945 161.4864 497.2378 165.4864 472.5511 c 0
 169.2753 448.0922 173.0542 423.1944 173.0542 396.0755 c 0
 174.0542 333.2378 145.8431 301 102.0054 289.4489 c 1
 102.0054 287.4489 l 1
 145.8431 275.67 174.0542 241.7622 173.0542 178.9245 c 0
 173.0542 151.9245 169.2753 126.3567 165.4864 102.1189 c 0
 161.4864 77.2111 157.5886 53.0755 157.5886 29.0488 c 0
 157.5886 -28.5624 182.292 -59.8002 239.0054 -59.8002 c 2
 257.0054 -59.8002 l 1
 257.0054 -112 l 1
 237.4055 -112 l 2
 155.33 -112 92.8811 -76 92.8811 25.4489 c 0
 92.8811 52.2378 97 80.2378 101.4489 107.2378 c 0
 105.1189 134.6867 109.2378 161.3567 109.2378 188.4756 c 0
 109.2378 220.1623 99 263.849 27.8811 263.2812 c 1
EndSplineSet
EndChar

StartChar: bar
Encoding: 124 124 93
Width: 234
Flags: HW
LayerCount: 2
Fore
SplineSet
85.8811 750 m 1
 148.9186 750 l 1
 148.9186 -250 l 1
 85.8811 -250 l 1
 85.8811 750 l 1
EndSplineSet
EndChar

StartChar: braceright
Encoding: 125 125 94
Width: 280
Flags: HW
LayerCount: 2
Fore
SplineSet
253.3187 311.7188 m 1
 253.3187 263.2812 l 1
 182.0809 263.849 171.5131 220.1623 171.5131 188.4756 c 0
 171.5131 161.3567 175.962 134.6867 180.0809 107.2378 c 0
 184.1998 80.2378 188.1998 52.2378 188.1998 25.4489 c 0
 188.1998 -76 125.5298 -112 43.6754 -112 c 2
 24.0755 -112 l 1
 24.0755 -59.8002 l 1
 41.8544 -59.8002 l 2
 98.5678 -58.3513 123.1623 -28.5624 123.1623 29.0488 c 0
 123.1623 53.0755 119.4923 77.2111 115.5945 102.1189 c 0
 111.9245 126.3567 107.8056 151.9245 107.8056 178.9245 c 0
 107.4756 241.7622 135.2378 275.67 178.5244 287.4489 c 1
 178.5244 289.4489 l 1
 135.2378 301 107.4756 333.2378 107.8056 396.0755 c 0
 107.8056 423.1944 111.9245 448.0922 115.5945 472.5511 c 0
 119.4923 497.2378 123.1623 521.5945 123.1623 544.9512 c 0
 123.1623 600.8924 101.8056 631.8002 42.0755 632.8002 c 2
 24.0755 632.8002 l 1
 24.0755 685.33 l 1
 43.4543 685.33 l 2
 127.5298 685.33 188.1998 646.4489 188.1998 554.2378 c 0
 188.1998 526.4489 184.1998 499 180.0809 470.5511 c 0
 175.962 442.4322 171.5131 414.7622 171.5131 386.5244 c 0
 171.5131 350.7188 182.0809 311.5999 253.3187 311.7188 c 1
EndSplineSet
EndChar

StartChar: asciitilde
Encoding: 126 126 95
Width: 596
Flags: HW
LayerCount: 2
Fore
SplineSet
105.5298 212.0868 m 1
 49.0267 212.0868 l 1
 45.2378 308.9299 98.8811 359.811 166.5999 359.811 c 0
 207.7943 359.811 239.5565 346.5999 308.1677 314.5999 c 0
 359.1944 290.5999 397.6867 272.3621 435.519 272.3621 c 0
 472.8002 272.3621 490.368 302.2866 490.9191 356.5999 c 1
 547.1944 356.5999 l 1
 552.1944 248.2979 495.33 208.9946 433.8323 208.9946 c 0
 395.6546 208.9946 359.3246 220.9679 288.9245 253.0868 c 0
 240.9078 275.9679 203.6433 297.2057 166.0321 297.2057 c 0
 129.1998 297.2057 106.962 271.2812 105.5298 212.0868 c 1
EndSplineSet
EndChar

StartChar: exclamdown
Encoding: 161 161 96
Width: 226
Flags: HW
LayerCount: 2
Fore
SplineSet
158.9941 -198 m 1
 68.6112 -198 l 1
 81.6867 281.3246 l 1
 145.6975 281.3246 l 1
 158.9941 -198 l 1
113.9132 487.5244 m 0
 147.2753 487.5244 169.443 462.3567 169.443 427.5457 c 0
 169.443 394.9625 147.6053 368.6759 113.2432 368.6759 c 0
 80.33 368.6759 57.1623 394.9625 57.6112 427.5457 c 0
 57.6112 462.3567 80.5511 487.5244 113.9132 487.5244 c 0
EndSplineSet
EndChar

StartChar: cent
Encoding: 162 162 97
Width: 509
Flags: HW
LayerCount: 2
Fore
SplineSet
325.5619 -14.5678 m 1
 266.8377 -14.5678 l 1
 266.8377 87.4489 l 1
 202.3888 94.5511 158.5244 117.7622 122.5244 156.6433 c 0
 88.5244 194.4055 66.0755 252.4055 66.0755 325.8811 c 0
 66.0755 455.9245 145.8811 553.5678 266.8377 572.3133 c 1
 266.8377 673.4489 l 1
 325.5619 673.4489 l 1
 325.5619 574.5244 l 1
 371.8431 574.1944 412.7509 560.8377 436.292 549.1677 c 1
 416.5298 486.038 l 1
 395.8698 498.1569 361.8431 511.9625 310.6808 511.9625 c 0
 210.0429 511.9625 147.4317 429.4001 147.4317 329.3133 c 0
 147.4317 216.5565 216.8051 150.1297 306.443 150.1297 c 0
 362.2753 150.1297 397.962 164.1564 422.292 175.6053 c 1
 437.2753 116.5945 l 1
 417.962 105.2645 375.6053 89.5678 325.5619 86.7889 c 1
 325.5619 -14.5678 l 1
EndSplineSet
EndChar

StartChar: sterling
Encoding: 163 163 98
Width: 509
Flags: HW
LayerCount: 2
Fore
SplineSet
468.1731 0 m 1
 56.3567 0 l 1
 56.3567 47.0809 l 1
 125.0868 82.2432 170.4756 148.9566 170.4756 224.4322 c 0
 170.4756 249.4756 169.4756 269.9512 165.3567 297.6813 c 1
 62 297.6813 l 1
 62 356.7188 l 1
 156.7301 356.7188 l 1
 151.2812 387.4055 144.7134 427.5678 144.7134 466.9512 c 0
 144.7134 584.8056 224.5511 661 333.5565 661 c 0
 385.3187 661 420.632 649 441.5131 636 c 1
 422.6487 574.1081 l 1
 404.7676 584.4381 375.3187 595.0059 332.962 595.0059 c 0
 254.0375 595.0059 221.443 540.0814 221.443 467.0868 c 0
 221.443 422.5678 227.5619 389.5244 233.5619 356.7188 c 1
 378.0375 356.7188 l 1
 378.0375 297.6813 l 1
 241.2052 297.6813 l 1
 244.443 258.4001 246.6808 218.5511 237.5619 181.5999 c 0
 226.443 136.632 201.9674 99.7997 166.8051 69.8752 c 1
 166.8051 67.8752 l 1
 468.1731 67.8752 l 1
 468.1731 0 l 1
EndSplineSet
EndChar

StartChar: fraction
Encoding: 8260 8260 99
Width: 120
Flags: HW
LayerCount: 2
Fore
SplineSet
-102.7568 -11 m 1
 -156.5244 -11 l 1
 223.9679 661 l 1
 277.9566 661 l 1
 -102.7568 -11 l 1
EndSplineSet
EndChar

StartChar: yen
Encoding: 165 165 100
Width: 509
Flags: HW
LayerCount: 2
Fore
SplineSet
286.8752 0 m 1
 209.9245 0 l 1
 209.9245 178.6379 l 1
 55.0434 178.6379 l 1
 55.0434 225.9833 l 1
 209.9245 225.9833 l 1
 209.9245 297.5678 l 1
 55.0434 297.5678 l 1
 55.0434 344.9132 l 1
 186.0868 344.9132 l 1
 17.4001 650 l 1
 104.9674 650 l 1
 211.3454 439.6808 l 2
 228.4543 406.0375 239.6754 379.962 251.5565 351.3187 c 1
 254.6754 351.3187 l 1
 264.4376 377.962 277.8865 408.4864 294.8865 442.1297 c 2
 405.8323 650 l 1
 491.5185 650 l 1
 312.0429 344.9132 l 1
 442.7563 344.9132 l 1
 442.7563 297.5678 l 1
 286.8752 297.5678 l 1
 286.8752 225.9833 l 1
 442.7563 225.9833 l 1
 442.7563 178.6379 l 1
 286.8752 178.6379 l 1
 286.8752 0 l 1
EndSplineSet
EndChar

StartChar: florin
Encoding: 402 402 101
Width: 509
Flags: HW
LayerCount: 2
Fore
SplineSet
111.2111 340.5891 m 1
 111.2111 400.2866 l 1
 210.8056 400.2866 l 1
 216.9245 447.5678 l 2
 228.8323 549.6058 274.2057 661 405.3621 661 c 0
 434.6754 660 458.6487 654 472.4109 646.1189 c 1
 456.8865 586.3192 l 1
 441.3187 592.3192 424.6487 596.7681 403.7509 596.7681 c 0
 334.113 596.7681 304.0863 528.9679 295.9674 453.2111 c 2
 289.9674 400.2866 l 1
 411.6053 400.2866 l 1
 411.6053 340.5891 l 1
 282.3241 340.5891 l 1
 257.7563 133.8056 l 2
 242.0863 3.8811 201.0863 -83.5244 86.1998 -83.5244 c 0
 53.7943 -83.1944 26.5999 -76.1944 9.9299 -66.7455 c 1
 25.1243 -8.3947 l 1
 42.6921 -16.5136 60.481 -19.9625 81.7188 -19.9625 c 0
 145 -19.9625 168.8056 37.7188 180.6867 138.8865 c 2
 203.7134 340.5891 l 1
 111.2111 340.5891 l 1
EndSplineSet
EndChar

StartChar: section
Encoding: 167 167 102
Width: 514
Flags: HW
LayerCount: 2
Fore
SplineSet
127.4109 352.3734 m 0
 127.4109 315.3567 153.5131 284.5511 235.0488 255.4055 c 0
 286.4055 236.8377 324.9132 221.8377 348.811 206.5999 c 1
 373.8377 225.5244 387.4055 254.4489 387.4055 285.7134 c 0
 387.4055 325.2057 362.7188 357.6813 296.1998 381.038 c 0
 256.7676 395.9191 206.2432 412.3513 173.6754 432.1569 c 1
 140.8431 408.3246 127.4109 382.0701 127.4109 352.3734 c 0
413.6808 650.0922 m 1
 392.7997 595.9191 l 1
 367.4864 612.038 327.2753 628.1569 273.632 628.1569 c 0
 214.962 628.1569 168.2319 598.5624 168.2319 551.5945 c 0
 168.2319 498.1677 220.0809 478.2699 294.8698 453.481 c 0
 385.7997 423.5999 455.1885 386.1677 455.1885 297 c 0
 455.1885 245.1189 431.3241 207.6867 391.5619 176.4489 c 1
 407.9941 161.67 429.5352 129.1189 429.5352 88.3567 c 0
 429.5352 -14.6754 335.1243 -60.9299 241.6754 -60.9299 c 0
 180.6754 -60.9299 124.0755 -45.9132 87.5945 -19.1677 c 1
 111.2378 34.6754 l 1
 134.4322 17.6754 182.151 -5.4268 241.9299 -5.4268 c 0
 306.1944 -5.4268 355.3567 24.4055 355.3567 79.0434 c 0
 355.3567 126.9946 326.4756 152.9191 231.8377 185.8436 c 0
 129.5244 221.4114 60.4001 257.8436 60.4001 342.4435 c 0
 60.4001 379.6379 79.9245 423.8323 132.6867 459.5357 c 1
 112.3567 475.0868 96.4756 508.0701 95.9245 541.8323 c 0
 95.9245 629.33 176.5244 682.8811 276.9887 682.8811 c 0
 333.3187 682.8811 380.962 668.5244 413.6808 650.0922 c 1
EndSplineSet
EndChar

StartChar: currency
Encoding: 164 164 103
Width: 509
Flags: HW
LayerCount: 2
Fore
SplineSet
254.1243 532.481 m 0
 301.1243 532.481 342.2432 516.3621 369.6754 491.7943 c 1
 440.3187 565.7509 l 1
 482.773 522.5244 l 1
 405.3675 452.4489 l 1
 425.0542 425.33 440.1564 382.0755 440.1564 334.5511 c 0
 440.1564 280.4489 423.6053 236.7622 405.1564 211.7622 c 1
 479.113 138.6867 l 1
 436.7676 96.5624 l 1
 369.1243 172.0701 l 1
 338.6754 143.2812 292.1243 129.2812 252.1243 129.2812 c 0
 210.6754 129.2812 164.6754 144.4001 138.2432 168.9512 c 1
 71.9299 96.5624 l 1
 30.9245 138.6867 l 1
 101.7622 208.3133 l 1
 81.6433 234.7622 64.6433 280.1189 64.6433 328.3133 c 0
 64.6433 380.8544 82.1944 423.4322 103.5511 452.4489 c 1
 29.7134 522.1944 l 1
 72.1677 565.7509 l 1
 140.2432 491.2432 l 1
 168.1243 516.6921 210.2432 532.481 254.1243 532.481 c 0
252.6754 473.3246 m 0
 177.2486 473.3246 131.5619 408.8056 131.5619 329.7622 c 0
 131.5619 230.6754 200.0809 188.4376 251.6754 188.4376 c 0
 308.8377 188.4376 372.9078 228.2265 372.9078 333.5511 c 0
 372.9078 403.6867 332.1189 473.3246 252.6754 473.3246 c 0
EndSplineSet
EndChar

StartChar: quotesingle
Encoding: 39 39 104
Width: 186
Flags: HW
LayerCount: 2
Fore
SplineSet
52.0701 685 m 1
 134.632 685 l 1
 118.4376 447.9191 l 1
 68.0434 447.9191 l 1
 52.0701 685 l 1
EndSplineSet
EndChar

StartChar: quotedblleft
Encoding: 8220 8220 105
Width: 344
Flags: HW
LayerCount: 2
Fore
SplineSet
120.4697 454.2758 m 1
 35.3734 444.6058 l 1
 57.4489 526.8757 100.4489 635.9191 126.3621 679.1189 c 1
 178.3074 685 l 1
 157.6808 629.0113 131.2319 524.7568 120.4697 454.2758 c 1
264.3616 454.2758 m 1
 179.1564 444.6058 l 1
 201.0108 526.8757 244.2319 635.9191 269.924 679.1189 c 1
 322.1993 685 l 1
 301.2427 629.0113 274.7938 524.7568 264.3616 454.2758 c 1
EndSplineSet
EndChar

StartChar: guillemotleft
Encoding: 171 171 106
Width: 414
Flags: HW
LayerCount: 2
Fore
SplineSet
230.481 435.5244 m 1
 95.5298 252 l 1
 230.9299 68.4756 l 1
 163.0868 68.4756 l 1
 28.7889 252 l 1
 162.7568 435.5244 l 1
 230.481 435.5244 l 1
391.6808 435.5244 m 1
 256.6107 252 l 1
 391.6808 68.4756 l 1
 323.8377 68.4756 l 1
 190.3187 252 l 1
 323.8377 435.5244 l 1
 391.6808 435.5244 l 1
EndSplineSet
EndChar

StartChar: guilsinglleft
Encoding: 8249 8249 107
Width: 253
Flags: HW
LayerCount: 2
Fore
SplineSet
230.481 435.5244 m 1
 95.5298 252 l 1
 230.9299 68.4756 l 1
 163.0868 68.4756 l 1
 28.7889 252 l 1
 162.7568 435.5244 l 1
 230.481 435.5244 l 1
EndSplineSet
EndChar

StartChar: guilsinglright
Encoding: 8250 8250 108
Width: 253
Flags: HW
LayerCount: 2
Fore
SplineSet
158.0701 252 m 1
 23 435.5244 l 1
 90.292 435.5244 l 1
 225.0321 252 l 1
 90.5131 68.4756 l 1
 23.4489 68.4756 l 1
 158.0701 252 l 1
EndSplineSet
EndChar

StartChar: fi
Encoding: 64257 64257 109
Width: 516
Flags: HW
LayerCount: 2
Fore
SplineSet
163.1618 0 m 1
 82.2378 0 l 1
 82.2378 420.9625 l 1
 14.4489 420.9625 l 1
 14.4489 483.1944 l 1
 82.2378 483.1944 l 1
 82.2378 510.4489 l 2
 82.2378 637.1944 154.4376 721 289.3675 721 c 0
 333.5619 721 385.5185 706.8811 410.1618 688.8811 c 1
 385.8485 626.7681 l 1
 364.6374 641.1081 327.0863 655.0059 284.443 655.0059 c 0
 190.6107 655.0059 162.8318 587.5624 162.8318 507.67 c 2
 162.8318 483.1944 l 1
 443.0917 483.1944 l 1
 443.0917 0 l 1
 361.3888 0 l 1
 361.3888 420.9625 l 1
 163.1618 420.9625 l 1
 163.1618 0 l 1
EndSplineSet
EndChar

StartChar: fl
Encoding: 64258 64258 110
Width: 516
Flags: HW
LayerCount: 2
Fore
SplineSet
163.1618 0 m 1
 82.2378 0 l 1
 82.2378 420.9625 l 1
 14.4489 420.9625 l 1
 14.4489 483.1944 l 1
 82.2378 483.1944 l 1
 82.2378 504.1944 l 2
 82.2378 573.2545 105 632.6867 149.7622 672.8056 c 0
 186.7188 704 235.2265 721 302.292 721 c 0
 356.773 721 407.594 709.1189 443.0917 690.0434 c 1
 443.0917 0 l 1
 361.8377 0 l 1
 361.8377 644.0814 l 1
 346.151 651.7514 323.2432 657.3192 288.4376 657.3192 c 0
 193.9674 657.3192 162.8318 587.8757 162.8318 508.33 c 2
 162.8318 483.1944 l 1
 278.7242 483.1944 l 1
 278.7242 420.9625 l 1
 163.1618 420.9625 l 1
 163.1618 0 l 1
EndSplineSet
EndChar

StartChar: endash
Encoding: 8211 8211 111
Width: 500
Flags: HW
LayerCount: 2
Fore
SplineSet
30 282.0321 m 1
 470 282.0321 l 1
 470 225.9679 l 1
 30 225.9679 l 1
 30 282.0321 l 1
EndSplineSet
EndChar

StartChar: dagger
Encoding: 8224 8224 112
Width: 497
Flags: HW
LayerCount: 2
Fore
SplineSet
210.849 674 m 1
 287.4864 674 l 1
 279.8431 462.2866 l 1
 453.962 468.5999 l 1
 453.962 400.9191 l 1
 279.8431 408.2324 l 1
 287.4864 -50 l 1
 210.849 -50 l 1
 218.4923 408.2324 l 1
 44.3734 400.9191 l 1
 44.3734 468.5999 l 1
 218.4923 462.2866 l 1
 210.849 674 l 1
EndSplineSet
EndChar

StartChar: daggerdbl
Encoding: 8225 8225 113
Width: 497
Flags: HW
LayerCount: 2
Fore
SplineSet
211.0701 674 m 1
 287.1564 674 l 1
 281.1731 471.9299 l 1
 453.962 479.2432 l 1
 453.962 411.2324 l 1
 281.1731 418.6546 l 1
 281.1731 210.3354 l 1
 453.962 217.1998 l 1
 453.962 149.9679 l 1
 281.1731 156.2812 l 1
 287.1564 -50 l 1
 211.0701 -50 l 1
 216.6112 156.2812 l 1
 44.0434 149.9679 l 1
 44.0434 217.1998 l 1
 217.1623 210.3354 l 1
 217.1623 418.6546 l 1
 44.0434 411.2324 l 1
 44.0434 479.2432 l 1
 217.1623 471.9299 l 1
 211.0701 674 l 1
EndSplineSet
EndChar

StartChar: periodcentered
Encoding: 183 183 114
Width: 201
Flags: HW
LayerCount: 2
Fore
SplineSet
100.7676 203.4869 m 0
 67.4055 203.4869 44.0167 229.3246 44.2378 263.2378 c 0
 44.2378 298.0488 68.4055 323.4376 100.9887 323.4376 c 0
 134.7997 323.4376 157.2974 298.5999 157.5185 263.2378 c 0
 157.5185 229.3246 135.1297 203.4869 100.7676 203.4869 c 0
EndSplineSet
EndChar

StartChar: paragraph
Encoding: 182 182 115
Width: 508
Flags: HW
LayerCount: 2
Fore
SplineSet
291.9566 -49.5678 m 1
 232.8924 -49.5678 l 1
 232.8924 264 l 1
 225.4435 264 l 2
 144.2378 264 33.7889 327.7889 33.7889 456.5678 c 0
 33.7889 559.1189 89.9078 675.4322 307.3621 675.4322 c 0
 359.8865 675.4322 397.1564 672.8811 422.2486 667.4489 c 1
 422.2486 -49.5678 l 1
 362.9566 -49.5678 l 1
 362.9566 618.368 l 1
 291.9566 618.368 l 1
 291.9566 -49.5678 l 1
EndSplineSet
EndChar

StartChar: bullet
Encoding: 8226 8226 116
Width: 276
Flags: HW
LayerCount: 2
Fore
SplineSet
138.3187 159.2324 m 0
 82.0488 159.2324 36.2111 203.519 36.2111 261.4489 c 0
 34.8811 318.5999 82.0488 363.8865 138.3187 363.8865 c 0
 195.3675 363.8865 241.2052 318.5999 241.2052 261.67 c 0
 241.2052 204.849 195.9186 159.2324 138.3187 159.2324 c 0
EndSplineSet
EndChar

StartChar: quotesinglbase
Encoding: 8218 8218 117
Width: 201
Flags: HW
LayerCount: 2
Fore
SplineSet
73.4109 -112.849 m 1
 20.9078 -118.9512 l 1
 41.6433 -62.9625 68.3133 41.5131 78.5244 111.443 c 1
 164.3996 121.443 l 1
 142.3241 39.1731 98.9941 -69.6492 73.4109 -112.849 c 1
EndSplineSet
EndChar

StartChar: quotedblbase
Encoding: 8222 8222 118
Width: 345
Flags: HW
LayerCount: 2
Fore
SplineSet
73.0809 -112.849 m 1
 20.3567 -118.9512 l 1
 41.3133 -62.9625 67.7622 41.5131 78.1944 111.443 c 1
 163.8485 121.443 l 1
 141.9941 39.1731 98.773 -69.6492 73.0809 -112.849 c 1
216.6428 -112.849 m 1
 164.2486 -118.9512 l 1
 184.8752 -62.9625 211.3241 41.5131 222.0863 111.443 c 1
 307.9615 121.443 l 1
 285.556 39.1731 242.556 -69.6492 216.6428 -112.849 c 1
EndSplineSet
EndChar

StartChar: quotedblright
Encoding: 8221 8221 119
Width: 344
Flags: HW
LayerCount: 2
Fore
SplineSet
92.8811 676 m 1
 178.0863 685 l 1
 155.6808 602.7301 112.6808 493.9078 87.3187 450.708 c 1
 35.0434 444.6058 l 1
 55.4489 500.5945 82.1189 605.519 92.8811 676 c 1
236.443 676 m 1
 321.6482 685 l 1
 299.5727 602.7301 256.2427 493.9078 230.8806 450.708 c 1
 178.6053 444.6058 l 1
 199.2319 500.5945 226.0108 605.519 236.443 676 c 1
EndSplineSet
EndChar

StartChar: guillemotright
Encoding: 187 187 120
Width: 414
Flags: HW
LayerCount: 2
Fore
SplineSet
158.4001 252 m 1
 23 435.5244 l 1
 90.5131 435.5244 l 1
 225.0321 252 l 1
 90.5131 68.4756 l 1
 23.67 68.4756 l 1
 158.4001 252 l 1
319.0488 252 m 1
 183.6487 435.5244 l 1
 250.7129 435.5244 l 1
 385.6808 252 l 1
 251.1618 68.4756 l 1
 184.3187 68.4756 l 1
 319.0488 252 l 1
EndSplineSet
EndChar

StartChar: ellipsis
Encoding: 8230 8230 121
Width: 1000
Flags: HW
LayerCount: 2
Fore
SplineSet
166.67 -11 m 0
 133.6379 -11 109.9191 15.6166 110.9191 49.1998 c 0
 110.9191 84.2319 134.0868 109.3996 167.4489 109.3996 c 0
 201.0321 109.3996 223.1998 84.5619 223.5298 49.1998 c 0
 223.5298 15.6166 201.0321 -11 166.67 -11 c 0
500 -11 m 0
 466.6379 -11 443.2491 15.6166 443.9191 49.1998 c 0
 443.9191 84.2319 467.6379 109.3996 500.67 109.3996 c 0
 534.0321 109.3996 556.5298 84.5619 556.7509 49.1998 c 0
 556.7509 15.6166 534.3621 -11 500 -11 c 0
833.33 -11 m 0
 799.9679 -11 776.4702 15.6166 777.2491 49.1998 c 0
 777.2491 84.2319 800.6379 109.3996 834 109.3996 c 0
 867.3621 109.3996 889.7509 84.5619 890.0809 49.1998 c 0
 890.0809 15.6166 867.9132 -11 833.33 -11 c 0
EndSplineSet
EndChar

StartChar: perthousand
Encoding: 8240 8240 122
Width: 1143
Flags: HW
LayerCount: 2
Fore
SplineSet
604.4751 392 m 0
 693.5994 392 752.3616 323.2812 752.3616 198 c 0
 752.3616 60.8811 682.0917 -6.8811 599.4751 -6.8811 c 0
 519.9941 -6.8811 451.0375 57.5244 449.9186 188.4489 c 0
 449.9186 320.519 520.9186 392 604.4751 392 c 0
601.8051 341.9191 m 0
 545.7617 341.9191 515.1672 275.6379 515.1672 192.1189 c 0
 513.2694 108.0488 545.6428 42.8698 601.3562 42.8698 c 0
 661.2052 42.8698 687.5619 106.9566 687.5619 193.7889 c 0
 687.5619 274.849 664.2052 341.9191 601.8051 341.9191 c 0
964.9615 392 m 0
 1054.0858 392 1113.848 323.2812 1113.848 198 c 0
 1113.848 60.8811 1042.7992 -6.8811 959.9615 -6.8811 c 0
 880.9294 -6.8811 811.5239 57.5244 810.8539 188.4489 c 0
 810.8539 320.519 881.405 392 964.9615 392 c 0
962.5126 341.9191 m 0
 906.9181 341.9191 875.8747 275.6379 875.8747 192.1189 c 0
 874.2047 108.0488 906.1292 42.8698 962.2915 42.8698 c 0
 1021.9127 42.8698 1048.0483 106.9566 1048.0483 193.7889 c 0
 1048.0483 274.849 1024.9127 341.9191 962.5126 341.9191 c 0
185.1243 661 m 0
 274.2486 661 333.2319 592.6112 333.2319 467.33 c 0
 333.2319 329.4322 262.632 262 180.1243 262 c 0
 100.3133 262 31.6867 326.4055 30.2378 457.67 c 0
 30.2378 589.4001 101.2378 661 185.1243 661 c 0
182.4543 611.2491 m 0
 126.4109 611.2491 96.0375 544.519 96.0375 461.4489 c 0
 93.9186 377.0488 126.292 311.7509 182.0054 311.7509 c 0
 241.5244 311.7509 268.2111 376.2866 268.2111 463.1189 c 0
 268.2111 543.849 244.8544 611.2491 182.4543 611.2491 c 0
226.6107 -11 m 1
 173.1731 -11 l 1
 555.3187 661 l 1
 608.7563 661 l 1
 226.6107 -11 l 1
EndSplineSet
EndChar

StartChar: questiondown
Encoding: 191 191 123
Width: 401
Flags: HW
LayerCount: 2
Fore
SplineSet
236.2866 488.6433 m 0
 269.8698 488.6433 292.3675 463.8056 292.3675 428.9946 c 0
 292.3675 395.6325 270.1998 369.1248 235.8377 369.1248 c 0
 202.2545 369.1248 179.3079 395.6325 179.7568 428.9946 c 0
 179.7568 463.8056 202.9245 488.6433 236.2866 488.6433 c 0
198.6379 287.1135 m 1
 271.7242 287.1135 l 1
 274.3942 261.4435 l 2
 280.632 206.8757 261.5131 149.2812 211.6053 88.4756 c 0
 165.3241 33.4055 140.9941 -4.519 140.9941 -50.2324 c 0
 140.9941 -103.2003 173.3675 -137.9137 238.3187 -138.2437 c 0
 273.8865 -138.2437 313.4376 -126.7948 339.8865 -107.1248 c 1
 362.3942 -166.0267 l 1
 328.962 -189.9245 272.5298 -206.3567 221.1677 -206.3567 c 0
 108.3567 -206.3567 56.7301 -135.4756 56.7301 -59.9512 c 0
 56.7301 6.6754 93.6867 54.6754 142.9512 112.4055 c 0
 187.6546 166.2378 203.3246 209.1623 199.7568 260.519 c 2
 198.6379 287.1135 l 1
EndSplineSet
EndChar

StartChar: grave
Encoding: 96 96 124
Width: 300
Flags: HW
LayerCount: 2
Fore
SplineSet
23.6379 692.4055 m 1
 116.4376 692.4055 l 1
 204.3354 550 l 1
 145.6379 550 l 1
 23.6379 692.4055 l 1
EndSplineSet
EndChar

StartChar: acute
Encoding: 180 180 125
Width: 300
Flags: HW
LayerCount: 2
Fore
SplineSet
191.6813 692.4055 m 1
 284.481 692.4055 l 1
 162.151 550 l 1
 103.5624 550 l 1
 191.6813 692.4055 l 1
EndSplineSet
EndChar

StartChar: circumflex
Encoding: 710 710 126
Width: 300
Flags: HW
LayerCount: 2
Fore
SplineSet
120.7568 692.4055 m 1
 177.6754 692.4055 l 1
 273.1076 550 l 1
 208.8056 550 l 1
 150.33 645.9245 l 1
 148.33 645.9245 l 1
 89.4055 550 l 1
 27.1135 550 l 1
 120.7568 692.4055 l 1
EndSplineSet
EndChar

StartChar: tilde
Encoding: 732 732 127
Width: 300
Flags: HW
LayerCount: 2
Fore
SplineSet
74.6433 568.0434 m 1
 28.7568 568.0434 l 1
 27.2057 631.2866 53.7301 669.3621 95.8056 669.3621 c 0
 117.1189 669.3621 133.8811 660.0321 157.5678 647.2432 c 0
 173.5678 638.6921 187.1189 630.811 199.5678 630.811 c 0
 215.1189 630.811 224.9078 639.811 227.2378 672.9132 c 1
 271.9132 672.9132 l 1
 273.1243 608.8056 251.1677 574.5945 204.9733 574.5945 c 0
 184 574.5945 165.1189 583.9245 144.5678 594.9245 c 0
 124 606.5945 113.2111 613.0434 101.2111 613.0434 c 0
 85.0922 613.0434 76.7622 595.4756 74.6433 568.0434 c 1
EndSplineSet
EndChar

StartChar: macron
Encoding: 175 175 128
Width: 300
Flags: HW
LayerCount: 2
Fore
SplineSet
39.2812 640.6754 m 1
 261.7188 640.6754 l 1
 261.7188 586.6867 l 1
 39.2812 586.6867 l 1
 39.2812 640.6754 l 1
EndSplineSet
EndChar

StartChar: breve
Encoding: 728 728 129
Width: 300
Flags: HW
LayerCount: 2
Fore
SplineSet
27.4001 681.2866 m 1
 77.1677 681.2866 l 1
 82.8377 642.0488 109.0922 611.3621 149.67 611.3621 c 0
 197.9245 611.3621 220.1623 647.8377 222.8323 681.2866 c 1
 272.5999 681.2866 l 1
 272.5999 607.5511 224.0488 558.5945 150 558.5945 c 0
 62.3567 558.5945 27.4001 620.9245 27.4001 681.2866 c 1
EndSplineSet
EndChar

StartChar: dotaccent
Encoding: 729 729 130
Width: 300
Flags: HW
LayerCount: 2
Fore
SplineSet
141.6379 571.2812 m 0
 112.8002 571.2812 92.8436 594.3567 92.8436 620.9733 c 0
 92.8436 647.9132 114.2491 670.8865 141.6379 670.8865 c 0
 168.4756 670.8865 189.33 648.3621 189.33 620.9733 c 0
 189.33 594.3567 169.9245 571.2812 141.6379 571.2812 c 0
EndSplineSet
EndChar

StartChar: dieresis
Encoding: 168 168 131
Width: 300
Flags: HW
LayerCount: 2
Fore
SplineSet
58.8323 571.2812 m 0
 29.9946 571.2812 10.4869 594.3567 10.4869 620.1944 c 0
 10.4869 647.3621 31.6646 669.4376 59.6112 669.4376 c 0
 86.1189 669.4376 106.0755 647.9132 106.0755 620.1944 c 0
 106.0755 594.3567 87.1189 571.2812 58.8323 571.2812 c 0
241.7188 571.2812 m 0
 212.8811 571.2812 193.9245 594.3567 193.9245 620.1944 c 0
 193.9245 647.3621 214.5511 669.4376 242.1677 669.4376 c 0
 269.3354 669.4376 288.962 647.9132 288.962 620.1944 c 0
 288.962 594.3567 270.0054 571.2812 241.7188 571.2812 c 0
EndSplineSet
EndChar

StartChar: ring
Encoding: 730 730 132
Width: 300
Flags: HW
LayerCount: 2
Fore
SplineSet
142.4489 536.8811 m 0
 83.6112 536.8811 42.4001 576.7622 42.4001 627.5244 c 0
 42.4001 679.8377 81.2812 721.7188 143.4489 721.7188 c 0
 201.7188 721.7188 240.7188 680.8377 240.7188 628.0755 c 0
 240.7188 576.0922 197.7188 536.8811 142.4489 536.8811 c 0
141.4489 573.0488 m 0
 173.1189 573.0488 193.8056 598.8377 193.8056 629.0755 c 0
 193.8056 659.8811 173.1189 685 140.67 685 c 0
 109.8811 685 91.3133 658.4322 91.3133 627.5244 c 0
 91.3133 600.8377 111.5511 573.0488 141.4489 573.0488 c 0
EndSplineSet
EndChar

StartChar: cedilla
Encoding: 184 184 133
Width: 300
Flags: HW
LayerCount: 2
Fore
SplineSet
137.4001 1.8811 m 1
 188.7188 1.8811 l 1
 155.3621 -50.8056 l 1
 192.2432 -55.4756 225.1243 -81.3567 225.1243 -119.5678 c 0
 225.1243 -177.7622 177.1677 -199.7622 122.3133 -199.7622 c 0
 98.6867 -199.7622 72.0267 -192.7622 55.5945 -182.5511 c 1
 70.2378 -141.2812 l 1
 86.1189 -150.8323 106 -155.7134 124.2378 -155.7134 c 0
 146.4756 -155.7134 168.1623 -147.2645 167.7134 -123.3567 c 0
 167.0434 -96.4322 136.1189 -85 89.7134 -81 c 1
 137.4001 1.8811 l 1
EndSplineSet
EndChar

StartChar: hungarumlaut
Encoding: 733 733 134
Width: 300
Flags: HW
LayerCount: 2
Fore
SplineSet
128.8382 692.0755 m 1
 211.6813 692.0755 l 1
 100.0701 556.6867 l 1
 47.9892 556.6867 l 1
 128.8382 692.0755 l 1
270.038 692.0755 m 1
 353.33 692.0755 l 1
 241.7188 556.6867 l 1
 189.9679 556.6867 l 1
 270.038 692.0755 l 1
EndSplineSet
EndChar

StartChar: ogonek
Encoding: 731 731 135
Width: 300
Flags: HW
LayerCount: 2
Fore
SplineSet
127.0814 4.1189 m 1
 181.519 4.1189 l 1
 166.1623 -15 125.8377 -59.849 125.8377 -98.8924 c 0
 125.8377 -130.2324 146.5077 -148.3246 176.0488 -148.3246 c 0
 193.5999 -148.3246 209.5999 -144.3246 222.1677 -138.8757 c 1
 234.7943 -181.6433 l 1
 215.2699 -196.8377 181.1944 -204.0488 157.1189 -204.0488 c 0
 102.4001 -204.0488 65.2057 -174.4055 65.2057 -119.4756 c 0
 65.2057 -70.2378 101.4702 -22.8056 127.0814 4.1189 c 1
EndSplineSet
EndChar

StartChar: caron
Encoding: 711 711 136
Width: 300
Flags: HW
LayerCount: 2
Fore
SplineSet
180.9132 550 m 1
 121.2057 550 l 1
 25.8924 692.4055 l 1
 90.0755 692.4055 l 1
 150.1189 596.481 l 1
 152.1189 596.481 l 1
 212.0434 692.4055 l 1
 274.5565 692.4055 l 1
 180.9132 550 l 1
EndSplineSet
EndChar

StartChar: emdash
Encoding: 8212 8212 137
Width: 1000
Flags: HW
LayerCount: 2
Fore
SplineSet
30 282.0321 m 1
 970 282.0321 l 1
 970 225.9679 l 1
 30 225.9679 l 1
 30 282.0321 l 1
EndSplineSet
EndChar

StartChar: AE
Encoding: 198 198 138
Width: 779
Flags: HW
LayerCount: 2
Fore
SplineSet
82.5673 0 m 1
 -1.2378 0 l 1
 308.6379 674 l 1
 721.8806 674 l 1
 721.8806 606.5737 l 1
 434.6161 606.5737 l 1
 460.7617 384.6921 l 1
 711.5239 384.6921 l 1
 711.5239 317.368 l 1
 470.8372 317.368 l 1
 501.4317 67.4263 l 1
 747.8372 67.4263 l 1
 747.8372 0 l 1
 432.2432 0 l 1
 401.4376 242.9137 l 1
 193.7242 242.9137 l 1
 82.5673 0 l 1
221.2052 308.5678 m 1
 392.811 308.5678 l 1
 369.7943 505.038 l 2
 366.2432 537.1569 360.1243 581.5303 357.7943 615.6492 c 1
 354.1243 615.6492 l 1
 341.6754 583.3192 325.4376 545.2003 310.1998 509.1736 c 2
 221.2052 308.5678 l 1
EndSplineSet
EndChar

StartChar: ordfeminine
Encoding: 170 170 139
Width: 342
Flags: HW
LayerCount: 2
Fore
SplineSet
301.2753 266 m 1
 244.4322 266 l 1
 239.33 308.5945 l 1
 237.33 308.5945 l 1
 218.2378 285.3734 183.1189 261 136.2111 261 c 0
 69.7622 261 33.4489 304 33.4489 356.2111 c 0
 33.4489 427.0755 105.1944 472.8811 234.2378 469.6433 c 1
 234.2378 479.8811 l 2
 234.2378 495.9078 224.4489 543.8757 158.9566 543.8757 c 0
 127.3133 543.8757 97.33 535.4435 73.7622 517.2057 c 1
 58.1189 558.33 l 1
 87.3567 579.3567 129.4489 591 170.481 591 c 0
 269.8865 591 295.7242 522.8811 295.7242 450.5511 c 2
 295.7242 344 l 2
 295.7242 316.7889 297.2753 289.9078 301.2753 266 c 1
235.1189 370.9566 m 2
 235.1189 427.7134 l 1
 171.0755 429.6112 95.7242 418.4001 95.7242 359.5244 c 0
 95.7242 325.811 123.6487 306.7943 154.6754 306.7943 c 0
 186.1677 306.7943 211.4055 324.481 224.3133 344.0488 c 0
 231.33 353.8377 235.1189 364.4055 235.1189 370.9566 c 2
EndSplineSet
EndChar

StartChar: Lslash
Encoding: 321 321 140
Width: 472
Flags: HW
LayerCount: 2
Fore
SplineSet
451.6053 0 m 1
 80.4756 0 l 1
 80.4756 273.1569 l 1
 -4.1189 210.4435 l 1
 -4.1189 274.2699 l 1
 80.4756 336.7622 l 1
 80.4756 674 l 1
 161.8485 674 l 1
 161.8485 392.6808 l 1
 296.3241 490.5131 l 1
 296.3241 425.6867 l 1
 161.8485 328.0755 l 1
 161.8485 68.0863 l 1
 451.6053 68.0863 l 1
 451.6053 0 l 1
EndSplineSet
EndChar

StartChar: Oslash
Encoding: 216 216 141
Width: 685
Flags: HW
LayerCount: 2
Fore
SplineSet
108.3675 -40.5565 m 1
 62.4055 -3.7889 l 1
 125.2111 84 l 1
 69.1189 144.33 36.8978 232.3133 36.8978 333.2111 c 0
 36.8978 547.2812 171.4756 685 346.1677 685 c 0
 408.1944 685 467.1189 666.9733 515.8056 630.3621 c 1
 575.4923 711.3621 l 1
 625.0054 677.6867 l 1
 562.6487 591.5678 l 1
 617.962 530.6867 649.0809 442.8056 649.0809 343.1189 c 0
 649.0809 106.7188 503.1564 -11 344.2699 -11 c 0
 279.5565 -11 219.8431 8.4756 171.4864 45.2057 c 1
 108.3675 -40.5565 l 1
172.9353 152.9674 m 1
 475.4869 570.6813 l 1
 440.3246 600.9625 396.8056 619.557 344.2699 619.557 c 0
 194.2052 619.557 119.4918 479.5945 119.4918 337.67 c 0
 119.4918 260.6487 139.8752 204.6808 171.1564 151.9674 c 1
 172.9353 152.9674 l 1
513.9245 520.8382 m 1
 211.8051 104.5565 l 1
 246.5352 72.4864 286.0375 54.443 342.5999 54.443 c 0
 486.7568 54.443 566.4869 187.0488 566.4869 340.1189 c 0
 566.4869 399.2057 553.6813 461.7514 516.5945 520.8382 c 1
 513.9245 520.8382 l 1
EndSplineSet
EndChar

StartChar: OE
Encoding: 338 338 142
Width: 889
Flags: HW
LayerCount: 2
Fore
SplineSet
853.0375 67.4263 m 1
 853.0375 0 l 1
 512.0922 0 l 2
 491.9733 0 469.4055 -3 445.4055 -6 c 0
 420.2866 -8 393.8377 -11 361.9566 -11 c 0
 155.1623 -11 36.8978 138.2866 36.8978 332.4489 c 0
 36.8978 554.4756 174.1189 685 367.5244 685 c 0
 402.4055 685 430.2866 682.4489 454.9566 680 c 0
 479.9566 677 500.9566 674.4489 519.4055 674 c 2
 837.5886 674 l 1
 837.5886 606.5737 l 1
 559.6374 606.5737 l 1
 559.6374 385.7943 l 1
 821.9186 385.7943 l 1
 821.9186 318.2491 l 1
 559.6374 318.2491 l 1
 559.6374 67.4263 l 1
 853.0375 67.4263 l 1
478.0434 68.8919 m 1
 478.0434 604.0059 l 1
 451.5678 612.557 418.4322 618.6759 369.3621 618.6759 c 0
 214.0429 618.6759 121.8051 502.519 122.3562 336 c 0
 121.8051 168.632 216.113 55.3241 377.2432 55.3241 c 0
 415.5244 55.3241 454.9078 60.443 478.0434 68.8919 c 1
EndSplineSet
EndChar

StartChar: ordmasculine
Encoding: 186 186 143
Width: 351
Flags: HW
LayerCount: 2
Fore
SplineSet
177.151 591 m 0
 273.7943 591 334.8865 522 334.8865 428.33 c 0
 333.8865 312.4322 251.5565 261 175.5999 261 c 0
 86.9566 261 17.6433 325 17.6433 423 c 0
 17.6433 527.2378 93.33 591 177.151 591 c 0
175.5999 543.4435 m 0
 110.292 543.4435 80.6808 479.9512 80.6808 425 c 0
 80.6808 357.0321 125.4376 308.5565 176.151 308.5565 c 0
 231 308.5565 271.519 355.481 271.519 426 c 0
 271.519 476.9245 243.7134 543.4435 175.5999 543.4435 c 0
EndSplineSet
EndChar

StartChar: ae
Encoding: 230 230 144
Width: 769
Flags: HW
LayerCount: 2
Fore
SplineSet
730.7242 235.4702 m 1
 404.5452 235.4702 l 1
 401.1885 116.0054 468.9186 53.1297 561.6487 53.1297 c 0
 628.6754 53.1297 667.1243 68.4864 692.5131 80.7997 c 1
 708.1564 22.4322 l 1
 671.4543 2.6867 615.2699 -11 551.811 -11 c 0
 468.9132 -11 395.2432 28.1456 368.0488 98.2057 c 1
 365.7188 98.2057 l 1
 335.9733 29.3567 268.7188 -11 185.8377 -11 c 0
 85.6433 -11 36.4756 56.8811 36.4756 125.151 c 0
 36.4756 236.6754 139.1944 302.3621 328.2645 300.2432 c 1
 328.2645 320.5999 l 2
 328.2645 345.3133 314.1623 433.1569 213.9566 433.1569 c 0
 168.6433 433.1569 119.3133 416.7247 90.3133 396.6058 c 1
 70.3567 450.7622 l 1
 114.2812 478.6867 173.5945 494.1944 219.481 494.1944 c 0
 307.0755 494.1944 356.1677 452.811 375.1243 389.6487 c 1
 377.1243 389.6487 l 1
 409.3187 454.151 469.1076 494.1944 546.2432 494.1944 c 0
 694.481 494.1944 733.2753 349.5565 733.2753 273.4001 c 0
 733.2753 258.7568 732.3942 244.6813 730.7242 235.4702 c 1
329.4756 171.1944 m 2
 329.4756 243.9512 l 1
 236.0922 246.4001 117.1885 230.7568 117.1885 132.2432 c 0
 117.1885 79.962 156.2319 50.3675 203.5131 50.3675 c 0
 269.4055 49.9186 310.6867 90.3187 324.8056 136.2866 c 0
 328.4756 147.0755 329.4756 159.1944 329.4756 171.1944 c 2
404.773 294.9566 m 1
 654.5357 294.9566 l 1
 656.8757 345.1456 628.5945 435.368 537.8377 435.368 c 0
 448.3942 435.368 407.5619 352.0434 404.773 294.9566 c 1
EndSplineSet
EndChar

StartChar: dotlessi
Encoding: 305 305 145
Width: 229
Flags: HW
LayerCount: 2
Fore
SplineSet
155.7563 0 m 1
 74.2812 0 l 1
 74.2812 483.1944 l 1
 155.7563 483.1944 l 1
 155.7563 0 l 1
EndSplineSet
EndChar

StartChar: lslash
Encoding: 322 322 146
Width: 237
Flags: HW
LayerCount: 2
Fore
SplineSet
159.6374 0 m 1
 78.0434 0 l 1
 78.0434 294.0493 l 1
 9.4756 234.7948 l 1
 9.4756 300.2812 l 1
 78.0434 359.7568 l 1
 78.0434 710 l 1
 159.6374 710 l 1
 159.6374 423.2165 l 1
 230.6374 484.1243 l 1
 230.6374 417.9679 l 1
 159.6374 356.7301 l 1
 159.6374 0 l 1
EndSplineSet
EndChar

StartChar: oslash
Encoding: 248 248 147
Width: 545
Flags: HW
LayerCount: 2
Fore
SplineSet
274.7188 494.1944 m 0
 318.7188 494.1944 361.9566 482.4055 398.4055 459.0488 c 1
 439.7188 518.4543 l 1
 477.7676 492.1677 l 1
 435.5565 430.0755 l 1
 482.1998 385.0755 507.962 320.5244 507.962 245.5511 c 0
 507.962 67.7622 385.6487 -11 273.5999 -11 c 0
 228.0321 -11 184.5732 0.2378 149.1243 23.5945 c 1
 106.0321 -36.3621 l 1
 70.4322 -6.6266 l 1
 112.6433 52.5678 l 1
 66.1189 96.2378 38.3567 160.1189 38.3567 238.6433 c 0
 38.3567 400.1189 144.4756 494.1944 274.7188 494.1944 c 0
157.1564 115.0108 m 1
 360.6379 402.2324 l 1
 338.0434 421.4869 308.5511 432.3947 272.7188 432.3947 c 0
 162.2486 432.3947 117.9674 330.0701 117.9674 240.7622 c 0
 117.9674 196.9132 128.9941 152.292 155.1564 115.2319 c 1
 157.1564 115.0108 l 1
389.7134 365.5303 m 1
 187.0108 79.962 l 1
 211.0542 59.4864 239.3187 50.9186 270.481 50.9186 c 0
 364.4756 50.9186 428.1302 132.1243 428.1302 243 c 0
 428.1302 276.7134 419.4435 325.3513 392.0434 365.0814 c 1
 389.7134 365.5303 l 1
EndSplineSet
EndChar

StartChar: oe
Encoding: 339 339 148
Width: 861
Flags: HW
LayerCount: 2
Fore
SplineSet
822.8377 229.8002 m 1
 492.5298 229.8002 l 1
 492.5131 115.1243 561.5565 53.3508 655.7622 53.3508 c 0
 715.8811 53.3508 752.8811 66.9186 784.9566 80.7997 c 1
 801.0488 21.7622 l 1
 762.67 0.6867 699.7301 -11 645.4756 -11 c 0
 560.6433 -11 490.9566 25.2812 453.3133 106.1302 c 1
 450.7622 106.1302 l 1
 415.5678 25.5945 338.1944 -11 263.0755 -11 c 0
 135.3133 -11 38.3567 86.1189 38.3567 238.6433 c 0
 38.3567 396.33 140.2378 494.1944 268.3888 494.1944 c 0
 352 494.1944 422.7889 451.3621 452.5511 375.8431 c 1
 454.5511 375.8431 l 1
 490.7622 454.5999 556.33 494.1944 632.1356 494.1944 c 0
 787.1356 494.1944 825.7188 351.6754 825.7188 269.6112 c 0
 825.7188 252.6379 824.8377 238.2324 822.8377 229.8002 c 1
269.3621 432.3947 m 0
 160.113 432.3947 121.4918 325.1623 121.4918 240.7622 c 0
 121.4918 133.4376 184.0542 50.9186 269.0321 50.9186 c 0
 356.8056 50.9186 415.8002 128.4376 415.8002 241.7622 c 0
 415.8002 334.8323 372.0701 432.3947 269.3621 432.3947 c 0
492.1998 288.8377 m 1
 746.2003 288.8377 l 1
 747.6492 344.9245 723.4869 434.8169 625.1623 434.8169 c 0
 535.5999 434.8169 497.8865 351.7134 492.1998 288.8377 c 1
EndSplineSet
EndChar

StartChar: germandbls
Encoding: 223 223 149
Width: 542
Flags: HW
LayerCount: 2
Fore
SplineSet
155.7563 0 m 1
 74.2812 0 l 1
 74.2812 453.8757 l 2
 74.2812 567.8757 101.1623 631.189 145.2545 671.2812 c 0
 181.67 704.8056 228.8377 721 288.3187 721 c 0
 380.7563 721 462.594 662.2812 462.594 553.519 c 0
 462.594 518.6112 450.8051 487.7301 440.0429 471.519 c 1
 394.6862 452.519 367.0917 424.7301 367.0917 389.6867 c 0
 367.0917 353.7455 387.6862 332.9566 419.6107 300.9299 c 0
 459.6374 260.2432 500.7296 218.811 500.7296 147.1677 c 0
 500.7296 53.6433 433.0863 -11 323.7242 -11 c 0
 286.2753 -11 246.8431 -4.1022 217.7242 10.3567 c 1
 233.1564 73.0375 l 1
 260.0809 60.1297 288.3187 53.0108 319.0054 53.0108 c 0
 385.2111 53.0108 419.9245 92.0809 419.9245 140.0488 c 0
 419.9245 183.2378 400.67 211.9512 363.8377 246.2057 c 0
 321.2432 286.2324 286.6166 323.6546 286.6166 378.2812 c 0
 286.6166 429.7301 318.0755 472.7134 376.2111 501.1623 c 1
 381.2111 512.8323 384.4322 527.849 384.4322 545.0868 c 0
 384.4322 616.0814 341.5999 656.4381 278.3187 656.4381 c 0
 199.443 656.4381 155.7563 601.038 155.7563 456.8323 c 2
 155.7563 0 l 1
EndSplineSet
EndChar

StartChar: onesuperior
Encoding: 185 185 150
Width: 238
Flags: HW
LayerCount: 2
Fore
SplineSet
171.3996 443 m 1
 106.2866 443 l 1
 106.2866 774.4869 l 1
 104.2866 774.4869 l 1
 32.7622 740.1569 l 1
 22.1189 789.2378 l 1
 114.0321 833 l 1
 171.3996 833 l 1
 171.3996 443 l 1
EndSplineSet
EndChar

StartChar: logicalnot
Encoding: 172 172 151
Width: 596
Flags: HW
LayerCount: 2
Fore
SplineSet
40 397.0054 m 1
 556 397.0054 l 1
 556 122.4001 l 1
 495.4869 122.4001 l 1
 495.4869 340.0434 l 1
 40 340.0434 l 1
 40 397.0054 l 1
EndSplineSet
EndChar

StartChar: mu
Encoding: 181 181 152
Width: 549
Flags: HW
LayerCount: 2
Fore
SplineSet
403.8323 75.9245 m 1
 400.8323 75.9245 l 1
 380.1456 37.8056 332.7889 -9.1189 260.5244 -9.1189 c 0
 214.5565 -9.1189 172.1564 7.2378 150.7997 46.3246 c 1
 150.7997 -15.3133 l 2
 150.7997 -68.7622 152.1297 -157.4322 161.4697 -198 c 1
 88.2812 -198 l 1
 77.8323 -167.1944 74.2812 -97.2378 74.2812 -19.8811 c 2
 74.2812 483.1944 l 1
 155.2052 483.1944 l 1
 155.2052 196.3621 l 2
 155.2052 120.3187 187.2319 56.773 267.811 56.773 c 0
 327.4489 56.773 370.2812 99.2753 386.7568 140.0054 c 0
 391.7568 152.9132 395.3246 169.5999 395.3246 186.2866 c 2
 395.3246 483.1944 l 1
 476.2486 483.1944 l 1
 476.2486 130.7676 l 2
 476.2486 76.2753 486.6808 54.6808 522.6053 52.2319 c 1
 516.0542 -7.3567 l 1
 505.3942 -10.1189 501.1243 -11 487.7188 -11 c 0
 446.5678 -11 410.9078 12.7622 403.8323 75.9245 c 1
EndSplineSet
EndChar

StartChar: trademark
Encoding: 8482 8482 153
Width: 615
Flags: HW
LayerCount: 2
Fore
SplineSet
30.6867 674 m 1
 257.0755 674 l 1
 257.0755 631.3246 l 1
 169.481 631.3246 l 1
 169.481 401.67 l 1
 118.2812 401.67 l 1
 118.2812 631.3246 l 1
 30.6867 631.3246 l 1
 30.6867 674 l 1
602.962 401.67 m 1
 551.5244 401.67 l 1
 540.8377 565.6325 l 2
 540.1677 586.038 539.7188 610.9946 538.7188 639.1623 c 1
 535.8377 639.1623 l 1
 528.8377 616.4435 520.5077 584.9191 513.2866 560.7247 c 2
 461.632 406 l 1
 408.4055 406 l 1
 357.292 564.5136 l 2
 352.292 584.708 343.7242 615.9946 337.8431 639.1623 c 1
 334.962 639.1623 l 1
 334.962 614.9946 333.962 590.1569 332.962 565.6325 c 2
 322.2753 401.67 l 1
 272.8377 401.67 l 1
 293.0755 674 l 1
 370.0863 674 l 1
 419.4376 534.4751 l 2
 426.3354 514.254 431.0054 494.3729 437.5565 467.5619 c 1
 439.3354 467.5619 l 1
 445.5565 491.1885 452.0054 514.7296 457.1076 533.3562 c 2
 507.1189 674 l 1
 581.9353 674 l 1
 602.962 401.67 l 1
EndSplineSet
EndChar

StartChar: Eth
Encoding: 208 208 154
Width: 667
Flags: HW
LayerCount: 2
Fore
SplineSet
-1.9078 309.4435 m 1
 -1.9078 374.4376 l 1
 81.4756 374.4376 l 1
 81.4756 667 l 1
 134.2378 676 196.6433 682 264.2699 682 c 0
 388.811 682 478.8377 652.0755 537.481 596.2699 c 0
 596.7676 541.481 631.1731 462.9566 631.1731 353 c 0
 631.1731 244.0868 597.6754 154.3079 535.5732 91.1623 c 0
 472.2699 27.5945 368.4055 -7.2111 238.0755 -7.2111 c 0
 177.3734 -7.2111 125.9512 -5 81.4756 0 c 1
 81.4756 309.4435 l 1
 -1.9078 309.4435 l 1
347.1677 374.4376 m 1
 347.1677 309.4435 l 1
 162.3996 309.4435 l 1
 162.3996 62.6808 l 1
 185.443 59.2319 218.6053 58.5619 253.3354 58.5619 c 0
 444.9946 58.5619 546.1569 164.3621 546.1569 352.5678 c 0
 546.8269 515.0868 456.2324 616.887 267.4376 616.887 c 0
 221.2753 616.887 186.443 612.4381 162.3996 607.6492 c 1
 162.3996 374.4376 l 1
 347.1677 374.4376 l 1
EndSplineSet
EndChar

StartChar: onehalf
Encoding: 189 189 155
Width: 752
Flags: HW
LayerCount: 2
Fore
SplineSet
178.7563 266 m 1
 113.1944 266 l 1
 113.1944 598.1569 l 1
 111.5244 598.1569 l 1
 40.1189 563.1569 l 1
 29.3567 612.6867 l 1
 120.7188 656 l 1
 178.7563 656 l 1
 178.7563 266 l 1
169.5185 -11 m 1
 115.7509 -11 l 1
 496.2432 661 l 1
 550.2319 661 l 1
 169.5185 -11 l 1
436.1297 0 m 1
 436.1297 35.2432 l 1
 499.2486 94.151 l 2
 582.2753 170.8544 625.5131 218.8056 625.5131 270.2812 c 0
 625.5131 309.3246 601.7242 342.1569 548.3241 342.1569 c 0
 512.7563 342.1569 482.8752 324.2491 464.443 310.5891 c 1
 444.4864 353.4489 l 1
 470.6808 376 514.7563 395 564.4918 395 c 0
 658.3562 395 694.9561 335.1944 694.9561 282.9245 c 0
 694.9561 207.6867 637.8372 151.6433 560.6482 83.0054 c 2
 528.8426 54.4109 l 1
 528.8426 52.0809 l 1
 701.9561 52.0809 l 1
 701.9561 0 l 1
 436.1297 0 l 1
EndSplineSet
EndChar

StartChar: plusminus
Encoding: 177 177 156
Width: 596
Flags: HW
LayerCount: 2
Fore
SplineSet
267.9679 571.0755 m 1
 328.481 571.0755 l 1
 328.481 374.6487 l 1
 556 374.6487 l 1
 556 317.6867 l 1
 328.481 317.6867 l 1
 328.481 115.2432 l 1
 267.9679 115.2432 l 1
 267.9679 317.6867 l 1
 40 317.6867 l 1
 40 374.6487 l 1
 267.9679 374.6487 l 1
 267.9679 571.0755 l 1
40 56.962 m 1
 556 56.962 l 1
 556 0 l 1
 40 0 l 1
 40 56.962 l 1
EndSplineSet
EndChar

StartChar: Thorn
Encoding: 222 222 157
Width: 525
Flags: HW
LayerCount: 2
Fore
SplineSet
77.0434 0 m 1
 77.0434 674 l 1
 156.6374 674 l 1
 156.6374 541.2866 l 1
 185.0108 546.5244 218.3942 548.7455 253.9186 548.7455 c 0
 333.3675 548.7455 391.2486 529.9566 431.113 494.0755 c 0
 465.6374 461.6433 485.8485 416.4489 485.8485 364.9245 c 0
 485.8485 224.9191 380.1297 153.4435 233.5619 153.4435 c 0
 205.7997 153.4435 178.113 155.3246 156.6374 158.4435 c 1
 156.6374 0 l 1
 77.0434 0 l 1
156.6374 476.3947 m 1
 156.6374 225.0054 l 1
 180.2319 219.8865 207.2486 218.5565 233.3675 218.5565 c 0
 343.9299 218.5565 404.8056 271.5999 404.8056 356.4923 c 0
 404.8056 445.1569 340.5999 484.5136 246.962 484.5136 c 0
 206.4864 484.5136 173.3241 480.8436 156.6374 476.3947 c 1
EndSplineSet
EndChar

StartChar: onequarter
Encoding: 188 188 158
Width: 752
Flags: HW
LayerCount: 2
Fore
SplineSet
193.3241 266 m 1
 127.7622 266 l 1
 127.7622 598.1569 l 1
 126.0922 598.1569 l 1
 55.0167 563.1569 l 1
 43.9245 612.6867 l 1
 135.8377 656 l 1
 193.3241 656 l 1
 193.3241 266 l 1
188.6107 -11 m 1
 134.8431 -11 l 1
 515.5565 661 l 1
 569.3241 661 l 1
 188.6107 -11 l 1
656.1939 0 m 1
 592.6053 0 l 1
 592.6053 103.8323 l 1
 403.3942 103.8323 l 1
 403.3942 142.2866 l 1
 582.2265 391.8811 l 1
 656.1939 391.8811 l 1
 656.1939 151.1677 l 1
 711.8806 151.1677 l 1
 711.8806 103.8323 l 1
 656.1939 103.8323 l 1
 656.1939 0 l 1
592.6053 151.1677 m 1
 592.6053 272.5891 l 2
 592.6053 294.8002 594.4864 315.5624 595.4864 334.7568 c 1
 593.1564 335.2057 l 1
 581.1564 312.3246 571.2753 294.6813 559.7242 277.1302 c 2
 469.7884 152.3888 l 1
 470.4484 151.1677 l 1
 592.6053 151.1677 l 1
EndSplineSet
EndChar

StartChar: divide
Encoding: 247 247 159
Width: 596
Flags: HW
LayerCount: 2
Fore
SplineSet
298 388.6379 m 0
 267.6112 388.6379 246.7568 411.8323 247.2057 442 c 0
 247.2057 473.7188 268.2812 495.9132 298.67 495.9132 c 0
 329.1677 495.9132 349.2432 473.7188 349.2432 442 c 0
 349.2432 411.8323 329.3888 388.6379 298 388.6379 c 0
556 238.519 m 1
 40 238.519 l 1
 40 295.481 l 1
 556 295.481 l 1
 556 238.519 l 1
298 38.0868 m 0
 267.6112 38.0868 246.7568 61.2812 247.2057 91.4489 c 0
 247.2057 123.1677 268.2812 145.3621 298.67 145.3621 c 0
 329.1677 145.3621 349.2432 123.1677 349.2432 91.4489 c 0
 349.2432 61.2812 329.3888 38.0868 298 38.0868 c 0
EndSplineSet
EndChar

StartChar: brokenbar
Encoding: 166 166 160
Width: 234
Flags: HW
LayerCount: 2
Fore
SplineSet
85.8811 174 m 1
 148.9186 174 l 1
 148.9186 -176 l 1
 85.8811 -176 l 1
 85.8811 174 l 1
85.8811 674 m 1
 148.9186 674 l 1
 148.9186 324 l 1
 85.8811 324 l 1
 85.8811 674 l 1
EndSplineSet
EndChar

StartChar: degree
Encoding: 176 176 161
Width: 313
Flags: HW
LayerCount: 2
Fore
SplineSet
160.481 685 m 0
 241.8865 685 290.7242 623.8056 290.7242 556.519 c 0
 290.7242 476.6546 226.0809 423.8002 158.3621 423.8002 c 0
 81.0755 423.8002 29.1189 482.4435 29.1189 550.9512 c 0
 28.5678 627.1456 87.1944 685 160.481 685 c 0
159.3621 640.3246 m 0
 106.7676 640.3246 80.5565 594.4001 80.5565 551.7301 c 0
 80.5565 505.4923 114.7943 468.9245 159.3621 468.9245 c 0
 205.0488 468.9245 238.8377 505.7134 238.8377 555.0701 c 0
 238.8377 591.9512 217.0755 640.3246 159.3621 640.3246 c 0
EndSplineSet
EndChar

StartChar: thorn
Encoding: 254 254 162
Width: 566
Flags: HW
LayerCount: 2
Fore
SplineSet
74.2812 710 m 1
 155.2052 710 l 1
 155.2052 405.1243 l 1
 157.2052 405.1243 l 1
 189.9941 459.1677 244.1297 494.1944 323.5131 494.1944 c 0
 438.5565 495.0755 528.292 396.7188 528.292 248.33 c 0
 528.292 71.2378 418.1076 -11 307.962 -11 c 0
 243.6053 -11 189.0108 17.2378 157.2052 67.0868 c 1
 155.2052 67.0868 l 1
 155.2052 -198 l 1
 74.2812 -198 l 1
 74.2812 710 l 1
155.2052 279.7622 m 2
 155.2052 190.4055 l 2
 155.2052 176.4055 158.6374 159.1944 164.5185 146.1944 c 0
 183.7563 88.962 236.962 53.5619 297.5244 53.5619 c 0
 386.0701 53.5619 446.038 128.1998 446.038 247 c 0
 446.038 344.7568 391.9679 429.2003 299.2866 429.2003 c 0
 241.3187 429.2003 186.113 390.6813 164.7563 329.6867 c 0
 160.2052 315.4489 155.2052 296.33 155.2052 279.7622 c 2
EndSplineSet
EndChar

StartChar: threequarters
Encoding: 190 190 163
Width: 752
Flags: HW
LayerCount: 2
Fore
SplineSet
66.5678 585.2324 m 1
 49.4756 630 l 1
 72.4489 644.8811 113.9566 661 161.9132 661 c 0
 247.1998 661 282.3675 615.33 282.3675 567.3567 c 0
 282.3675 527.9245 253.3942 493.8056 206.3942 477.2378 c 1
 206.3942 475.2378 l 1
 260.7242 467.1189 298.4864 428.8811 298.4864 377.8811 c 0
 298.4864 316.4756 244.1076 261 143.0321 261 c 0
 95.2866 261 52.4322 274.1189 30.2378 289 c 1
 47.8811 335.8698 l 1
 63.1944 325.3187 102.4055 309.8698 140.5244 309.8698 c 0
 203.9512 309.8698 230.4923 347.8377 229.7134 379.5244 c 0
 229.0434 431.4923 175.33 451.7301 121.9566 451.7301 c 2
 94.9733 451.7301 l 1
 94.9733 495.8544 l 1
 122.5244 495.8544 l 2
 159.7622 495.8544 214.4756 513.33 214.4756 560.9512 c 0
 214.4756 586.0868 195.9078 612.1302 150.7622 612.1302 c 0
 114.3133 612.1302 81.8811 596.2324 66.5678 585.2324 c 1
225.9674 -11 m 1
 172.1998 -11 l 1
 552.9132 661 l 1
 606.6808 661 l 1
 225.9674 -11 l 1
666.6428 0 m 1
 603.2753 0 l 1
 603.2753 103.8323 l 1
 414.5131 103.8323 l 1
 414.5131 142.2866 l 1
 593.4543 391.8811 l 1
 666.6428 391.8811 l 1
 666.6428 151.1677 l 1
 722.8806 151.1677 l 1
 722.8806 103.8323 l 1
 666.6428 103.8323 l 1
 666.6428 0 l 1
603.2753 151.1677 m 1
 603.2753 272.5891 l 2
 603.2753 294.8002 605.6053 315.5624 606.6053 334.7568 c 1
 604.6053 335.2057 l 1
 592.2753 312.3246 582.3942 294.6813 570.7242 277.1302 c 2
 480.6862 152.3888 l 1
 481.5673 151.1677 l 1
 603.2753 151.1677 l 1
EndSplineSet
EndChar

StartChar: twosuperior
Encoding: 178 178 164
Width: 306
Flags: HW
LayerCount: 2
Fore
SplineSet
11.7622 443 m 1
 11.7622 477.9132 l 1
 74.8811 536.481 l 2
 158.3567 613.0755 201.5945 661.3567 201.5945 712.9512 c 0
 201.5945 751.9946 177.8056 784.1569 123.9566 784.1569 c 0
 88.8377 784.1569 58.5077 766.4702 40.5244 753.368 c 1
 20.5678 795.67 l 1
 46.3133 818 90.8377 838 140.1243 838 c 0
 233.7676 838 271.0375 777.5244 271.0375 725.9245 c 0
 271.0375 649.6867 213.4697 593.6433 136.7296 525.6754 c 2
 104.924 496.632 l 1
 104.924 494.632 l 1
 277.5886 494.632 l 1
 277.5886 443 l 1
 11.7622 443 l 1
EndSplineSet
EndChar

StartChar: registered
Encoding: 174 174 165
Width: 414
Flags: HW
LayerCount: 2
Fore
SplineSet
181.5565 501.8323 m 1
 181.5565 435.6867 l 1
 144.7188 435.6867 l 1
 144.7188 600.0434 l 1
 159.9566 602.7134 180.5999 605.0434 206.7943 605.0434 c 0
 237.4376 605.0434 251.7676 600.0434 262.9887 592.5945 c 0
 273.0976 585.5945 280.0976 572.9245 280.0976 557.3734 c 0
 280.0976 538.3567 265.3187 524.8056 245.8865 518.8056 c 1
 245.8865 516.8056 l 1
 261.7676 510.8056 270.3187 498.0267 275.3187 476.4756 c 0
 280.3187 451.3567 283.6487 441.6867 287.3187 435.6867 c 1
 247.7188 435.6867 l 1
 242.7188 441.6867 239.2699 456.3567 235.0488 476.4923 c 0
 231.5999 494.1623 221.481 501.8323 200.1243 501.8323 c 2
 181.5565 501.8323 l 1
182.1076 576.4001 m 1
 182.1076 528.8056 l 1
 201.1243 528.8056 l 2
 222.3621 528.8056 239.7188 535.8056 239.7188 553.1623 c 0
 239.7188 568.2812 229.1677 578.0701 203.7943 578.0701 c 0
 193.5565 578.0701 186.8865 577.0701 182.1076 576.4001 c 1
208.2432 685 m 0
 302.1076 685 375.1998 612.6867 375.1998 521.9245 c 0
 375.1998 429.1623 302.1076 356.849 208.2432 356.849 c 0
 114.9299 356.849 40.2866 429.1623 40.2866 521.9245 c 0
 40.2866 612.6867 114.9299 685 208.2432 685 c 0
208.2432 652.2645 m 0
 135.5732 652.2645 81.1243 593.5945 81.1243 521.5945 c 0
 81.1243 448.4756 135.5732 390.4756 208.9132 390.4756 c 0
 280.9132 390.4756 333.9132 448.4756 333.9132 520.9245 c 0
 333.9132 593.5945 280.9132 652.2645 208.2432 652.2645 c 0
EndSplineSet
EndChar

StartChar: minus
Encoding: 8722 8722 166
Width: 596
Flags: HW
LayerCount: 2
Fore
SplineSet
40 295.481 m 1
 556 295.481 l 1
 556 238.519 l 1
 40 238.519 l 1
 40 295.481 l 1
EndSplineSet
EndChar

StartChar: eth
Encoding: 240 240 167
Width: 537
Flags: HW
LayerCount: 2
Fore
SplineSet
265.2432 50.9186 m 0
 356.1356 50.9186 413.6813 131.0054 413.6813 242.67 c 0
 413.6813 307.2812 404.5624 347.7568 378.519 379.8002 c 0
 356.1623 405.6058 321.67 428.6492 268.9132 428.6492 c 0
 162.5619 428.6492 121.4918 319.0868 121.4918 237.33 c 0
 121.4918 132.7676 183.0542 50.9186 265.2432 50.9186 c 0
117.0434 509.8002 m 1
 98.9679 551.6112 l 1
 215.6813 607.2057 l 1
 185.6813 629.4435 147.8757 650.1302 110.189 668.038 c 1
 146.2866 720.1189 l 1
 193.5999 698.33 243.2432 670 285.3187 639.4489 c 1
 412.2753 700.1189 l 1
 432.6808 657.9679 l 1
 327.0108 607.2812 l 1
 382.2486 561.5945 425.5886 507.3567 455.0375 447.6867 c 0
 482.3675 391.5678 497.4864 327.4489 497.4864 252.3133 c 0
 497.7075 67.0922 379.632 -11 265.2432 -11 c 0
 135.5244 -11 38.3567 85.4489 38.3567 235.8811 c 0
 38.3567 394.0434 148.3567 485.1623 262.0755 485.1623 c 0
 300.9245 485.1623 338.3246 477.4756 377.3947 440.1677 c 1
 379.3947 443.1677 l 1
 350.4869 492.2378 311.4435 536.189 258.9245 576.038 c 1
 117.0434 509.8002 l 1
EndSplineSet
EndChar

StartChar: multiply
Encoding: 215 215 168
Width: 596
Flags: HW
LayerCount: 2
Fore
SplineSet
40 484.3246 m 1
 81.3454 526 l 1
 298 305.1243 l 1
 514.3246 526 l 1
 556 484.3246 l 1
 339.4543 263 l 1
 556 41.6754 l 1
 513.8757 0 l 1
 298 220.5457 l 1
 81.6754 0 l 1
 40 41.6754 l 1
 256.3246 263 l 1
 40 484.3246 l 1
EndSplineSet
EndChar

StartChar: threesuperior
Encoding: 179 179 169
Width: 300
Flags: HW
LayerCount: 2
Fore
SplineSet
44.8811 761.5624 m 1
 27.7889 806.4489 l 1
 51.2111 820.8811 92.7188 838 140.6754 838 c 0
 225.962 838 261.1297 791.8811 261.1297 743.6867 c 0
 261.1297 703.9245 231.7075 670.3567 184.9353 653.5678 c 1
 184.9353 651.5678 l 1
 239.1564 644.1189 277.2486 604.8811 277.2486 554.5511 c 0
 277.2486 493.4756 222.6487 438 121.5732 438 c 0
 73.5999 438 30.5244 450.4489 8.5511 465.33 c 1
 26.6433 512.6487 l 1
 41.9566 502.3187 81.1677 486.6487 118.9566 486.6487 c 0
 182.4923 486.6487 208.4756 524.2866 207.8056 555.9733 c 0
 207.8056 608.1623 153.6433 628.4001 100.0488 628.4001 c 2
 73.2866 628.4001 l 1
 73.2866 672.0755 l 1
 100.8377 672.0755 l 2
 138.0755 672.0755 192.5678 689.8811 193.2378 737.4001 c 0
 193.2378 762.6379 174.67 788.8002 129.0755 788.8002 c 0
 93.0755 788.8002 60.6433 772.5624 44.8811 761.5624 c 1
EndSplineSet
EndChar

StartChar: copyright
Encoding: 169 169 170
Width: 677
Flags: HW
LayerCount: 2
Fore
SplineSet
340 648 m 0
 509.33 648 640.7622 510 640.7622 340 c 0
 640.7622 168 509.33 30 340 30 c 0
 169.67 30 36.6867 168 36.6867 340 c 0
 36.6867 510 169.67 648 340 648 c 0
339.67 608.0701 m 0
 195.4055 608.0701 84.8377 490.1623 84.8377 336.8811 c 0
 84.8377 186.8377 195.4055 69.9299 339.67 69.9299 c 0
 481.5945 69.9299 592.1623 186.8377 592.1623 339.67 c 0
 592.1623 490.1623 481.5945 608.0701 339.67 608.0701 c 0
474 493.4489 m 1
 462.5678 455.0701 l 1
 449.1189 462.849 412.6867 478.519 364.67 478.519 c 0
 269.9299 478.519 223.5999 417.5678 223.5999 337 c 0
 223.5999 258.1944 272.5999 194.481 365.7889 194.481 c 0
 406.5678 194.481 444.2378 205.151 467.6867 220.5999 c 1
 479.4489 184.33 l 1
 444.4489 160.5511 398 153 356.1189 153 c 0
 240.2378 153 173.2378 232.67 173.2378 334 c 0
 173.2378 447.5511 263.1189 520 364 520 c 0
 416.2378 520 460.5511 505 474 493.4489 c 1
EndSplineSet
EndChar

StartChar: Aacute
Encoding: 193 193 171
Width: 607
Flags: HW
LayerCount: 2
Fore
SplineSet
424.9245 215.8436 m 1
 181.6053 215.8436 l 1
 109.7296 0 l 1
 25.9245 0 l 1
 257.368 674 l 1
 353.0429 674 l 1
 585.2486 0 l 1
 499.1302 0 l 1
 424.9245 215.8436 l 1
198.9186 279.5244 m 1
 407.2812 279.5244 l 1
 338.3888 478.2003 l 2
 323.5999 522.557 313.7188 561.8436 303.7188 600.3947 c 1
 301.7188 600.3947 l 1
 291.7188 561.1736 281.0488 520.887 267.9299 479.3192 c 2
 198.9186 279.5244 l 1
348.7134 826.1944 m 1
 449.7997 826.1944 l 1
 322.113 710 l 1
 255.5678 710 l 1
 348.7134 826.1944 l 1
EndSplineSet
EndChar

StartChar: Acircumflex
Encoding: 194 194 172
Width: 607
Flags: HW
LayerCount: 2
Fore
SplineSet
424.9245 215.8436 m 1
 181.6053 215.8436 l 1
 109.7296 0 l 1
 25.9245 0 l 1
 257.368 674 l 1
 353.0429 674 l 1
 585.2486 0 l 1
 499.1302 0 l 1
 424.9245 215.8436 l 1
198.9186 279.5244 m 1
 407.2812 279.5244 l 1
 338.3888 478.2003 l 2
 323.5999 522.557 313.7188 561.8436 303.7188 600.3947 c 1
 301.7188 600.3947 l 1
 291.7188 561.1736 281.0488 520.887 267.9299 479.3192 c 2
 198.9186 279.5244 l 1
276.8056 823.4055 m 1
 339.3675 823.4055 l 1
 444.6053 710 l 1
 374.0922 710 l 1
 309.3621 779.9245 l 1
 307.3621 779.9245 l 1
 242.4109 710 l 1
 174.2378 710 l 1
 276.8056 823.4055 l 1
EndSplineSet
EndChar

StartChar: Adieresis
Encoding: 196 196 173
Width: 607
Flags: HW
LayerCount: 2
Fore
SplineSet
424.9245 215.8436 m 1
 181.6053 215.8436 l 1
 109.7296 0 l 1
 25.9245 0 l 1
 257.368 674 l 1
 353.0429 674 l 1
 585.2486 0 l 1
 499.1302 0 l 1
 424.9245 215.8436 l 1
198.9186 279.5244 m 1
 407.2812 279.5244 l 1
 338.3888 478.2003 l 2
 323.5999 522.557 313.7188 561.8436 303.7188 600.3947 c 1
 301.7188 600.3947 l 1
 291.7188 561.1736 281.0488 520.887 267.9299 479.3192 c 2
 198.9186 279.5244 l 1
215.8377 719.4756 m 0
 187.5511 719.4756 169.0434 742.33 169.0434 768.8377 c 0
 169.0434 795.6754 189.4489 817.6487 216.8377 817.6487 c 0
 243.2432 817.6487 262.6487 796.1243 262.6487 768.8377 c 0
 262.6487 742.33 244.6921 719.4756 215.8377 719.4756 c 0
399.292 719.4756 m 0
 370.6754 719.4756 352.7188 742.33 352.7188 768.8377 c 0
 352.7188 795.6754 373.1243 817.6487 399.962 817.6487 c 0
 427.2486 817.6487 446.3241 796.1243 446.3241 768.8377 c 0
 446.3241 742.33 428.3675 719.4756 399.292 719.4756 c 0
EndSplineSet
EndChar

StartChar: Agrave
Encoding: 192 192 174
Width: 607
Flags: HW
LayerCount: 2
Fore
SplineSet
424.9245 215.8436 m 1
 181.6053 215.8436 l 1
 109.7296 0 l 1
 25.9245 0 l 1
 257.368 674 l 1
 353.0429 674 l 1
 585.2486 0 l 1
 499.1302 0 l 1
 424.9245 215.8436 l 1
198.9186 279.5244 m 1
 407.2812 279.5244 l 1
 338.3888 478.2003 l 2
 323.5999 522.557 313.7188 561.8436 303.7188 600.3947 c 1
 301.7188 600.3947 l 1
 291.7188 561.1736 281.0488 520.887 267.9299 479.3192 c 2
 198.9186 279.5244 l 1
160.9245 826.1944 m 1
 262.6808 826.1944 l 1
 355.6053 710.5511 l 1
 289.2812 710.5511 l 1
 160.9245 826.1944 l 1
EndSplineSet
EndChar

StartChar: Aring
Encoding: 197 197 175
Width: 607
Flags: HW
LayerCount: 2
Fore
SplineSet
424.9245 215.8436 m 1
 181.6053 215.8436 l 1
 109.7296 0 l 1
 25.9245 0 l 1
 257.368 674 l 1
 353.0429 674 l 1
 585.2486 0 l 1
 499.1302 0 l 1
 424.9245 215.8436 l 1
198.9186 279.5244 m 1
 407.2812 279.5244 l 1
 338.3888 478.2003 l 2
 323.5999 522.557 313.7188 561.8436 303.7188 600.3947 c 1
 301.7188 600.3947 l 1
 291.7188 561.1736 281.0488 520.887 267.9299 479.3192 c 2
 198.9186 279.5244 l 1
306.0321 876.6921 m 0
 366.4109 876.6921 403.962 836.9299 403.962 786.8377 c 0
 403.962 737.5244 363.0809 699.2111 306.0321 699.2111 c 0
 247.0922 699.2111 207.8811 738.1944 207.8811 786.2866 c 0
 207.8811 835.9299 245.7622 876.6921 306.0321 876.6921 c 0
305.0321 841.6433 m 0
 274.3621 841.6433 256.7943 815.5244 256.7943 786.2866 c 0
 256.7943 760.2699 276.3621 734.481 305.0321 734.481 c 0
 334.481 734.481 353.7188 758.2699 353.7188 788.2866 c 0
 353.7188 817.1944 334.481 841.6433 305.0321 841.6433 c 0
EndSplineSet
EndChar

StartChar: Atilde
Encoding: 195 195 176
Width: 607
Flags: HW
LayerCount: 2
Fore
SplineSet
424.9245 215.8436 m 1
 181.6053 215.8436 l 1
 109.7296 0 l 1
 25.9245 0 l 1
 257.368 674 l 1
 353.0429 674 l 1
 585.2486 0 l 1
 499.1302 0 l 1
 424.9245 215.8436 l 1
198.9186 279.5244 m 1
 407.2812 279.5244 l 1
 338.3888 478.2003 l 2
 323.5999 522.557 313.7188 561.8436 303.7188 600.3947 c 1
 301.7188 600.3947 l 1
 291.7188 561.1736 281.0488 520.887 267.9299 479.3192 c 2
 198.9186 279.5244 l 1
229.6487 715.4489 m 1
 184.6433 715.4489 l 1
 183.3133 774.0054 208.9566 814.8865 251.5999 814.8865 c 0
 273.6921 814.8865 289.6754 806.3354 310.9132 794.4376 c 0
 327.2432 785.5565 343.3621 776.5565 358.9299 776.5565 c 0
 374.481 776.5565 383.5999 783.7676 385.9299 815.3187 c 1
 430.2753 815.3187 l 1
 431.1564 755.33 409.632 721 364.2165 721 c 0
 343.2432 721 325.3621 728.5511 303.4543 740.4489 c 0
 284.0054 750.4489 270.4376 759.1189 255.7676 759.1189 c 0
 239.5298 759.1189 232.3187 741.8811 229.6487 715.4489 c 1
EndSplineSet
EndChar

StartChar: Eacute
Encoding: 201 201 178
Width: 487
Flags: HW
LayerCount: 2
Fore
SplineSet
420.9186 385.7943 m 1
 420.9186 318.9191 l 1
 157.9674 318.9191 l 1
 157.9674 67.4263 l 1
 451.8164 67.4263 l 1
 451.8164 0 l 1
 77.0434 0 l 1
 77.0434 674 l 1
 436.3675 674 l 1
 436.3675 606.5737 l 1
 157.9674 606.5737 l 1
 157.9674 385.7943 l 1
 420.9186 385.7943 l 1
303.2812 826.1944 m 1
 404.3675 826.1944 l 1
 276.6808 710 l 1
 209.6867 710 l 1
 303.2812 826.1944 l 1
EndSplineSet
EndChar

StartChar: Ecircumflex
Encoding: 202 202 179
Width: 487
Flags: HW
LayerCount: 2
Fore
SplineSet
420.9186 385.7943 m 1
 420.9186 318.9191 l 1
 157.9674 318.9191 l 1
 157.9674 67.4263 l 1
 451.8164 67.4263 l 1
 451.8164 0 l 1
 77.0434 0 l 1
 77.0434 674 l 1
 436.3675 674 l 1
 436.3675 606.5737 l 1
 157.9674 606.5737 l 1
 157.9674 385.7943 l 1
 420.9186 385.7943 l 1
223.1189 823.4055 m 1
 285.6808 823.4055 l 1
 390.9186 710 l 1
 320.4055 710 l 1
 255.4543 779.9245 l 1
 253.4543 779.9245 l 1
 188.3942 710 l 1
 120.33 710 l 1
 223.1189 823.4055 l 1
EndSplineSet
EndChar

StartChar: Edieresis
Encoding: 203 203 180
Width: 487
Flags: HW
LayerCount: 2
Fore
SplineSet
420.9186 385.7943 m 1
 420.9186 318.9191 l 1
 157.9674 318.9191 l 1
 157.9674 67.4263 l 1
 451.8164 67.4263 l 1
 451.8164 0 l 1
 77.0434 0 l 1
 77.0434 674 l 1
 436.3675 674 l 1
 436.3675 606.5737 l 1
 157.9674 606.5737 l 1
 157.9674 385.7943 l 1
 420.9186 385.7943 l 1
162.1944 721.5945 m 0
 133.6867 721.5945 114.7301 744 114.7301 770.9566 c 0
 114.7301 797.5732 135.3567 819.3187 162.6433 819.3187 c 0
 189.5999 819.3187 208.5565 797.7943 208.5565 770.9566 c 0
 208.5565 744 190.5999 721.5945 162.1944 721.5945 c 0
345.3187 721.5945 m 0
 317.0321 721.5945 298.4055 744 298.4055 770.9566 c 0
 298.4055 797.5732 318.481 819.3187 346.0976 819.3187 c 0
 373.2753 819.3187 392.2319 797.7943 392.2319 770.9566 c 0
 392.2319 744 374.2753 721.5945 345.3187 721.5945 c 0
EndSplineSet
EndChar

StartChar: Egrave
Encoding: 200 200 181
Width: 487
Flags: HW
LayerCount: 2
Fore
SplineSet
420.9186 385.7943 m 1
 420.9186 318.9191 l 1
 157.9674 318.9191 l 1
 157.9674 67.4263 l 1
 451.8164 67.4263 l 1
 451.8164 0 l 1
 77.0434 0 l 1
 77.0434 674 l 1
 436.3675 674 l 1
 436.3675 606.5737 l 1
 157.9674 606.5737 l 1
 157.9674 385.7943 l 1
 420.9186 385.7943 l 1
119.5945 826.1944 m 1
 220.6808 826.1944 l 1
 314.2753 710.5511 l 1
 247.7301 710.5511 l 1
 119.5945 826.1944 l 1
EndSplineSet
EndChar

StartChar: Iacute
Encoding: 205 205 182
Width: 234
Flags: HW
LayerCount: 2
Fore
SplineSet
77.0434 674 m 1
 157.9674 674 l 1
 157.9674 0 l 1
 77.0434 0 l 1
 77.0434 674 l 1
160.2545 826.1944 m 1
 261.5619 826.1944 l 1
 133.2052 710 l 1
 66.8811 710 l 1
 160.2545 826.1944 l 1
EndSplineSet
EndChar

StartChar: Icircumflex
Encoding: 206 206 183
Width: 234
Flags: HW
LayerCount: 2
Fore
SplineSet
77.0434 674 m 1
 157.9674 674 l 1
 157.9674 0 l 1
 77.0434 0 l 1
 77.0434 674 l 1
85.4489 823.4055 m 1
 148.0108 823.4055 l 1
 253.2486 710 l 1
 182.9566 710 l 1
 118.0054 779.9245 l 1
 116.0054 779.9245 l 1
 51.0542 710 l 1
 -17.1189 710 l 1
 85.4489 823.4055 l 1
EndSplineSet
EndChar

StartChar: Idieresis
Encoding: 207 207 184
Width: 234
Flags: HW
LayerCount: 2
Fore
SplineSet
77.0434 674 m 1
 157.9674 674 l 1
 157.9674 0 l 1
 77.0434 0 l 1
 77.0434 674 l 1
26.3888 721.5945 m 0
 -2.1189 721.5945 -21.0755 744 -21.0755 770.9566 c 0
 -21.0755 797.5732 -0.1189 819.3187 27.1677 819.3187 c 0
 54.1243 819.3187 73.1998 797.7943 73.1998 770.9566 c 0
 73.1998 744 54.7943 721.5945 26.3888 721.5945 c 0
209.8431 721.5945 m 0
 181.5565 721.5945 162.5999 744 162.5999 770.9566 c 0
 162.5999 797.5732 183.0054 819.3187 210.5131 819.3187 c 0
 237.7997 819.3187 257.2052 797.7943 257.2052 770.9566 c 0
 257.2052 744 238.4697 721.5945 209.8431 721.5945 c 0
EndSplineSet
EndChar

StartChar: Igrave
Encoding: 204 204 185
Width: 234
Flags: HW
LayerCount: 2
Fore
SplineSet
77.0434 674 m 1
 157.9674 674 l 1
 157.9674 0 l 1
 77.0434 0 l 1
 77.0434 674 l 1
-25.2111 826.1944 m 1
 76.3241 826.1944 l 1
 169.2486 710.5511 l 1
 102.9245 710.5511 l 1
 -25.2111 826.1944 l 1
EndSplineSet
EndChar

StartChar: Ntilde
Encoding: 209 209 186
Width: 654
Flags: HW
LayerCount: 2
Fore
SplineSet
153.113 0 m 1
 77.0434 0 l 1
 77.0434 674 l 1
 164.4484 674 l 1
 387.6867 324.5727 l 2
 437.8323 244.6482 476.8323 174.9294 508.9512 106.405 c 1
 510.9512 107.075 l 1
 503.4001 197.5239 501.519 278.9294 501.519 383.7183 c 2
 501.519 674 l 1
 578.3675 674 l 1
 578.3675 0 l 1
 496.8002 0 l 1
 276.0375 349.265 l 2
 229.0108 425.2817 183.5619 501.5683 149.443 573.7627 c 1
 146.8919 572.7627 l 1
 151.8919 488.0005 153.113 407.9517 153.113 296.2817 c 2
 153.113 0 l 1
254.7943 715.4489 m 1
 209.7889 715.4489 l 1
 208.2378 774.0054 233.8811 814.8865 277.1944 814.8865 c 0
 298.8377 814.8865 315.0488 806.3354 335.8377 794.4376 c 0
 352.1677 785.5565 368.2866 776.5565 384.0755 776.5565 c 0
 399.4055 776.5565 408.9733 783.7676 411.5244 815.3187 c 1
 455.5298 815.3187 l 1
 456.0809 755.33 435.0054 721 389.3621 721 c 0
 368.3888 721 350.9566 728.5511 328.5999 740.4489 c 0
 309.5999 750.4489 295.811 759.1189 281.3621 759.1189 c 0
 265.1243 759.1189 257.2432 741.8811 254.7943 715.4489 c 1
EndSplineSet
EndChar

StartChar: Oacute
Encoding: 211 211 187
Width: 685
Flags: HW
LayerCount: 2
Fore
SplineSet
347.2699 685 m 0
 529.2753 685 649.0809 545.4001 649.0809 344 c 0
 649.0809 111.2866 507.6053 -11 338.1677 -11 c 0
 161.5945 -11 36.8978 126.1677 36.8978 330.8811 c 0
 36.8978 545.7134 168.9078 685 347.2699 685 c 0
344.0488 618.6759 m 0
 195.1885 618.6759 122.3562 481.9512 122.3562 332.8811 c 0
 122.3562 187.5999 201.8752 55.3241 342.9299 55.3241 c 0
 484.5357 55.3241 563.8436 184.7943 563.8436 340.1189 c 0
 563.8436 475.4001 492.5624 618.6759 344.0488 618.6759 c 0
384.7134 828.6433 m 1
 486.2486 828.6433 l 1
 358.113 713.1189 l 1
 291.5678 713.1189 l 1
 384.7134 828.6433 l 1
EndSplineSet
EndChar

StartChar: Ocircumflex
Encoding: 212 212 188
Width: 685
Flags: HW
LayerCount: 2
Fore
SplineSet
347.2699 685 m 0
 529.2753 685 649.0809 545.4001 649.0809 344 c 0
 649.0809 111.2866 507.6053 -11 338.1677 -11 c 0
 161.5945 -11 36.8978 126.1677 36.8978 330.8811 c 0
 36.8978 545.7134 168.9078 685 347.2699 685 c 0
344.0488 618.6759 m 0
 195.1885 618.6759 122.3562 481.9512 122.3562 332.8811 c 0
 122.3562 187.5999 201.8752 55.3241 342.9299 55.3241 c 0
 484.5357 55.3241 563.8436 184.7943 563.8436 340.1189 c 0
 563.8436 475.4001 492.5624 618.6759 344.0488 618.6759 c 0
310.5945 826.1944 m 1
 373.1564 826.1944 l 1
 478.3942 713.1189 l 1
 407.8811 713.1189 l 1
 342.9299 782.5945 l 1
 340.9299 782.5945 l 1
 276.1998 713.1189 l 1
 207.8056 713.1189 l 1
 310.5945 826.1944 l 1
EndSplineSet
EndChar

StartChar: Odieresis
Encoding: 214 214 189
Width: 685
Flags: HW
LayerCount: 2
Fore
SplineSet
347.2699 685 m 0
 529.2753 685 649.0809 545.4001 649.0809 344 c 0
 649.0809 111.2866 507.6053 -11 338.1677 -11 c 0
 161.5945 -11 36.8978 126.1677 36.8978 330.8811 c 0
 36.8978 545.7134 168.9078 685 347.2699 685 c 0
344.0488 618.6759 m 0
 195.1885 618.6759 122.3562 481.9512 122.3562 332.8811 c 0
 122.3562 187.5999 201.8752 55.3241 342.9299 55.3241 c 0
 484.5357 55.3241 563.8436 184.7943 563.8436 340.1189 c 0
 563.8436 475.4001 492.5624 618.6759 344.0488 618.6759 c 0
251.3133 721.5945 m 0
 222.8056 721.5945 204.0701 744 204.0701 770.9566 c 0
 204.0701 797.5732 224.4756 819.3187 251.7622 819.3187 c 0
 278.7188 819.3187 298.1243 797.7943 298.1243 770.9566 c 0
 298.1243 744 279.7188 721.5945 251.3133 721.5945 c 0
434.4376 721.5945 m 0
 406.151 721.5945 387.5244 744 387.5244 770.9566 c 0
 387.5244 797.5732 407.5999 819.3187 435.4376 819.3187 c 0
 462.3942 819.3187 481.7997 797.7943 481.7997 770.9566 c 0
 481.7997 744 463.3942 721.5945 434.4376 721.5945 c 0
EndSplineSet
EndChar

StartChar: Ograve
Encoding: 210 210 190
Width: 685
Flags: HW
LayerCount: 2
Fore
SplineSet
347.2699 685 m 0
 529.2753 685 649.0809 545.4001 649.0809 344 c 0
 649.0809 111.2866 507.6053 -11 338.1677 -11 c 0
 161.5945 -11 36.8978 126.1677 36.8978 330.8811 c 0
 36.8978 545.7134 168.9078 685 347.2699 685 c 0
344.0488 618.6759 m 0
 195.1885 618.6759 122.3562 481.9512 122.3562 332.8811 c 0
 122.3562 187.5999 201.8752 55.3241 342.9299 55.3241 c 0
 484.5357 55.3241 563.8436 184.7943 563.8436 340.1189 c 0
 563.8436 475.4001 492.5624 618.6759 344.0488 618.6759 c 0
200.1623 828.6433 m 1
 301.9186 828.6433 l 1
 394.8431 713.4489 l 1
 328.519 713.4489 l 1
 200.1623 828.6433 l 1
EndSplineSet
EndChar

StartChar: Otilde
Encoding: 213 213 191
Width: 685
Flags: HW
LayerCount: 2
Fore
SplineSet
347.2699 685 m 0
 529.2753 685 649.0809 545.4001 649.0809 344 c 0
 649.0809 111.2866 507.6053 -11 338.1677 -11 c 0
 161.5945 -11 36.8978 126.1677 36.8978 330.8811 c 0
 36.8978 545.7134 168.9078 685 347.2699 685 c 0
344.0488 618.6759 m 0
 195.1885 618.6759 122.3562 481.9512 122.3562 332.8811 c 0
 122.3562 187.5999 201.8752 55.3241 342.9299 55.3241 c 0
 484.5357 55.3241 563.8436 184.7943 563.8436 340.1189 c 0
 563.8436 475.4001 492.5624 618.6759 344.0488 618.6759 c 0
264.6754 718.0167 m 1
 219.67 718.0167 l 1
 218.5678 776.5732 243.7622 817.4543 287.0755 817.4543 c 0
 308.7188 817.4543 324.9299 808.6754 346.1677 797.0054 c 0
 361.7188 788.1243 378.1677 779.1243 394.4055 779.1243 c 0
 409.2866 779.1243 418.8544 786.0054 421.4055 817.8865 c 1
 465.5298 817.8865 l 1
 466.4109 757.1189 444.8865 723.5678 399.2432 723.5678 c 0
 378.7188 723.5678 360.8377 731.1189 338.5999 742.5678 c 0
 319.481 753.0167 305.6921 761.6867 291.2432 761.6867 c 0
 275.0054 761.6867 267.1243 744.4489 264.6754 718.0167 c 1
EndSplineSet
EndChar

StartChar: Scaron
Encoding: 352 352 192
Width: 488
Flags: HW
LayerCount: 2
Fore
SplineSet
41.67 33.5678 m 1
 63.5244 101.3241 l 1
 102.4055 76.7563 158.5999 57.2052 218.2432 57.2052 c 0
 308.8811 57.2052 362.7301 105.3942 362.7301 175.8377 c 0
 362.7301 240.7134 326.0434 278.3246 234 313.3513 c 0
 124.1189 352.2324 56.4756 409.4435 56.4756 503.7568 c 0
 56.4756 607.7134 142.8811 685 271.1998 685 c 0
 338.8264 685 389.2486 668.5511 417.7563 652.1189 c 1
 394.4697 585.7948 l 1
 373.6053 598.5737 328.8431 617.7948 268.5298 617.7948 c 0
 173.5185 617.7948 137.9507 560.3513 137.9507 513.519 c 0
 137.9507 448.7622 179.1885 416.9299 272.9941 380.3621 c 0
 386.6374 335.9132 444.7563 281.8377 444.7563 182.5999 c 0
 444.7563 79.9733 369.2486 -10 212.0321 -10 c 0
 148.1944 -10 77.5511 9.33 41.67 33.5678 c 1
287.3508 713.1189 m 1
 224.7889 713.1189 l 1
 119.8811 826.1944 l 1
 190.3942 826.1944 l 1
 255.7943 756.0488 l 1
 257.7943 756.0488 l 1
 322.0755 826.1944 l 1
 390.2486 826.1944 l 1
 287.3508 713.1189 l 1
EndSplineSet
EndChar

StartChar: Uacute
Encoding: 218 218 193
Width: 643
Flags: HW
LayerCount: 2
Fore
SplineSet
76.4923 674 m 1
 157.6374 674 l 1
 157.6374 273.3888 l 2
 157.6374 119.6808 226.5131 55.773 318.6921 55.773 c 0
 420 55.773 486.2057 122.8164 486.2057 273.3888 c 2
 486.2057 674 l 1
 567.7997 674 l 1
 567.7997 279.5999 l 2
 567.7997 72.2699 458.113 -11 315.3621 -11 c 0
 180.4001 -11 76.4923 66.151 76.4923 274.7943 c 2
 76.4923 674 l 1
368.0868 826.1944 m 1
 469.3942 826.1944 l 1
 341.0375 710 l 1
 274.7134 710 l 1
 368.0868 826.1944 l 1
EndSplineSet
EndChar

StartChar: Ucircumflex
Encoding: 219 219 194
Width: 643
Flags: HW
LayerCount: 2
Fore
SplineSet
76.4923 674 m 1
 157.6374 674 l 1
 157.6374 273.3888 l 2
 157.6374 119.6808 226.5131 55.773 318.6921 55.773 c 0
 420 55.773 486.2057 122.8164 486.2057 273.3888 c 2
 486.2057 674 l 1
 567.7997 674 l 1
 567.7997 279.5999 l 2
 567.7997 72.2699 458.113 -11 315.3621 -11 c 0
 180.4001 -11 76.4923 66.151 76.4923 274.7943 c 2
 76.4923 674 l 1
295.4489 823.4055 m 1
 358.0108 823.4055 l 1
 462.9186 710 l 1
 392.4055 710 l 1
 327.6754 779.9245 l 1
 325.6754 779.9245 l 1
 260.7242 710 l 1
 192.5511 710 l 1
 295.4489 823.4055 l 1
EndSplineSet
EndChar

StartChar: Udieresis
Encoding: 220 220 195
Width: 643
Flags: HW
LayerCount: 2
Fore
SplineSet
76.4923 674 m 1
 157.6374 674 l 1
 157.6374 273.3888 l 2
 157.6374 119.6808 226.5131 55.773 318.6921 55.773 c 0
 420 55.773 486.2057 122.8164 486.2057 273.3888 c 2
 486.2057 674 l 1
 567.7997 674 l 1
 567.7997 279.5999 l 2
 567.7997 72.2699 458.113 -11 315.3621 -11 c 0
 180.4001 -11 76.4923 66.151 76.4923 274.7943 c 2
 76.4923 674 l 1
232.2866 721.5945 m 0
 204 721.5945 185.0434 744 185.0434 770.9566 c 0
 185.0434 797.5732 205.67 819.3187 232.5077 819.3187 c 0
 259.2432 819.3187 278.8698 797.7943 278.8698 770.9566 c 0
 278.8698 744 260.6921 721.5945 232.2866 721.5945 c 0
415.632 721.5945 m 0
 387.1243 721.5945 368.7188 744 368.7188 770.9566 c 0
 368.7188 797.5732 389.1243 819.3187 415.962 819.3187 c 0
 442.9186 819.3187 462.3241 797.7943 462.3241 770.9566 c 0
 462.3241 744 444.3675 721.5945 415.632 721.5945 c 0
EndSplineSet
EndChar

StartChar: Ugrave
Encoding: 217 217 196
Width: 643
Flags: HW
LayerCount: 2
Fore
SplineSet
76.4923 674 m 1
 157.6374 674 l 1
 157.6374 273.3888 l 2
 157.6374 119.6808 226.5131 55.773 318.6921 55.773 c 0
 420 55.773 486.2057 122.8164 486.2057 273.3888 c 2
 486.2057 674 l 1
 567.7997 674 l 1
 567.7997 279.5999 l 2
 567.7997 72.2699 458.113 -11 315.3621 -11 c 0
 180.4001 -11 76.4923 66.151 76.4923 274.7943 c 2
 76.4923 674 l 1
184.0434 826.1944 m 1
 285.1297 826.1944 l 1
 378.7242 710.5511 l 1
 311.4001 710.5511 l 1
 184.0434 826.1944 l 1
EndSplineSet
EndChar

StartChar: Yacute
Encoding: 221 221 197
Width: 534
Flags: HW
LayerCount: 2
Fore
SplineSet
308.2807 0 m 1
 227.1356 0 l 1
 227.1356 287.0434 l 1
 13.2378 674 l 1
 105.5673 674 l 1
 203.1297 485.5565 l 2
 229.0375 433.9887 250.292 393.0809 271.1998 345.5131 c 1
 273.1998 345.5131 l 1
 292.4376 390.0809 315.9132 434.7676 342.7188 486.0054 c 2
 442.519 674 l 1
 534.5185 674 l 1
 308.2807 287.8056 l 1
 308.2807 0 l 1
319.67 820.2866 m 1
 420.7563 820.2866 l 1
 293.3996 704.7622 l 1
 226.5244 704.7622 l 1
 319.67 820.2866 l 1
EndSplineSet
EndChar

StartChar: Ydieresis
Encoding: 376 376 198
Width: 534
Flags: HW
LayerCount: 2
Fore
SplineSet
308.2807 0 m 1
 227.1356 0 l 1
 227.1356 287.0434 l 1
 13.2378 674 l 1
 105.5673 674 l 1
 203.1297 485.5565 l 2
 229.0375 433.9887 250.292 393.0809 271.1998 345.5131 c 1
 273.1998 345.5131 l 1
 292.4376 390.0809 315.9132 434.7676 342.7188 486.0054 c 2
 442.519 674 l 1
 534.5185 674 l 1
 308.2807 287.8056 l 1
 308.2807 0 l 1
185.2432 714.2378 m 0
 156.9566 714.2378 138 736.6433 138 763.5999 c 0
 138 790.2165 158.4055 811.962 185.7943 811.962 c 0
 212.1998 811.962 231.6053 790.4376 231.6053 763.5999 c 0
 231.6053 736.6433 213.6487 714.2378 185.2432 714.2378 c 0
368.6975 714.2378 m 0
 340.0809 714.2378 321.6754 736.6433 321.6754 763.5999 c 0
 321.6754 790.2165 342.0809 811.962 368.9186 811.962 c 0
 396.2052 811.962 415.2807 790.4376 415.2807 763.5999 c 0
 415.2807 736.6433 397.3241 714.2378 368.6975 714.2378 c 0
EndSplineSet
EndChar

StartChar: Zcaron
Encoding: 381 381 199
Width: 550
Flags: HW
LayerCount: 2
Fore
SplineSet
30.4756 0 m 1
 30.4756 48.0809 l 1
 409.2704 603.2437 l 1
 409.2704 606.2437 l 1
 62.5945 606.2437 l 1
 62.5945 674 l 1
 514.4376 674 l 1
 514.4376 624.1569 l 1
 137.2861 71.0863 l 1
 137.2861 67.7563 l 1
 519.4376 67.7563 l 1
 519.4376 0 l 1
 30.4756 0 l 1
318.0809 710 m 1
 255.519 710 l 1
 150.8323 823.4055 l 1
 221.1243 823.4055 l 1
 286.5244 753.151 l 1
 288.5244 753.151 l 1
 352.8056 823.4055 l 1
 421.1998 823.4055 l 1
 318.0809 710 l 1
EndSplineSet
EndChar

StartChar: aacute
Encoding: 225 225 200
Width: 477
Flags: HW
LayerCount: 2
Fore
SplineSet
415.1885 0 m 1
 341.5678 0 l 1
 334.2378 62.2812 l 1
 331.2378 62.2812 l 1
 305.0434 24.7301 252.9245 -11 182.3133 -11 c 0
 85.2111 -11 35.8056 58.2111 35.8056 126.8377 c 0
 35.8056 243.1243 138.7622 307.811 327.0434 306.3621 c 1
 327.0434 316.5999 l 2
 327.0434 357.5511 316.2812 433.6058 214.8377 433.1569 c 0
 170.1944 433.1569 123.5511 420.1736 89.8811 397.1569 c 1
 70.8056 452.0922 l 1
 110.8323 478.1189 168.6867 494.1944 226.8865 494.1944 c 0
 373.4864 494.1944 407.9674 392.5077 407.9674 297.4756 c 2
 407.9674 115.4322 l 2
 407.9674 74.5678 409.9674 33.8056 415.1885 0 c 1
328.4756 161.5999 m 2
 328.4756 248.519 l 1
 231.4055 250.9679 117.9674 233.7568 117.9674 136.9299 c 0
 117.9674 77.5131 157.2486 50.3675 202.5131 50.3675 c 0
 268.5244 50.3675 309.4489 91.7676 323.8056 133.481 c 0
 326.8056 142.9299 328.4756 152.9299 328.4756 161.5999 c 2
274.9733 692.4055 m 1
 367.773 692.4055 l 1
 245.443 550 l 1
 186.8544 550 l 1
 274.9733 692.4055 l 1
EndSplineSet
EndChar

StartChar: acircumflex
Encoding: 226 226 201
Width: 477
Flags: HW
LayerCount: 2
Fore
SplineSet
415.1885 0 m 1
 341.5678 0 l 1
 334.2378 62.2812 l 1
 331.2378 62.2812 l 1
 305.0434 24.7301 252.9245 -11 182.3133 -11 c 0
 85.2111 -11 35.8056 58.2111 35.8056 126.8377 c 0
 35.8056 243.1243 138.7622 307.811 327.0434 306.3621 c 1
 327.0434 316.5999 l 2
 327.0434 357.5511 316.2812 433.6058 214.8377 433.1569 c 0
 170.1944 433.1569 123.5511 420.1736 89.8811 397.1569 c 1
 70.8056 452.0922 l 1
 110.8323 478.1189 168.6867 494.1944 226.8865 494.1944 c 0
 373.4864 494.1944 407.9674 392.5077 407.9674 297.4756 c 2
 407.9674 115.4322 l 2
 407.9674 74.5678 409.9674 33.8056 415.1885 0 c 1
328.4756 161.5999 m 2
 328.4756 248.519 l 1
 231.4055 250.9679 117.9674 233.7568 117.9674 136.9299 c 0
 117.9674 77.5131 157.2486 50.3675 202.5131 50.3675 c 0
 268.5244 50.3675 309.4489 91.7676 323.8056 133.481 c 0
 326.8056 142.9299 328.4756 152.9299 328.4756 161.5999 c 2
205.0922 692.4055 m 1
 262.1297 692.4055 l 1
 357.443 550 l 1
 293.481 550 l 1
 234.5565 645.9245 l 1
 232.5565 645.9245 l 1
 173.962 550 l 1
 111.4489 550 l 1
 205.0922 692.4055 l 1
EndSplineSet
EndChar

StartChar: adieresis
Encoding: 228 228 202
Width: 477
Flags: HW
LayerCount: 2
Fore
SplineSet
415.1885 0 m 1
 341.5678 0 l 1
 334.2378 62.2812 l 1
 331.2378 62.2812 l 1
 305.0434 24.7301 252.9245 -11 182.3133 -11 c 0
 85.2111 -11 35.8056 58.2111 35.8056 126.8377 c 0
 35.8056 243.1243 138.7622 307.811 327.0434 306.3621 c 1
 327.0434 316.5999 l 2
 327.0434 357.5511 316.2812 433.6058 214.8377 433.1569 c 0
 170.1944 433.1569 123.5511 420.1736 89.8811 397.1569 c 1
 70.8056 452.0922 l 1
 110.8323 478.1189 168.6867 494.1944 226.8865 494.1944 c 0
 373.4864 494.1944 407.9674 392.5077 407.9674 297.4756 c 2
 407.9674 115.4322 l 2
 407.9674 74.5678 409.9674 33.8056 415.1885 0 c 1
328.4756 161.5999 m 2
 328.4756 248.519 l 1
 231.4055 250.9679 117.9674 233.7568 117.9674 136.9299 c 0
 117.9674 77.5131 157.2486 50.3675 202.5131 50.3675 c 0
 268.5244 50.3675 309.4489 91.7676 323.8056 133.481 c 0
 326.8056 142.9299 328.4756 152.9299 328.4756 161.5999 c 2
147.8377 571.2812 m 0
 119 571.2812 99.4923 594.3567 99.4923 620.1944 c 0
 99.4923 647.3621 120.67 669.4376 148.6166 669.4376 c 0
 175.1243 669.4376 195.0809 647.9132 195.0809 620.1944 c 0
 195.0809 594.3567 176.1243 571.2812 147.8377 571.2812 c 0
330.7242 571.2812 m 0
 301.8865 571.2812 282.9299 594.3567 282.9299 620.1944 c 0
 282.9299 647.3621 303.5565 669.4376 331.1731 669.4376 c 0
 358.3408 669.4376 377.9674 647.9132 377.9674 620.1944 c 0
 377.9674 594.3567 359.0108 571.2812 330.7242 571.2812 c 0
EndSplineSet
EndChar

StartChar: agrave
Encoding: 224 224 203
Width: 477
Flags: HW
LayerCount: 2
Fore
SplineSet
415.1885 0 m 1
 341.5678 0 l 1
 334.2378 62.2812 l 1
 331.2378 62.2812 l 1
 305.0434 24.7301 252.9245 -11 182.3133 -11 c 0
 85.2111 -11 35.8056 58.2111 35.8056 126.8377 c 0
 35.8056 243.1243 138.7622 307.811 327.0434 306.3621 c 1
 327.0434 316.5999 l 2
 327.0434 357.5511 316.2812 433.6058 214.8377 433.1569 c 0
 170.1944 433.1569 123.5511 420.1736 89.8811 397.1569 c 1
 70.8056 452.0922 l 1
 110.8323 478.1189 168.6867 494.1944 226.8865 494.1944 c 0
 373.4864 494.1944 407.9674 392.5077 407.9674 297.4756 c 2
 407.9674 115.4322 l 2
 407.9674 74.5678 409.9674 33.8056 415.1885 0 c 1
328.4756 161.5999 m 2
 328.4756 248.519 l 1
 231.4055 250.9679 117.9674 233.7568 117.9674 136.9299 c 0
 117.9674 77.5131 157.2486 50.3675 202.5131 50.3675 c 0
 268.5244 50.3675 309.4489 91.7676 323.8056 133.481 c 0
 326.8056 142.9299 328.4756 152.9299 328.4756 161.5999 c 2
94.6433 692.4055 m 1
 186.9941 692.4055 l 1
 274.5619 550 l 1
 216.6433 550 l 1
 94.6433 692.4055 l 1
EndSplineSet
EndChar

StartChar: aring
Encoding: 229 229 204
Width: 477
Flags: HW
LayerCount: 2
Fore
SplineSet
415.1885 0 m 1
 341.5678 0 l 1
 334.2378 62.2812 l 1
 331.2378 62.2812 l 1
 305.0434 24.7301 252.9245 -11 182.3133 -11 c 0
 85.2111 -11 35.8056 58.2111 35.8056 126.8377 c 0
 35.8056 243.1243 138.7622 307.811 327.0434 306.3621 c 1
 327.0434 316.5999 l 2
 327.0434 357.5511 316.2812 433.6058 214.8377 433.1569 c 0
 170.1944 433.1569 123.5511 420.1736 89.8811 397.1569 c 1
 70.8056 452.0922 l 1
 110.8323 478.1189 168.6867 494.1944 226.8865 494.1944 c 0
 373.4864 494.1944 407.9674 392.5077 407.9674 297.4756 c 2
 407.9674 115.4322 l 2
 407.9674 74.5678 409.9674 33.8056 415.1885 0 c 1
328.4756 161.5999 m 2
 328.4756 248.519 l 1
 231.4055 250.9679 117.9674 233.7568 117.9674 136.9299 c 0
 117.9674 77.5131 157.2486 50.3675 202.5131 50.3675 c 0
 268.5244 50.3675 309.4489 91.7676 323.8056 133.481 c 0
 326.8056 142.9299 328.4756 152.9299 328.4756 161.5999 c 2
237.8865 536.8811 m 0
 179.0488 536.8811 137.8377 576.7622 137.8377 627.5244 c 0
 137.8377 679.8377 176.7188 721.7188 238.8865 721.7188 c 0
 297.1564 721.7188 336.1564 680.8377 336.1564 628.0755 c 0
 336.1564 576.0922 293.1564 536.8811 237.8865 536.8811 c 0
236.8865 573.0488 m 0
 268.5565 573.0488 289.2432 598.8377 289.2432 629.0755 c 0
 289.2432 659.8811 268.5565 685 236.1076 685 c 0
 205.3187 685 186.7509 658.4322 186.7509 627.5244 c 0
 186.7509 600.8377 206.9887 573.0488 236.8865 573.0488 c 0
EndSplineSet
EndChar

StartChar: atilde
Encoding: 227 227 205
Width: 477
Flags: HW
LayerCount: 2
Fore
SplineSet
415.1885 0 m 1
 341.5678 0 l 1
 334.2378 62.2812 l 1
 331.2378 62.2812 l 1
 305.0434 24.7301 252.9245 -11 182.3133 -11 c 0
 85.2111 -11 35.8056 58.2111 35.8056 126.8377 c 0
 35.8056 243.1243 138.7622 307.811 327.0434 306.3621 c 1
 327.0434 316.5999 l 2
 327.0434 357.5511 316.2812 433.6058 214.8377 433.1569 c 0
 170.1944 433.1569 123.5511 420.1736 89.8811 397.1569 c 1
 70.8056 452.0922 l 1
 110.8323 478.1189 168.6867 494.1944 226.8865 494.1944 c 0
 373.4864 494.1944 407.9674 392.5077 407.9674 297.4756 c 2
 407.9674 115.4322 l 2
 407.9674 74.5678 409.9674 33.8056 415.1885 0 c 1
328.4756 161.5999 m 2
 328.4756 248.519 l 1
 231.4055 250.9679 117.9674 233.7568 117.9674 136.9299 c 0
 117.9674 77.5131 157.2486 50.3675 202.5131 50.3675 c 0
 268.5244 50.3675 309.4489 91.7676 323.8056 133.481 c 0
 326.8056 142.9299 328.4756 152.9299 328.4756 161.5999 c 2
160.6754 568.0434 m 1
 115.1189 568.0434 l 1
 113.2378 631.2866 139.7622 669.3621 181.8377 669.3621 c 0
 203.151 669.3621 219.9132 660.0321 243.5999 647.2432 c 0
 259.5999 638.6921 273.151 630.811 285.9299 630.811 c 0
 301.151 630.811 311.0488 639.811 313.2699 672.9132 c 1
 358.0542 672.9132 l 1
 359.1564 608.8056 337.1998 574.5945 291.0054 574.5945 c 0
 270.0321 574.5945 251.151 583.9245 230.5999 594.9245 c 0
 210.3621 606.5945 199.2432 613.0434 187.2432 613.0434 c 0
 171.1243 613.0434 163.1243 595.4756 160.6754 568.0434 c 1
EndSplineSet
EndChar

StartChar: ccedilla
Encoding: 231 231 206
Width: 446
Flags: HW
LayerCount: 2
Fore
SplineSet
402.5244 79.5886 m 1
 417.2866 18.3567 l 1
 396.0755 7.3567 350.1677 -8.1189 290.2265 -10 c 1
 264.1998 -50.8056 l 1
 301.0809 -55.4756 333.962 -81.3567 333.962 -119.5678 c 0
 333.962 -177.7622 286.0054 -199.7622 231.151 -199.7622 c 0
 207.5244 -199.7622 180.8644 -192.7622 164.4322 -182.5511 c 1
 179.0755 -141.2812 l 1
 194.9566 -150.8323 214.8377 -155.7134 233.0755 -155.7134 c 0
 255.3133 -155.7134 277 -147.2645 276.5511 -123.3567 c 0
 275.8811 -96.4322 244.9566 -85 198.5511 -81 c 1
 240.7889 -7.67 l 1
 117.3567 7.9733 38.3567 101.8811 38.3567 236.4322 c 0
 38.3567 385.7889 140.5945 493.9733 296.5999 493.9733 c 0
 349.4322 493.9733 396.33 480.1677 419.4055 467.3888 c 1
 400.0922 404.4869 l 1
 378.0755 415.9458 344.5999 428.4114 295.6754 428.4114 c 0
 182.2052 428.4114 120.8318 343.0701 121.1618 240.6433 c 0
 121.1618 126.7676 193.9941 55.8919 292.7676 55.8919 c 0
 343.5999 55.8919 377.4055 68.9186 402.5244 79.5886 c 1
EndSplineSet
EndChar

StartChar: eacute
Encoding: 233 233 207
Width: 498
Flags: HW
LayerCount: 2
Fore
SplineSet
458.632 228.9191 m 1
 116.9674 228.9191 l 1
 118.3996 104.4376 195.6808 54.1297 285.3187 54.1297 c 0
 349.481 54.1297 387.5732 65.4864 419.1998 79.0375 c 1
 433.8431 20 l 1
 405.0488 6.8056 352.1944 -10 274.3621 -10 c 0
 127.33 -10 38.3567 88.5678 38.3567 233.3133 c 0
 38.3567 381.9679 125.7301 494.1944 264.0488 494.1944 c 0
 421.5999 494.1944 461.5131 354.1243 461.5131 268.1623 c 0
 461.5131 250.7568 460.4109 238.1302 458.632 228.9191 c 1
118.5352 288.2866 m 1
 381.9946 288.2866 l 1
 382.9946 345.5945 358.519 435.038 257.4977 435.038 c 0
 165.1564 435.038 125.3241 351.4923 118.5352 288.2866 c 1
304.2378 692.4055 m 1
 397.0375 692.4055 l 1
 274.7075 550 l 1
 216.1189 550 l 1
 304.2378 692.4055 l 1
EndSplineSet
EndChar

StartChar: ecircumflex
Encoding: 234 234 208
Width: 498
Flags: HW
LayerCount: 2
Fore
SplineSet
458.632 228.9191 m 1
 116.9674 228.9191 l 1
 118.3996 104.4376 195.6808 54.1297 285.3187 54.1297 c 0
 349.481 54.1297 387.5732 65.4864 419.1998 79.0375 c 1
 433.8431 20 l 1
 405.0488 6.8056 352.1944 -10 274.3621 -10 c 0
 127.33 -10 38.3567 88.5678 38.3567 233.3133 c 0
 38.3567 381.9679 125.7301 494.1944 264.0488 494.1944 c 0
 421.5999 494.1944 461.5131 354.1243 461.5131 268.1623 c 0
 461.5131 250.7568 460.4109 238.1302 458.632 228.9191 c 1
118.5352 288.2866 m 1
 381.9946 288.2866 l 1
 382.9946 345.5945 358.519 435.038 257.4977 435.038 c 0
 165.1564 435.038 125.3241 351.4923 118.5352 288.2866 c 1
232.1456 692.4055 m 1
 289.292 692.4055 l 1
 385.0542 550 l 1
 320.6433 550 l 1
 261.7188 645.9245 l 1
 259.7188 645.9245 l 1
 200.7943 550 l 1
 138.7301 550 l 1
 232.1456 692.4055 l 1
EndSplineSet
EndChar

StartChar: edieresis
Encoding: 235 235 209
Width: 498
Flags: HW
LayerCount: 2
Fore
SplineSet
458.632 228.9191 m 1
 116.9674 228.9191 l 1
 118.3996 104.4376 195.6808 54.1297 285.3187 54.1297 c 0
 349.481 54.1297 387.5732 65.4864 419.1998 79.0375 c 1
 433.8431 20 l 1
 405.0488 6.8056 352.1944 -10 274.3621 -10 c 0
 127.33 -10 38.3567 88.5678 38.3567 233.3133 c 0
 38.3567 381.9679 125.7301 494.1944 264.0488 494.1944 c 0
 421.5999 494.1944 461.5131 354.1243 461.5131 268.1623 c 0
 461.5131 250.7568 460.4109 238.1302 458.632 228.9191 c 1
118.5352 288.2866 m 1
 381.9946 288.2866 l 1
 382.9946 345.5945 358.519 435.038 257.4977 435.038 c 0
 165.1564 435.038 125.3241 351.4923 118.5352 288.2866 c 1
176 571.2812 m 0
 147.1623 571.2812 127.6546 594.3567 127.6546 620.1944 c 0
 127.6546 647.3621 148.8323 669.4376 176.7789 669.4376 c 0
 203.2866 669.4376 223.2432 647.9132 223.2432 620.1944 c 0
 223.2432 594.3567 204.2866 571.2812 176 571.2812 c 0
358.8865 571.2812 m 0
 330.0488 571.2812 311.0922 594.3567 311.0922 620.1944 c 0
 311.0922 647.3621 331.7188 669.4376 359.3354 669.4376 c 0
 386.5031 669.4376 406.1297 647.9132 406.1297 620.1944 c 0
 406.1297 594.3567 387.1731 571.2812 358.8865 571.2812 c 0
EndSplineSet
EndChar

StartChar: egrave
Encoding: 232 232 210
Width: 498
Flags: HW
LayerCount: 2
Fore
SplineSet
458.632 228.9191 m 1
 116.9674 228.9191 l 1
 118.3996 104.4376 195.6808 54.1297 285.3187 54.1297 c 0
 349.481 54.1297 387.5732 65.4864 419.1998 79.0375 c 1
 433.8431 20 l 1
 405.0488 6.8056 352.1944 -10 274.3621 -10 c 0
 127.33 -10 38.3567 88.5678 38.3567 233.3133 c 0
 38.3567 381.9679 125.7301 494.1944 264.0488 494.1944 c 0
 421.5999 494.1944 461.5131 354.1243 461.5131 268.1623 c 0
 461.5131 250.7568 460.4109 238.1302 458.632 228.9191 c 1
118.5352 288.2866 m 1
 381.9946 288.2866 l 1
 382.9946 345.5945 358.519 435.038 257.4977 435.038 c 0
 165.1564 435.038 125.3241 351.4923 118.5352 288.2866 c 1
136.849 692.4055 m 1
 229.3187 692.4055 l 1
 316.9887 550 l 1
 258.849 550 l 1
 136.849 692.4055 l 1
EndSplineSet
EndChar

StartChar: iacute
Encoding: 237 237 211
Width: 229
Flags: HW
LayerCount: 2
Fore
SplineSet
155.7563 0 m 1
 74.2812 0 l 1
 74.2812 483.1944 l 1
 155.7563 483.1944 l 1
 155.7563 0 l 1
155.2111 692.4055 m 1
 248.0108 692.4055 l 1
 125.6808 550 l 1
 67.0922 550 l 1
 155.2111 692.4055 l 1
EndSplineSet
EndChar

StartChar: icircumflex
Encoding: 238 238 212
Width: 229
Flags: HW
LayerCount: 2
Fore
SplineSet
155.7563 0 m 1
 74.2812 0 l 1
 74.2812 483.1944 l 1
 155.7563 483.1944 l 1
 155.7563 0 l 1
86 692.4055 m 1
 142.9186 692.4055 l 1
 238.6808 550 l 1
 174.0488 550 l 1
 115.5732 645.9245 l 1
 113.5732 645.9245 l 1
 54.6487 550 l 1
 -7.6433 550 l 1
 86 692.4055 l 1
EndSplineSet
EndChar

StartChar: idieresis
Encoding: 239 239 213
Width: 229
Flags: HW
LayerCount: 2
Fore
SplineSet
155.7563 0 m 1
 74.2812 0 l 1
 74.2812 483.1944 l 1
 155.7563 483.1944 l 1
 155.7563 0 l 1
24.0755 571.2812 m 0
 -4.7622 571.2812 -24.2699 594.3567 -24.2699 620.1944 c 0
 -24.2699 647.3621 -3.0922 669.4376 24.8544 669.4376 c 0
 51.3621 669.4376 71.3187 647.9132 71.3187 620.1944 c 0
 71.3187 594.3567 52.3621 571.2812 24.0755 571.2812 c 0
206.962 571.2812 m 0
 178.1243 571.2812 159.1677 594.3567 159.1677 620.1944 c 0
 159.1677 647.3621 179.7943 669.4376 207.4109 669.4376 c 0
 234.5786 669.4376 254.2052 647.9132 254.2052 620.1944 c 0
 254.2052 594.3567 235.2486 571.2812 206.962 571.2812 c 0
EndSplineSet
EndChar

StartChar: igrave
Encoding: 236 236 214
Width: 229
Flags: HW
LayerCount: 2
Fore
SplineSet
155.7563 0 m 1
 74.2812 0 l 1
 74.2812 483.1944 l 1
 155.7563 483.1944 l 1
 155.7563 0 l 1
-27.4322 692.4055 m 1
 65.3675 692.4055 l 1
 153.1564 550 l 1
 94.7889 550 l 1
 -27.4322 692.4055 l 1
EndSplineSet
EndChar

StartChar: ntilde
Encoding: 241 241 215
Width: 551
Flags: HW
LayerCount: 2
Fore
SplineSet
74.2812 0 m 1
 74.2812 354.7568 l 2
 74.2812 404.0434 72.8323 443.4322 70.2812 483.1944 c 1
 142.9186 483.1944 l 1
 147.7997 402.3621 l 1
 150.1297 402.3621 l 1
 174.0375 449.3133 230.8431 494.1944 310.7242 494.1944 c 0
 374.2373 494.1944 480.5886 456.8757 480.5886 288.5511 c 2
 480.5886 0 l 1
 399.4435 0 l 1
 399.4435 279.9245 l 2
 399.4435 359.3246 369.189 426.6492 284.2866 426.6492 c 0
 224.7676 426.6492 178.0108 384.4869 161.8752 333.6112 c 0
 157.8752 322.1623 155.7563 306.7134 155.7563 292.0434 c 2
 155.7563 0 l 1
 74.2812 0 l 1
200.7943 568.0434 m 1
 154.9078 568.0434 l 1
 153.3567 631.2866 179.8811 669.3621 221.9566 669.3621 c 0
 243.2699 669.3621 260.0321 660.0321 283.7188 647.2432 c 0
 299.7188 638.6921 313.2699 630.811 325.7188 630.811 c 0
 341.2699 630.811 351.0588 639.811 353.3888 672.9132 c 1
 398.0642 672.9132 l 1
 399.2753 608.8056 377.3187 574.5945 331.1243 574.5945 c 0
 310.151 574.5945 291.2699 583.9245 270.7188 594.9245 c 0
 250.151 606.5945 239.3621 613.0434 227.3621 613.0434 c 0
 211.2432 613.0434 202.9132 595.4756 200.7943 568.0434 c 1
EndSplineSet
EndChar

StartChar: oacute
Encoding: 243 243 216
Width: 545
Flags: HW
LayerCount: 2
Fore
SplineSet
276.481 494.1944 m 0
 414.7676 494.1944 507.962 393.7622 507.962 246.2111 c 0
 507.962 66.7622 383.7509 -11 268.9299 -11 c 0
 138.7622 -11 38.3567 85.1189 38.3567 237.7622 c 0
 38.3567 400.4489 144.9245 494.1944 276.481 494.1944 c 0
274.5999 432.3947 m 0
 168.1297 432.3947 121.4918 334.0701 121.4918 240.7622 c 0
 121.4918 132.4376 184.7242 50.9186 272.481 50.9186 c 0
 359.0434 50.9186 424.6058 131.5565 424.6058 243.2111 c 0
 424.6058 325.9245 381.8757 432.3947 274.5999 432.3947 c 0
309.1189 692.4055 m 1
 401.9186 692.4055 l 1
 279.5886 550 l 1
 221 550 l 1
 309.1189 692.4055 l 1
EndSplineSet
EndChar

StartChar: ocircumflex
Encoding: 244 244 217
Width: 545
Flags: HW
LayerCount: 2
Fore
SplineSet
276.481 494.1944 m 0
 414.7676 494.1944 507.962 393.7622 507.962 246.2111 c 0
 507.962 66.7622 383.7509 -11 268.9299 -11 c 0
 138.7622 -11 38.3567 85.1189 38.3567 237.7622 c 0
 38.3567 400.4489 144.9245 494.1944 276.481 494.1944 c 0
274.5999 432.3947 m 0
 168.1297 432.3947 121.4918 334.0701 121.4918 240.7622 c 0
 121.4918 132.4376 184.7242 50.9186 272.481 50.9186 c 0
 359.0434 50.9186 424.6058 131.5565 424.6058 243.2111 c 0
 424.6058 325.9245 381.8757 432.3947 274.5999 432.3947 c 0
243.3567 692.4055 m 1
 300.7242 692.4055 l 1
 396.1564 550 l 1
 331.8544 550 l 1
 272.9299 645.9245 l 1
 270.9299 645.9245 l 1
 212.0054 550 l 1
 150.1623 550 l 1
 243.3567 692.4055 l 1
EndSplineSet
EndChar

StartChar: odieresis
Encoding: 246 246 218
Width: 545
Flags: HW
LayerCount: 2
Fore
SplineSet
276.481 494.1944 m 0
 414.7676 494.1944 507.962 393.7622 507.962 246.2111 c 0
 507.962 66.7622 383.7509 -11 268.9299 -11 c 0
 138.7622 -11 38.3567 85.1189 38.3567 237.7622 c 0
 38.3567 400.4489 144.9245 494.1944 276.481 494.1944 c 0
274.5999 432.3947 m 0
 168.1297 432.3947 121.4918 334.0701 121.4918 240.7622 c 0
 121.4918 132.4376 184.7242 50.9186 272.481 50.9186 c 0
 359.0434 50.9186 424.6058 131.5565 424.6058 243.2111 c 0
 424.6058 325.9245 381.8757 432.3947 274.5999 432.3947 c 0
181.8811 571.2812 m 0
 153.0434 571.2812 133.5357 594.3567 133.5357 620.1944 c 0
 133.5357 647.3621 154.7134 669.4376 182.66 669.4376 c 0
 209.1677 669.4376 229.1243 647.9132 229.1243 620.1944 c 0
 229.1243 594.3567 210.1677 571.2812 181.8811 571.2812 c 0
364.7676 571.2812 m 0
 335.9299 571.2812 316.9733 594.3567 316.9733 620.1944 c 0
 316.9733 647.3621 337.5999 669.4376 365.2165 669.4376 c 0
 392.3842 669.4376 412.0108 647.9132 412.0108 620.1944 c 0
 412.0108 594.3567 393.0542 571.2812 364.7676 571.2812 c 0
EndSplineSet
EndChar

StartChar: ograve
Encoding: 242 242 219
Width: 545
Flags: HW
LayerCount: 2
Fore
SplineSet
276.481 494.1944 m 0
 414.7676 494.1944 507.962 393.7622 507.962 246.2111 c 0
 507.962 66.7622 383.7509 -11 268.9299 -11 c 0
 138.7622 -11 38.3567 85.1189 38.3567 237.7622 c 0
 38.3567 400.4489 144.9245 494.1944 276.481 494.1944 c 0
274.5999 432.3947 m 0
 168.1297 432.3947 121.4918 334.0701 121.4918 240.7622 c 0
 121.4918 132.4376 184.7242 50.9186 272.481 50.9186 c 0
 359.0434 50.9186 424.6058 131.5565 424.6058 243.2111 c 0
 424.6058 325.9245 381.8757 432.3947 274.5999 432.3947 c 0
146.2812 692.4055 m 1
 238.632 692.4055 l 1
 326.5298 550 l 1
 268.2812 550 l 1
 146.2812 692.4055 l 1
EndSplineSet
EndChar

StartChar: otilde
Encoding: 245 245 220
Width: 545
Flags: HW
LayerCount: 2
Fore
SplineSet
276.481 494.1944 m 0
 414.7676 494.1944 507.962 393.7622 507.962 246.2111 c 0
 507.962 66.7622 383.7509 -11 268.9299 -11 c 0
 138.7622 -11 38.3567 85.1189 38.3567 237.7622 c 0
 38.3567 400.4489 144.9245 494.1944 276.481 494.1944 c 0
274.5999 432.3947 m 0
 168.1297 432.3947 121.4918 334.0701 121.4918 240.7622 c 0
 121.4918 132.4376 184.7242 50.9186 272.481 50.9186 c 0
 359.0434 50.9186 424.6058 131.5565 424.6058 243.2111 c 0
 424.6058 325.9245 381.8757 432.3947 274.5999 432.3947 c 0
197.6921 568.0434 m 1
 151.8056 568.0434 l 1
 150.2545 631.2866 176.7789 669.3621 218.8544 669.3621 c 0
 240.1677 669.3621 256.9299 660.0321 280.6166 647.2432 c 0
 296.6166 638.6921 310.1677 630.811 322.6166 630.811 c 0
 338.1677 630.811 347.9566 639.811 350.2866 672.9132 c 1
 394.962 672.9132 l 1
 396.1731 608.8056 374.2165 574.5945 328.0221 574.5945 c 0
 307.0488 574.5945 288.1677 583.9245 267.6166 594.9245 c 0
 247.0488 606.5945 236.2599 613.0434 224.2599 613.0434 c 0
 208.141 613.0434 199.811 595.4756 197.6921 568.0434 c 1
EndSplineSet
EndChar

StartChar: scaron
Encoding: 353 353 221
Width: 392
Flags: HW
LayerCount: 2
Fore
SplineSet
40.2545 23.33 m 1
 60.67 85.4697 l 1
 87.33 68.9186 132.4977 51.3675 176.0488 51.3675 c 0
 242.1356 51.3675 272.849 84.1076 272.849 125.9566 c 0
 272.849 169.9245 246.3567 193.189 181.2111 217.9946 c 0
 95.1623 249.2057 53.5945 296.2812 53.9245 353.9512 c 0
 53.9245 430.5511 115.5244 494.1944 218.0054 494.1944 c 0
 266.4109 494.1944 308.0375 480.6433 334.4697 464.5244 c 1
 313.1564 404.1569 l 1
 294.8431 416.1569 260.3187 432.6058 214.632 432.6058 c 0
 161.2319 432.6058 132.5352 401.5357 132.5352 363.9245 c 0
 132.5352 322.4055 161.7997 303.5999 225.3675 278.9132 c 0
 307.9941 247.811 351.6808 206.1677 352.0108 133.7188 c 0
 352.0108 49.0755 285.9186 -10 173.9299 -10 c 0
 121.6433 -10 74.0167 3.33 40.2545 23.33 c 1
231.2753 550 m 1
 171.5678 550 l 1
 76.2545 692.4055 l 1
 140.4376 692.4055 l 1
 200.481 596.481 l 1
 202.481 596.481 l 1
 262.4055 692.4055 l 1
 324.9186 692.4055 l 1
 231.2753 550 l 1
EndSplineSet
EndChar

StartChar: uacute
Encoding: 250 250 222
Width: 547
Flags: HW
LayerCount: 2
Fore
SplineSet
473.3508 483.1944 m 1
 473.3508 129.8865 l 2
 473.3508 80.8377 475.1297 38.2111 477.3508 0 c 1
 404.7134 0 l 1
 400.2812 80.0434 l 1
 398.2812 80.0434 l 1
 375.4923 40.1189 323.6867 -11 237.3567 -11 c 0
 163.8002 -11 71.1623 29.2432 71.1623 201 c 2
 71.1623 483.1944 l 1
 152.3074 483.1944 l 1
 152.3074 215.2866 l 2
 152.3074 121.5298 181.8919 56.9941 263.6754 56.9941 c 0
 324.3133 56.9941 366.8323 99.6053 383.6379 140.0054 c 0
 388.3079 153.2432 392.2057 169.5999 392.2057 186.2866 c 2
 392.2057 483.1944 l 1
 473.3508 483.1944 l 1
321.3567 692.4055 m 1
 414.1564 692.4055 l 1
 291.8264 550 l 1
 233.2378 550 l 1
 321.3567 692.4055 l 1
EndSplineSet
EndChar

StartChar: ucircumflex
Encoding: 251 251 223
Width: 547
Flags: HW
LayerCount: 2
Fore
SplineSet
473.3508 483.1944 m 1
 473.3508 129.8865 l 2
 473.3508 80.8377 475.1297 38.2111 477.3508 0 c 1
 404.7134 0 l 1
 400.2812 80.0434 l 1
 398.2812 80.0434 l 1
 375.4923 40.1189 323.6867 -11 237.3567 -11 c 0
 163.8002 -11 71.1623 29.2432 71.1623 201 c 2
 71.1623 483.1944 l 1
 152.3074 483.1944 l 1
 152.3074 215.2866 l 2
 152.3074 121.5298 181.8919 56.9941 263.6754 56.9941 c 0
 324.3133 56.9941 366.8323 99.6053 383.6379 140.0054 c 0
 388.3079 153.2432 392.2057 169.5999 392.2057 186.2866 c 2
 392.2057 483.1944 l 1
 473.3508 483.1944 l 1
244.2378 692.4055 m 1
 301.6053 692.4055 l 1
 396.9186 550 l 1
 332.9566 550 l 1
 274.0321 645.9245 l 1
 272.0321 645.9245 l 1
 213.4376 550 l 1
 150.5945 550 l 1
 244.2378 692.4055 l 1
EndSplineSet
EndChar

StartChar: udieresis
Encoding: 252 252 224
Width: 547
Flags: HW
LayerCount: 2
Fore
SplineSet
473.3508 483.1944 m 1
 473.3508 129.8865 l 2
 473.3508 80.8377 475.1297 38.2111 477.3508 0 c 1
 404.7134 0 l 1
 400.2812 80.0434 l 1
 398.2812 80.0434 l 1
 375.4923 40.1189 323.6867 -11 237.3567 -11 c 0
 163.8002 -11 71.1623 29.2432 71.1623 201 c 2
 71.1623 483.1944 l 1
 152.3074 483.1944 l 1
 152.3074 215.2866 l 2
 152.3074 121.5298 181.8919 56.9941 263.6754 56.9941 c 0
 324.3133 56.9941 366.8323 99.6053 383.6379 140.0054 c 0
 388.3079 153.2432 392.2057 169.5999 392.2057 186.2866 c 2
 392.2057 483.1944 l 1
 473.3508 483.1944 l 1
185.3133 571.2812 m 0
 156.4756 571.2812 136.9679 594.3567 136.9679 620.1944 c 0
 136.9679 647.3621 158.1456 669.4376 186.0922 669.4376 c 0
 212.5999 669.4376 232.5565 647.9132 232.5565 620.1944 c 0
 232.5565 594.3567 213.5999 571.2812 185.3133 571.2812 c 0
368.1998 571.2812 m 0
 339.3621 571.2812 320.4055 594.3567 320.4055 620.1944 c 0
 320.4055 647.3621 341.0321 669.4376 368.6487 669.4376 c 0
 395.8164 669.4376 415.443 647.9132 415.443 620.1944 c 0
 415.443 594.3567 396.4864 571.2812 368.1998 571.2812 c 0
EndSplineSet
EndChar

StartChar: ugrave
Encoding: 249 249 225
Width: 547
Flags: HW
LayerCount: 2
Fore
SplineSet
473.3508 483.1944 m 1
 473.3508 129.8865 l 2
 473.3508 80.8377 475.1297 38.2111 477.3508 0 c 1
 404.7134 0 l 1
 400.2812 80.0434 l 1
 398.2812 80.0434 l 1
 375.4923 40.1189 323.6867 -11 237.3567 -11 c 0
 163.8002 -11 71.1623 29.2432 71.1623 201 c 2
 71.1623 483.1944 l 1
 152.3074 483.1944 l 1
 152.3074 215.2866 l 2
 152.3074 121.5298 181.8919 56.9941 263.6754 56.9941 c 0
 324.3133 56.9941 366.8323 99.6053 383.6379 140.0054 c 0
 388.3079 153.2432 392.2057 169.5999 392.2057 186.2866 c 2
 392.2057 483.1944 l 1
 473.3508 483.1944 l 1
141.3734 692.4055 m 1
 233.3942 692.4055 l 1
 321.5131 550 l 1
 263.3734 550 l 1
 141.3734 692.4055 l 1
EndSplineSet
EndChar

StartChar: yacute
Encoding: 253 253 226
Width: 466
Flags: HW
LayerCount: 2
Fore
SplineSet
9.5678 483.1944 m 1
 98.2373 483.1944 l 1
 207.2753 192.8752 l 2
 218.8431 160.6374 230.632 122.9674 238.7509 93.3996 c 1
 241.0809 93.3996 l 1
 250.1998 122.5185 260.7676 159.1885 273.1243 194.9941 c 2
 371.9512 483.1944 l 1
 458.9674 483.1944 l 1
 324.8806 136.6487 l 2
 262.8051 -27 220.0429 -112.4756 159.3562 -165.1623 c 0
 116.9507 -202.1189 75.6808 -217 55.1998 -221 c 1
 34.3621 -152.3626 l 1
 56.9299 -145.1248 86.2866 -130.7681 112.8544 -107.3947 c 0
 136.5244 -87.9191 166.4322 -52.8757 187.2378 -6.4489 c 0
 191.5678 3.4489 194.1189 9.5511 194.1189 14.8811 c 0
 194.1189 19.8811 192.4489 26.4322 187.7889 37.3133 c 2
 9.5678 483.1944 l 1
284.1677 692.4055 m 1
 376.9674 692.4055 l 1
 254.6374 550 l 1
 196.0488 550 l 1
 284.1677 692.4055 l 1
EndSplineSet
EndChar

StartChar: ydieresis
Encoding: 255 255 227
Width: 466
Flags: HW
LayerCount: 2
Fore
SplineSet
9.5678 483.1944 m 1
 98.2373 483.1944 l 1
 207.2753 192.8752 l 2
 218.8431 160.6374 230.632 122.9674 238.7509 93.3996 c 1
 241.0809 93.3996 l 1
 250.1998 122.5185 260.7676 159.1885 273.1243 194.9941 c 2
 371.9512 483.1944 l 1
 458.9674 483.1944 l 1
 324.8806 136.6487 l 2
 262.8051 -27 220.0429 -112.4756 159.3562 -165.1623 c 0
 116.9507 -202.1189 75.6808 -217 55.1998 -221 c 1
 34.3621 -152.3626 l 1
 56.9299 -145.1248 86.2866 -130.7681 112.8544 -107.3947 c 0
 136.5244 -87.9191 166.4322 -52.8757 187.2378 -6.4489 c 0
 191.5678 3.4489 194.1189 9.5511 194.1189 14.8811 c 0
 194.1189 19.8811 192.4489 26.4322 187.7889 37.3133 c 2
 9.5678 483.1944 l 1
153.5999 571.2812 m 0
 124.7622 571.2812 104.9245 594.3567 104.9245 620.1944 c 0
 104.9245 647.3621 126.8811 669.4376 154.0488 669.4376 c 0
 180.5565 669.4376 200.962 647.9132 200.962 620.1944 c 0
 200.962 594.3567 182.0054 571.2812 153.5999 571.2812 c 0
336.1564 571.2812 m 0
 307.3187 571.2812 288.3621 594.3567 288.3621 620.1944 c 0
 288.3621 647.3621 308.9887 669.4376 337.1564 669.4376 c 0
 363.773 669.4376 383.7296 647.9132 383.7296 620.1944 c 0
 383.7296 594.3567 364.9941 571.2812 336.1564 571.2812 c 0
EndSplineSet
EndChar

StartChar: zcaron
Encoding: 382 382 228
Width: 423
Flags: HW
LayerCount: 2
Fore
SplineSet
17.7622 0 m 1
 17.7622 47.7242 l 1
 242.3893 341.0326 l 2
 263.3626 367.0059 282.7948 389.887 304.7681 415.6492 c 1
 304.7681 417.6492 l 1
 37.5511 417.6492 l 1
 37.5511 483.1944 l 1
 403.962 483.1944 l 1
 403.292 431.9191 l 1
 180.6482 141.594 l 2
 160.6749 115.7296 141.0316 91.7563 120.2861 67.3241 c 1
 120.2861 65.3241 l 1
 407.2753 65.3241 l 1
 407.2753 0 l 1
 17.7622 0 l 1
255.962 550 m 1
 196.2545 550 l 1
 100.9412 692.4055 l 1
 165.1243 692.4055 l 1
 225.1677 596.481 l 1
 227.1677 596.481 l 1
 287.0922 692.4055 l 1
 349.6053 692.4055 l 1
 255.962 550 l 1
EndSplineSet
EndChar

StartChar: Dcroat
Encoding: 272 272 229
Width: 667
Flags: HW
LayerCount: 2
Fore
SplineSet
-1.9078 309.4435 m 1
 -1.9078 374.4376 l 1
 81.4756 374.4376 l 1
 81.4756 667 l 1
 134.2378 676 196.6433 682 264.2699 682 c 0
 388.811 682 478.8377 652.0755 537.481 596.2699 c 0
 596.7676 541.481 631.1731 462.9566 631.1731 353 c 0
 631.1731 244.0868 597.6754 154.3079 535.5732 91.1623 c 0
 472.2699 27.5945 368.4055 -7.2111 238.0755 -7.2111 c 0
 177.3734 -7.2111 125.9512 -5 81.4756 0 c 1
 81.4756 309.4435 l 1
 -1.9078 309.4435 l 1
347.1677 374.4376 m 1
 347.1677 309.4435 l 1
 162.3996 309.4435 l 1
 162.3996 62.6808 l 1
 185.443 59.2319 218.6053 58.5619 253.3354 58.5619 c 0
 444.9946 58.5619 546.1569 164.3621 546.1569 352.5678 c 0
 546.8269 515.0868 456.2324 616.887 267.4376 616.887 c 0
 221.2753 616.887 186.443 612.4381 162.3996 607.6492 c 1
 162.3996 374.4376 l 1
 347.1677 374.4376 l 1
EndSplineSet
EndChar

StartChar: Eng
Encoding: 330 330 230
Width: 654
Flags: HW
LayerCount: 2
Fore
SplineSet
153.113 0 m 1
 77.0434 0 l 1
 77.0434 674 l 1
 164.4484 674 l 1
 387.6867 324.5727 l 2
 437.8323 244.6482 476.8323 174.9294 508.9512 106.405 c 1
 510.9512 107.075 l 1
 503.4001 197.5239 501.519 278.9294 501.519 383.7183 c 2
 501.519 674 l 1
 578.3675 674 l 1
 578.3675 37.2866 l 2
 578.3675 -102.4643 515.151 -178.2432 388.5244 -197.481 c 1
 371.5945 -133.9191 l 1
 453.3246 -117.9191 494.0113 -78.189 500.4435 -4.9566 c 1
 276.0375 349.265 l 2
 229.0108 425.2817 183.5619 501.5683 149.443 573.7627 c 1
 146.8919 572.7627 l 1
 151.8919 488.0005 153.113 407.9517 153.113 296.2817 c 2
 153.113 0 l 1
EndSplineSet
EndChar

StartChar: Hbar
Encoding: 294 294 231
Width: 652
Flags: HW
LayerCount: 2
Fore
SplineSet
630.5185 479.9245 m 1
 573.9941 479.9245 l 1
 573.9941 0 l 1
 492.849 0 l 1
 492.849 306.3192 l 1
 159.7296 306.3192 l 1
 159.7296 0 l 1
 78.8056 0 l 1
 78.8056 479.9245 l 1
 22.2812 479.9245 l 1
 22.2812 534.5565 l 1
 78.8056 534.5565 l 1
 78.8056 674 l 1
 159.7296 674 l 1
 159.7296 534.5565 l 1
 492.849 534.5565 l 1
 492.849 674 l 1
 573.9941 674 l 1
 573.9941 534.5565 l 1
 630.5185 534.5565 l 1
 630.5185 479.9245 l 1
492.849 375.8377 m 1
 492.849 479.9245 l 1
 159.7296 479.9245 l 1
 159.7296 375.8377 l 1
 492.849 375.8377 l 1
EndSplineSet
EndChar

StartChar: Tbar
Encoding: 358 358 232
Width: 491
Flags: HW
LayerCount: 2
Fore
SplineSet
494.8431 605.6926 m 1
 286.5185 605.6926 l 1
 286.5185 377.8811 l 1
 411.5619 377.8811 l 1
 411.5619 322.9191 l 1
 286.5185 322.9191 l 1
 286.5185 0 l 1
 204.9245 0 l 1
 204.9245 322.9191 l 1
 79.5511 322.9191 l 1
 79.5511 377.8811 l 1
 204.9245 377.8811 l 1
 204.9245 605.6926 l 1
 -2.0701 605.6926 l 1
 -2.0701 674 l 1
 494.8431 674 l 1
 494.8431 605.6926 l 1
EndSplineSet
EndChar

StartChar: uni021C
Encoding: 540 540 233
Width: 474
Flags: HW
LayerCount: 2
Fore
SplineSet
61.3888 -113.8377 m 1
 51.1944 -49.2758 l 1
 217.3626 -24.3246 350.2812 63.7622 350.2812 182.8056 c 0
 350.2812 258.5891 295.6433 318.7514 200.481 318.0814 c 0
 179.481 318.0814 140.9566 311.0814 106.5077 300.0814 c 1
 96.0922 358.4489 l 1
 210.4001 385.0434 297.9245 447.0868 297.9245 526.4435 c 0
 297.9245 582.5136 251.2111 619.4381 184.5999 619.4381 c 0
 130.3621 619.4381 71.5565 596.5303 47.481 583.7681 c 1
 30.1944 637.9078 l 1
 61.2432 657.8811 132.4543 685 199.4109 685 c 0
 306.9186 685 379.5185 625.4489 379.5185 538.5945 c 0
 379.5185 463.3567 323.7129 405.3567 256.2807 374.0267 c 1
 256.2807 371.3567 l 1
 357.6374 362.0434 435.8485 295.6867 435.8485 188.2378 c 0
 435.8485 36.3246 291.7188 -85.6487 61.3888 -113.8377 c 1
EndSplineSet
EndChar

StartChar: dcroat
Encoding: 273 273 234
Width: 560
Flags: HW
LayerCount: 2
Fore
SplineSet
563.5619 552.8323 m 1
 486.3508 552.8323 l 1
 486.3508 123.1243 l 2
 486.3508 80.9566 488.1297 33.4489 490.3508 0 c 1
 417.2812 0 l 1
 413.4001 84.8323 l 1
 411.4001 84.8323 l 1
 384.6379 31.2812 326.5357 -11 245.6867 -11 c 0
 128.5678 -11 38.3567 88 38.3567 234.1944 c 0
 37.3567 395.4055 137.5678 494.1944 255.2378 494.1944 c 0
 330.9679 494.1944 381.2057 457.9132 403.2057 419.0054 c 1
 405.2057 419.0054 l 1
 405.2057 552.8323 l 1
 205.9078 552.8323 l 1
 205.9078 605.481 l 1
 405.2057 605.481 l 1
 405.2057 710 l 1
 486.3508 710 l 1
 486.3508 605.481 l 1
 563.5619 605.481 l 1
 563.5619 552.8323 l 1
405.2057 201.5999 m 2
 405.2057 287.3567 l 2
 405.2057 298.9245 403.7568 314.2812 401.0868 325.849 c 0
 386.9512 382.8002 338.33 430.0814 270.2432 430.0814 c 0
 176.9186 430.0814 120.8318 348.4435 120.8318 238.6433 c 0
 120.8318 139.1243 170.2052 55.3241 268.1243 55.3241 c 0
 328.6433 55.3241 383.8323 95.3675 400.7568 163.3621 c 0
 403.7568 175.481 405.2057 187.481 405.2057 201.5999 c 2
EndSplineSet
EndChar

StartChar: eng
Encoding: 331 331 235
Width: 551
Flags: HW
LayerCount: 2
Fore
SplineSet
74.2812 0 m 1
 74.2812 354.7568 l 2
 74.2812 404.0434 72.8323 443.4322 70.2812 483.1944 c 1
 142.9186 483.1944 l 1
 147.7997 402.3621 l 1
 150.1297 402.3621 l 1
 174.0375 449.3133 230.8431 494.1944 310.7242 494.1944 c 0
 374.2373 494.1944 480.5886 456.8757 480.5886 288.5511 c 2
 480.5886 59 l 2
 480.5886 -92.5565 398.632 -161.9132 293.0054 -177.481 c 1
 277.2866 -111.5891 l 1
 358.4923 -95.2324 399.4435 -43.2545 399.4435 52.519 c 2
 399.4435 279.9245 l 2
 399.4435 359.3246 369.189 426.6492 284.2866 426.6492 c 0
 224.7676 426.6492 178.0108 384.4869 161.8752 333.6112 c 0
 157.8752 322.1623 155.7563 306.7134 155.7563 292.0434 c 2
 155.7563 0 l 1
 74.2812 0 l 1
EndSplineSet
EndChar

StartChar: hbar
Encoding: 295 295 236
Width: 551
Flags: HW
LayerCount: 2
Fore
SplineSet
480.5886 0 m 1
 399.4435 0 l 1
 399.4435 279.0434 l 2
 399.4435 358.7735 369.189 426.3192 284.4055 426.3192 c 0
 225.4376 426.3192 178.6808 384.9191 161.8752 335.1623 c 0
 157.2052 322.9245 155.7563 309.4756 155.7563 292.5678 c 2
 155.7563 0 l 1
 74.2812 0 l 1
 74.2812 552.8323 l 1
 -3.0488 552.8323 l 1
 -3.0488 605.481 l 1
 74.2812 605.481 l 1
 74.2812 710 l 1
 155.7563 710 l 1
 155.7563 605.481 l 1
 350.3675 605.481 l 1
 350.3675 552.8323 l 1
 155.7563 552.8323 l 1
 155.7563 405.6754 l 1
 157.7563 405.6754 l 1
 172.0863 430.9132 194.2052 454.0488 221.443 469.2866 c 0
 247.2319 484.5244 278.4697 494.1944 312.6053 494.1944 c 0
 374.5673 494.1944 480.5886 456.8757 480.5886 288.5678 c 2
 480.5886 0 l 1
EndSplineSet
EndChar

StartChar: kgreenlandic
Encoding: 312 312 237
Width: 461
Flags: HW
LayerCount: 2
Fore
SplineSet
155.2052 483.1944 m 1
 155.2052 259.7943 l 1
 157.2052 259.7943 l 1
 169.2052 276.5565 186.5619 298.0054 200.6808 314.5565 c 2
 346.8811 483.1944 l 1
 445.1939 483.1944 l 1
 257.3616 284.1944 l 1
 471.6428 0 l 1
 372.1189 0 l 1
 201.0108 235.368 l 1
 155.2052 184.8002 l 1
 155.2052 0 l 1
 74.2812 0 l 1
 74.2812 483.1944 l 1
 155.2052 483.1944 l 1
EndSplineSet
EndChar

StartChar: napostrophe
Encoding: 329 329 238
Width: 551
Flags: HW
LayerCount: 2
Fore
SplineSet
54.2432 537.1623 m 1
 19.4923 565 l 1
 36.0434 583.4055 56.519 607.8377 56.519 646.6433 c 0
 56.519 669.7622 42.6112 692.33 24.8056 705.8811 c 1
 85.6487 721.9566 l 1
 102.4376 711.9566 120.8865 685.4055 120.8865 650.6433 c 0
 120.8865 583.8811 70.0054 548.9245 54.2432 537.1623 c 1
74.2812 0 m 1
 74.2812 354.7568 l 2
 74.2812 404.0434 72.8323 443.4322 70.2812 483.1944 c 1
 142.9186 483.1944 l 1
 147.7997 402.3621 l 1
 150.1297 402.3621 l 1
 174.0375 449.3133 230.8431 494.1944 310.7242 494.1944 c 0
 374.2373 494.1944 480.5886 456.8757 480.5886 288.5511 c 2
 480.5886 0 l 1
 399.4435 0 l 1
 399.4435 279.9245 l 2
 399.4435 359.3246 369.189 426.6492 284.2866 426.6492 c 0
 224.7676 426.6492 178.0108 384.4869 161.8752 333.6112 c 0
 157.8752 322.1623 155.7563 306.7134 155.7563 292.0434 c 2
 155.7563 0 l 1
 74.2812 0 l 1
EndSplineSet
EndChar

StartChar: tbar
Encoding: 359 359 239
Width: 327
Flags: HW
LayerCount: 2
Fore
SplineSet
301.8431 420.9625 m 1
 173.8752 420.9625 l 1
 173.8752 301.6433 l 1
 273.7242 301.6433 l 1
 273.7242 249.8757 l 1
 173.8752 249.8757 l 1
 173.8752 152.2486 l 2
 173.8752 92.1297 191.443 56.8752 240.6808 56.8752 c 0
 263.9186 56.8752 281.0375 60.3241 292.4864 63.773 c 1
 296.7242 1.5511 l 1
 279.8431 -5 253.4376 -10 220.0321 -10 c 0
 180.4055 -10 147.5511 2.7622 127.2378 26.6433 c 0
 103.2545 52.8544 93.7134 94.8377 93.7134 150.5565 c 2
 93.7134 249.8757 l 1
 26.4756 249.8757 l 1
 26.4756 301.6433 l 1
 93.7134 301.6433 l 1
 93.7134 420.9625 l 1
 17.67 420.9625 l 1
 17.67 483.1944 l 1
 93.7134 483.1944 l 1
 93.7134 600.8056 l 1
 173.8752 622.1944 l 1
 173.8752 483.1944 l 1
 301.8431 483.1944 l 1
 301.8431 420.9625 l 1
EndSplineSet
EndChar

StartChar: uni021D
Encoding: 541 541 240
Width: 422
Flags: HW
LayerCount: 2
Fore
SplineSet
43.1944 -209 m 1
 35.1189 -145.4381 l 1
 71.3621 -142.7681 312.7735 -111.8436 312.7735 46.7622 c 0
 312.7735 108.0868 271.2378 159.0113 181.3133 159.0113 c 0
 153.2866 159.0113 120.5244 151.2324 93.0755 143.6813 c 1
 81.4489 202.2699 l 1
 189.9679 228.5244 267.0701 269 267.0701 343.519 c 0
 267.0701 397.368 226.4756 430.0814 161.3133 430.0814 c 0
 109.9566 430.0814 61.0488 404.2758 37.4055 391.8436 c 1
 20.1189 445.4322 l 1
 56.1944 469.0755 116.481 494.1944 180.5565 494.1944 c 0
 280.0375 494.1944 347.0108 440.6433 347.0108 357.4489 c 0
 347.0108 290.9733 302.9674 241.0488 239.9941 216.4055 c 1
 239.9941 213.4055 l 1
 332.773 203.1944 395.6808 144.9733 395.6808 55.9566 c 0
 395.6808 -70.3187 278.7568 -188.2699 43.1944 -209 c 1
EndSplineSet
EndChar

StartChar: IJ
Encoding: 306 306 241
Width: 600
Flags: HW
LayerCount: 2
Fore
SplineSet
77.0434 674 m 1
 157.9674 674 l 1
 157.9674 0 l 1
 77.0434 0 l 1
 77.0434 674 l 1
449.7509 228.6921 m 2
 449.7509 674 l 1
 531.4538 674 l 1
 531.4538 221.3354 l 2
 531.4538 43.1677 444.0316 -11 330.9507 -11 c 0
 298.9674 -11 260.443 -3.8811 239.3675 5 c 1
 251.6808 70.8752 l 1
 269.5619 64.2052 295.443 57.7563 325.443 57.7563 c 0
 404.1731 57.7563 449.7509 94.0108 449.7509 228.6921 c 2
EndSplineSet
EndChar

StartChar: f_f
Encoding: 64256 64256 242
Width: 576
Flags: HW
LayerCount: 2
Fore
SplineSet
452.5239 0 m 1
 370.5999 0 l 1
 370.5999 420.9625 l 1
 163.1618 420.9625 l 1
 163.1618 0 l 1
 82.2378 0 l 1
 82.2378 420.9625 l 1
 14.4489 420.9625 l 1
 14.4489 483.1944 l 1
 82.2378 483.1944 l 1
 82.2378 499.67 l 2
 82.2378 569.1623 98.3567 627.8323 136.1189 665.5945 c 0
 163.4322 693.6867 202.8377 710 255.4376 710 c 0
 283.6754 710 310.1243 701.2111 324.6754 693.0922 c 1
 306.9132 632.0814 l 1
 293.7943 638.6492 274.4376 644.887 253.962 644.887 c 0
 182.9674 644.887 162.8318 583.5624 162.8318 505.33 c 2
 162.8318 483.1944 l 1
 370.5999 483.1944 l 1
 370.5999 506.8811 l 2
 370.5999 575.9245 386.481 637.3567 426.7943 676.6867 c 0
 459.4376 708 502.5131 721 542.6053 721 c 0
 574.4864 721 600.4864 714.2111 617.2486 706.7622 c 1
 605.443 643.3192 l 1
 591.443 649.4381 574.3241 655.0059 547.9674 655.0059 c 0
 471.075 655.0059 451.9728 586.7735 451.9728 509.3133 c 2
 451.9728 483.1944 l 1
 570.2807 483.1944 l 1
 570.2807 420.9625 l 1
 452.5239 420.9625 l 1
 452.5239 0 l 1
EndSplineSet
EndChar

StartChar: f_f_i
Encoding: 64259 64259 243
Width: 806
Flags: HW
LayerCount: 2
Fore
SplineSet
697.7617 690.0922 m 1
 672.5673 628.2003 l 1
 650.6862 641.9892 614.6862 655.0059 574.3562 655.0059 c 0
 480.405 655.0059 452.8539 587.5624 452.8539 507.67 c 2
 452.8539 483.1944 l 1
 732.556 483.1944 l 1
 732.556 0 l 1
 651.4109 0 l 1
 651.4109 420.9625 l 1
 453.405 420.9625 l 1
 453.405 0 l 1
 371.481 0 l 1
 371.481 420.9625 l 1
 163.1618 420.9625 l 1
 163.1618 0 l 1
 82.2378 0 l 1
 82.2378 420.9625 l 1
 14.4489 420.9625 l 1
 14.4489 483.1944 l 1
 82.2378 483.1944 l 1
 82.2378 502.5678 l 2
 82.2378 563.3567 98.1189 622.3567 139.8811 663.6867 c 0
 167.6433 691.7889 208.8377 710 261.5565 710 c 0
 294.8865 710 328.6754 697.7622 347.0054 688.3133 c 1
 323.5999 627.5136 l 1
 307.9132 636.5303 284.1076 645.4381 261.0809 645.4381 c 0
 232.4864 645.4381 211.6808 635.6492 196.773 618.8436 c 0
 171.3996 591.8002 162.8318 546.7301 162.8318 502.4322 c 2
 162.8318 483.1944 l 1
 371.481 483.1944 l 1
 371.481 510.4489 l 2
 371.481 637.1944 444.6808 721 578.8318 721 c 0
 622.594 721 672.5673 707.4322 697.7617 690.0922 c 1
EndSplineSet
EndChar

StartChar: f_f_j
Encoding: 57347 57347 244
Width: 801
Flags: HW
LayerCount: 2
Fore
SplineSet
697.7617 690.0922 m 1
 672.5673 628.2003 l 1
 650.6862 641.9892 614.6862 655.0059 574.3562 655.0059 c 0
 480.405 655.0059 452.8539 587.5624 452.8539 507.67 c 2
 452.8539 483.1944 l 1
 732.556 483.1944 l 1
 732.556 43.2432 l 2
 732.556 -49.4756 718.9294 -110.2378 675.7183 -154.6867 c 0
 637.9728 -193.5678 574.4484 -208.5511 529.5619 -209 c 1
 520.9186 -144.557 l 1
 561.4864 -142.0059 596.2753 -130.1081 617.3942 -106.8703 c 0
 641.5131 -78.9625 651.4109 -40.9625 651.4109 76.6754 c 2
 651.4109 420.9625 l 1
 453.405 420.9625 l 1
 453.405 0 l 1
 371.481 0 l 1
 371.481 420.9625 l 1
 163.1618 420.9625 l 1
 163.1618 0 l 1
 82.2378 0 l 1
 82.2378 420.9625 l 1
 14.4489 420.9625 l 1
 14.4489 483.1944 l 1
 82.2378 483.1944 l 1
 82.2378 502.5678 l 2
 82.2378 563.3567 98.1189 622.3567 139.8811 663.6867 c 0
 167.6433 691.7889 208.8377 710 261.5565 710 c 0
 294.8865 710 328.6754 697.7622 347.0054 688.3133 c 1
 323.5999 627.5136 l 1
 307.9132 636.5303 284.1076 645.4381 261.0809 645.4381 c 0
 232.4864 645.4381 211.6808 635.6492 196.773 618.8436 c 0
 171.3996 591.8002 162.8318 546.7301 162.8318 502.4322 c 2
 162.8318 483.1944 l 1
 371.481 483.1944 l 1
 371.481 510.4489 l 2
 371.481 637.1944 444.6808 721 578.8318 721 c 0
 622.594 721 672.5673 707.4322 697.7617 690.0922 c 1
EndSplineSet
EndChar

StartChar: f_f_l
Encoding: 64260 64260 245
Width: 806
Flags: HW
LayerCount: 2
Fore
SplineSet
346.8865 691.3133 m 1
 324.0321 629.6325 l 1
 306.1243 639.3192 284.3187 645.4381 262.632 645.4381 c 0
 233.4864 645.4381 212.0108 635.6492 196.773 618.5136 c 0
 171.3996 592.2491 162.8318 549.4001 162.8318 503.4322 c 2
 162.8318 483.1944 l 1
 371.481 483.1944 l 1
 371.481 504.1944 l 2
 371.481 573.2545 394.7943 632.6867 439.6754 672.8056 c 0
 476.4109 704 525.2486 721 591.7563 721 c 0
 646.5673 721 697.6161 709.1189 733.0049 690.0434 c 1
 733.0049 0 l 1
 651.632 0 l 1
 651.632 644.0814 l 1
 636.1731 651.7514 613.1564 657.3192 578.0108 657.3192 c 0
 483.7617 657.3192 452.8539 587.8757 452.8539 508.33 c 2
 452.8539 483.1944 l 1
 568.5185 483.1944 l 1
 568.5185 420.9625 l 1
 453.405 420.9625 l 1
 453.405 0 l 1
 371.481 0 l 1
 371.481 420.9625 l 1
 163.1618 420.9625 l 1
 163.1618 0 l 1
 82.2378 0 l 1
 82.2378 420.9625 l 1
 14.4489 420.9625 l 1
 14.4489 483.1944 l 1
 82.2378 483.1944 l 1
 82.2378 495.8811 l 2
 82.2378 558.3133 96.2111 620.7889 137.8811 662.4756 c 0
 167.9566 692.4489 211.7943 710 265.7509 710 c 0
 298.7676 710 331.5565 698.7622 346.8865 691.3133 c 1
EndSplineSet
EndChar

StartChar: f_i
Encoding: 65537 -1 246
Width: 516
Flags: HW
LayerCount: 2
Fore
SplineSet
163.1618 0 m 1
 82.2378 0 l 1
 82.2378 420.9625 l 1
 14.4489 420.9625 l 1
 14.4489 483.1944 l 1
 82.2378 483.1944 l 1
 82.2378 510.4489 l 2
 82.2378 637.1944 154.4376 721 289.3675 721 c 0
 333.5619 721 385.5185 706.8811 410.1618 688.8811 c 1
 385.8485 626.7681 l 1
 364.6374 641.1081 327.0863 655.0059 284.443 655.0059 c 0
 190.6107 655.0059 162.8318 587.5624 162.8318 507.67 c 2
 162.8318 483.1944 l 1
 443.0917 483.1944 l 1
 443.0917 0 l 1
 361.3888 0 l 1
 361.3888 420.9625 l 1
 163.1618 420.9625 l 1
 163.1618 0 l 1
EndSplineSet
EndChar

StartChar: f_j
Encoding: 57348 57348 247
Width: 515
Flags: HW
LayerCount: 2
Fore
SplineSet
163.1618 0 m 1
 82.2378 0 l 1
 82.2378 420.9625 l 1
 14.4489 420.9625 l 1
 14.4489 483.1944 l 1
 82.2378 483.1944 l 1
 82.2378 510.4489 l 2
 82.2378 637.1944 154.4376 721 289.3675 721 c 0
 333.5619 721 385.5185 706.8811 410.1618 688.8811 c 1
 385.8485 626.7681 l 1
 364.6374 641.1081 327.0863 655.0059 284.443 655.0059 c 0
 190.6107 655.0059 162.8318 587.5624 162.8318 507.67 c 2
 162.8318 483.1944 l 1
 443.0917 483.1944 l 1
 443.0917 43.2432 l 2
 443.0917 -49.4756 428.6862 -110.2378 386.254 -154.6867 c 0
 347.9507 -193.5678 284.2052 -208.5511 239.7676 -209 c 1
 231.1243 -144.557 l 1
 271.7943 -142.0059 306.3621 -130.1081 327.151 -106.8703 c 0
 351.7188 -78.9625 361.3888 -40.9625 361.3888 76.6754 c 2
 361.3888 420.9625 l 1
 163.1618 420.9625 l 1
 163.1618 0 l 1
EndSplineSet
EndChar

StartChar: f_l
Encoding: 65538 -1 248
Width: 516
Flags: HW
LayerCount: 2
Fore
SplineSet
163.1618 0 m 1
 82.2378 0 l 1
 82.2378 420.9625 l 1
 14.4489 420.9625 l 1
 14.4489 483.1944 l 1
 82.2378 483.1944 l 1
 82.2378 504.1944 l 2
 82.2378 573.2545 105 632.6867 149.7622 672.8056 c 0
 186.7188 704 235.2265 721 302.292 721 c 0
 356.773 721 407.594 709.1189 443.0917 690.0434 c 1
 443.0917 0 l 1
 361.8377 0 l 1
 361.8377 644.0814 l 1
 346.151 651.7514 323.2432 657.3192 288.4376 657.3192 c 0
 193.9674 657.3192 162.8318 587.8757 162.8318 508.33 c 2
 162.8318 483.1944 l 1
 278.7242 483.1944 l 1
 278.7242 420.9625 l 1
 163.1618 420.9625 l 1
 163.1618 0 l 1
EndSplineSet
EndChar

StartChar: ij
Encoding: 307 307 249
Width: 468
Flags: HW
LayerCount: 2
Fore
SplineSet
155.7563 0 m 1
 74.2812 0 l 1
 74.2812 483.1944 l 1
 155.7563 483.1944 l 1
 155.7563 0 l 1
115.2432 672.7676 m 0
 146.7242 672.7676 166.6808 649.3621 167.0108 619.6433 c 0
 167.2319 590.9245 146.7242 567.519 113.5732 567.519 c 0
 83.3133 567.519 62.8056 590.9245 62.8056 619.6433 c 0
 62.8056 648.9132 84.7622 672.7676 115.2432 672.7676 c 0
192.8752 -209 m 1
 184.0108 -144.557 l 1
 225.1297 -142.0059 259.3675 -130.1081 280.4864 -106.8703 c 0
 304.6053 -78.9625 314.7242 -40.9625 314.7242 76.6754 c 2
 314.7242 483.1944 l 1
 395.8693 483.1944 l 1
 395.8693 43.2432 l 2
 395.8693 -49.4756 382.2427 -110.2378 339.3616 -154.6867 c 0
 301.2861 -193.5678 237.7617 -208.5511 192.8752 -209 c 1
356.3562 672.7676 m 0
 387.1672 672.7676 407.1238 648.9132 407.1238 619.6433 c 0
 407.1238 591.9245 387.8372 567.519 353.9073 567.519 c 0
 323.2052 567.519 303.2486 591.9245 303.2486 619.6433 c 0
 303.2486 648.9132 324.8752 672.7676 356.3562 672.7676 c 0
EndSplineSet
EndChar

StartChar: zero.slash
Encoding: 63032 63032 250
Width: 509
Flags: HW
LayerCount: 2
Fore
SplineSet
142.0375 161.4484 m 1
 347.5678 545.3947 l 1
 326.6433 577.8703 296.1677 597.4381 254.7943 597.4381 c 0
 170.5886 597.4381 117.0863 489.8757 115.9674 328.1189 c 0
 115.9674 262.0809 124.773 205.8485 142.0375 161.4484 c 1
371 487.6438 m 1
 165.3675 102.6053 l 1
 187.7242 70.2486 216.9887 53.0108 253.1243 53.0108 c 0
 346.9245 53.0108 392.9512 160.481 392.9512 328.1189 c 0
 392.9512 388.9191 386.0434 443.0326 371 487.6438 c 1
260.3621 661 m 0
 394.0863 661 473.1297 542.038 473.1297 331.9078 c 0
 473.1297 109.481 390.2319 -11 248.8865 -11 c 0
 125.9679 -11 38.3567 104.632 36.2378 322.5511 c 0
 36.2378 543.8002 132.0868 661 260.3621 661 c 0
EndSplineSet
EndChar

StartChar: Euro
Encoding: 8364 8364 251
Width: 509
Flags: HW
LayerCount: 2
Fore
SplineSet
477.0054 90.1297 m 1
 493.5298 31.2378 l 1
 462.7676 10.1189 410.7943 -11 345.0054 -11 c 0
 265.1944 -11 194.8323 19.4055 145.6379 75.8865 c 0
 106.9245 118.0321 81.1189 177.8811 72.5678 251.519 c 1
 10.3567 251.519 l 1
 10.3567 299.0922 l 1
 67.4756 299.0922 l 1
 67.4756 303.6433 67.4756 308.9733 67.4756 313.5244 c 0
 67.4756 329.5511 68.4756 345.2378 69.4756 359.5945 c 1
 10.3567 359.5945 l 1
 10.3567 407.7188 l 1
 76.6867 407.7188 l 1
 88.2378 479.2378 118.5945 537.9512 159.9679 579.7568 c 0
 210.1623 631.4756 273.7622 661 354.0321 661 c 0
 413.811 661 458.8865 644.2111 486.292 628.8811 c 1
 466.8865 566.9892 l 1
 441.5565 582.557 399.8865 595.557 354.8865 595.557 c 0
 300.4109 595.557 255.962 576.4381 221.3942 541.0059 c 0
 190.3241 510.7247 169.2807 463.4001 159.0429 407.7188 c 1
 440.962 407.7188 l 1
 440.962 359.5945 l 1
 150.8485 359.5945 l 1
 149.0696 346.3567 148.8485 331.4489 148.8485 316.7622 c 0
 148.8485 310.3133 148.8485 305.3133 148.8485 299.0922 c 1
 440.962 299.0922 l 1
 440.962 251.519 l 1
 154.924 251.519 l 1
 163.0429 190.8377 183.1885 146.0809 212.2486 114.7997 c 0
 249.1564 75.113 299.3942 56.3241 354.0809 56.3241 c 0
 408.0054 56.3241 453.5565 76.2319 477.0054 90.1297 c 1
EndSplineSet
EndChar

StartChar: Aringacute
Encoding: 506 506 252
Width: 607
Flags: HW
LayerCount: 2
Fore
SplineSet
310.0321 691.5511 m 0
 255.1944 691.5511 221 725.5244 221 767.7188 c 0
 221 810.3621 254.6433 845.5565 311.0321 845.5565 c 0
 365.632 845.5565 398.5131 810.9132 398.5131 767.7188 c 0
 398.5131 724.1944 363.0809 691.5511 310.0321 691.5511 c 0
309.0321 727.5999 m 0
 336.3621 727.5999 353.481 743.5999 353.481 768.7188 c 0
 353.481 792.2866 336.3621 811.2866 308.481 811.2866 c 0
 281.481 811.2866 265.9132 790.8377 265.9132 767.7188 c 0
 265.9132 745.5999 283.481 727.5999 309.0321 727.5999 c 0
365.7889 949.9787 m 1
 474.9941 949.9787 l 1
 333.1297 864.0054 l 1
 260.2378 864.0054 l 1
 365.7889 949.9787 l 1
424.9245 215.8436 m 1
 181.6053 215.8436 l 1
 109.7296 0 l 1
 25.9245 0 l 1
 257.368 674 l 1
 353.0429 674 l 1
 585.2486 0 l 1
 499.1302 0 l 1
 424.9245 215.8436 l 1
198.9186 279.5244 m 1
 407.2812 279.5244 l 1
 338.3888 478.2003 l 2
 323.5999 522.557 313.7188 561.8436 303.7188 600.3947 c 1
 301.7188 600.3947 l 1
 291.7188 561.1736 281.0488 520.887 267.9299 479.3192 c 2
 198.9186 279.5244 l 1
EndSplineSet
EndChar

StartChar: estimated
Encoding: 8494 8494 253
Width: 817
Flags: HW
LayerCount: 2
Fore
SplineSet
782 316 m 2
 177 316 l 2
 174 316 172 315 172 312 c 2
 172 129 l 2
 172 121 176 114 181 108 c 0
 238 47 320 9 410 9 c 0
 506 9 592 52 650 120 c 1
 705 120 l 1
 637 41 529 -11 409 -11 c 0
 203 -11 35 139 35 325 c 0
 35 511 203 661 409 661 c 0
 615 661 782 511 782 325 c 0
 782 322 782 319 782 316 c 2
646 340 m 2
 646 524 l 2
 646 533 642 540 636 546 c 0
 578 604 498 641 410 641 c 0
 320 641 240 603 182 543 c 0
 176 537 172 529 172 520 c 2
 172 340 l 2
 172 337 174 335 177 335 c 2
 641 335 l 2
 644 335 646 337 646 340 c 2
EndSplineSet
EndChar

StartChar: zero.oldstyle
Encoding: 63280 63280 254
Width: 526
Flags: HW
LayerCount: 2
Fore
SplineSet
263.9299 -11 m 0
 142.8757 -11 41.3734 78.5565 41.3734 241.4322 c 0
 41.3734 400.519 142.4268 494.1944 263.9299 494.1944 c 0
 384.6541 494.1944 486.4864 404.0868 486.4864 241.4322 c 0
 486.4864 82.1243 384.8752 -11 263.9299 -11 c 0
263.9299 51.7997 m 0
 354.1456 51.7997 407.2057 132.7943 407.2057 241.4322 c 0
 407.2057 350.4001 353.9245 431.8436 263.9299 431.8436 c 0
 173.1564 431.8436 119.8752 350.4001 119.8752 241.4322 c 0
 119.8752 132.7943 173.6053 51.7997 263.9299 51.7997 c 0
EndSplineSet
EndChar

StartChar: one.oldstyle
Encoding: 63281 63281 255
Width: 357
Flags: HW
LayerCount: 2
Fore
SplineSet
257.4918 0 m 1
 179 0 l 1
 179 414.5737 l 1
 177 414.5737 l 1
 41.4055 350.4381 l 1
 26 411 l 1
 189.0488 486.0922 l 1
 257.4918 486.0922 l 1
 257.4918 0 l 1
EndSplineSet
EndChar

StartChar: two.oldstyle
Encoding: 63282 63282 256
Width: 444
Flags: HW
LayerCount: 2
Fore
SplineSet
416.632 0 m 1
 23.67 0 l 1
 23.67 45.292 l 1
 71.2866 78.4864 l 1
 224.4001 178.9132 300.038 247.8811 300.038 329.7568 c 0
 300.038 396.2758 253.2057 428.5303 190.2812 428.5303 c 0
 137.5678 428.5303 87.4322 404.2758 52.6433 378.9191 c 1
 30.3567 431.9566 l 1
 65.9245 459.1944 130.67 494.1944 210.7355 494.1944 c 0
 310.0809 494.1944 381.5131 438.1189 381.5131 340.2378 c 0
 381.5131 247.8811 309.2753 179.5244 201.2373 102.5131 c 2
 149.6428 64.4697 l 1
 149.6428 62.2486 l 1
 172.4805 64.2319 202.6315 65.5619 228.9782 65.5619 c 2
 416.632 65.5619 l 1
 416.632 0 l 1
EndSplineSet
EndChar

StartChar: three.oldstyle
Encoding: 63283 63283 257
Width: 429
Flags: HW
LayerCount: 2
Fore
SplineSet
16.8811 -95.0755 m 1
 27.0755 -34.3947 l 1
 51.5077 -42.9458 93.5077 -51.1736 135.151 -51.1736 c 0
 236.4756 -51.1736 307.9946 -0.6379 307.9946 74 c 0
 307.9946 138.6379 246.7134 178.6813 153.3133 178.6813 c 0
 130.4055 178.6813 110.4055 177.6813 98.1944 176.2324 c 1
 96.5244 237.0488 l 1
 114.5999 238.5999 l 2
 209.6867 245.7188 280.7301 283.4489 280.7301 347.0868 c 0
 280.7301 402.6058 239.3567 430.0814 173.5244 430.0814 c 0
 122.2866 430.0814 73.9566 407.8436 50.7622 395.4114 c 1
 33.3567 449.5511 l 1
 63.1944 470.0755 125.811 494.1944 191.0054 494.1944 c 0
 291.1564 494.1944 361.9941 443.5511 361.9941 361.2545 c 0
 361.9941 292.8056 312.113 242.7134 244.113 222.4756 c 1
 244.113 219.8056 l 1
 323.5619 208.8056 391.3508 160.4756 391.3508 75.2378 c 0
 391.3508 -39.1677 276.4109 -114.9566 141.8865 -114.9566 c 0
 91.2866 -114.9566 39.0755 -104.9566 16.8811 -95.0755 c 1
EndSplineSet
EndChar

StartChar: four.oldstyle
Encoding: 63284 63284 258
Width: 497
Flags: HW
LayerCount: 2
Fore
SplineSet
479.2486 52.0868 m 1
 386.9674 52.0868 l 1
 386.9674 -114.4055 l 1
 311.0167 -114.4055 l 1
 311.0167 52.0868 l 1
 18.0922 52.0868 l 1
 18.0922 105.1243 l 1
 300.1569 491.33 l 1
 386.9674 491.33 l 1
 386.9674 114.8865 l 1
 479.2486 114.8865 l 1
 479.2486 52.0868 l 1
311.0167 114.8865 m 1
 311.0167 321.3192 l 2
 311.0167 353.6325 310.5678 383.038 313.5678 414.1302 c 1
 309.2378 414.8002 l 1
 293.3567 383.1569 274.9245 351.2003 256.1623 322.6759 c 2
 99.9674 117.4376 l 1
 101.5185 114.8865 l 1
 311.0167 114.8865 l 1
EndSplineSet
EndChar

StartChar: five.oldstyle
Encoding: 63285 63285 259
Width: 438
Flags: HW
LayerCount: 2
Fore
SplineSet
37.2812 -97.4055 m 1
 47.4756 -38.1569 l 1
 70.1456 -45.6058 111.3567 -51.6058 148.7889 -51.6058 c 0
 235.9679 -51.6058 316.2758 -4.5457 316.2758 81.6867 c 0
 316.2758 110.8323 304.368 136.7568 284.5624 156.8924 c 0
 244.4001 196.2758 162.6266 208.1569 55.1623 200.2491 c 1
 106.5945 483.1944 l 1
 390.5298 483.1944 l 1
 379.8865 416.3192 l 1
 162.0809 416.3192 l 1
 131.6975 261.8544 l 1
 214.1297 263.6433 299.7242 252 353.0809 200.6433 c 0
 383.0809 171.6433 399.0809 130.0755 399.0809 88.4489 c 0
 399.0809 -34.7889 295.1564 -114.5077 148.8377 -114.5077 c 0
 106.1189 -114.5077 61.7134 -107.4055 37.2812 -97.4055 c 1
EndSplineSet
EndChar

StartChar: six.oldstyle
Encoding: 63286 63286 260
Width: 516
Flags: HW
LayerCount: 2
Fore
SplineSet
428.632 604.9566 m 1
 434.8431 544.4869 l 1
 254.1564 532.8002 158.7563 435.2378 135.3996 317.0375 c 1
 138.5185 317.1564 l 1
 164.0863 353.9887 216.6808 392.2699 286.962 392.2699 c 0
 388.1564 392.2699 473.0375 319.9299 473.0375 201.1677 c 0
 473.0375 67.0488 369.8431 -11 268.4055 -11 c 0
 137.0434 -11 48.2812 87.1944 48.2812 234.1677 c 0
 48.2812 440.811 192.4489 590.7943 428.632 604.9566 c 1
267.8377 51.6808 m 0
 328.8056 51.6808 392.4435 99.632 392.4435 197.0755 c 0
 392.4435 280.8323 342.1623 333.7735 267.2866 333.7735 c 0
 221.2432 333.7735 183.0809 309.849 164.632 289.519 c 0
 138.6808 263.2378 130.443 238.4322 130.443 204.151 c 0
 130.443 122.5565 184.632 51.6808 267.8377 51.6808 c 0
EndSplineSet
EndChar

StartChar: seven.oldstyle
Encoding: 63287 63287 261
Width: 423
Flags: HW
LayerCount: 2
Fore
SplineSet
400.6808 483.1944 m 1
 400.6808 430.9191 l 1
 338.443 266.9679 217.9674 42.4923 116.8485 -113.9566 c 1
 40.4756 -98.7455 l 1
 122.2378 19.33 263.5457 273.0814 316.4268 413.3192 c 1
 316.4268 415.7681 l 1
 17.7789 415.7681 l 1
 17.7789 483.1944 l 1
 400.6808 483.1944 l 1
EndSplineSet
EndChar

StartChar: eight.oldstyle
Encoding: 63288 63288 262
Width: 509
Flags: HW
LayerCount: 2
Fore
SplineSet
337.7296 319.4055 m 1
 337.7296 316.5244 l 1
 414.3508 289.4055 467.5619 235.9299 467.5619 164.8377 c 0
 467.5619 57.5244 370.3675 -11 252.9299 -11 c 0
 127.67 -11 41.5945 58.2111 41.5945 154.0755 c 0
 41.5945 227.7622 93.849 280.2111 167.8757 313.4489 c 1
 167.8757 316.33 l 1
 111.2057 339.3133 65.7134 381.7622 65.7134 445.5678 c 0
 65.7134 540.3133 151.9245 605.8377 260.6921 605.8377 c 0
 369.9941 605.8377 444.2319 540 444.2319 455.7622 c 0
 444.2319 398.5678 410.4864 353.5511 337.7296 319.4055 c 1
259.2432 549.4435 m 0
 196.632 549.4435 145.2052 512.0868 145.2052 452 c 0
 145.2052 396.481 191.3675 362.6921 268.3354 342.0054 c 1
 323.3133 358.6921 367.5945 394.7188 367.5945 452.2378 c 0
 367.5945 516.6379 314.1944 549.4435 259.2432 549.4435 c 0
252.9132 48.9353 m 0
 326.5678 48.9353 384.2057 91.8698 384.2057 156.9566 c 0
 384.2057 221.8056 332.1623 264.1623 238.811 289.0868 c 1
 170.1564 266.6112 124.0863 219.8978 124.0863 162.3888 c 0
 124.0863 95.7509 173.2486 48.9353 252.9132 48.9353 c 0
EndSplineSet
EndChar

StartChar: nine.oldstyle
Encoding: 63289 63289 263
Width: 516
Flags: HW
LayerCount: 2
Fore
SplineSet
82.4489 -114.9566 m 1
 76.2378 -54.038 l 1
 247.9245 -46.5891 350.1135 39.3133 377.4435 160.8002 c 1
 375.4435 161.1302 l 1
 355.1135 126.6379 299.189 91.4756 230.3567 91.4756 c 0
 130.4001 91.4756 44.4923 161.5511 44.4923 282.4756 c 0
 44.4923 402.7622 137.8811 494.1944 258.0321 494.1944 c 0
 373.6808 494.1944 468.2486 409.0701 468.2486 256.1623 c 0
 468.2486 40.7247 321.0321 -105.9299 82.4489 -114.9566 c 1
250.5732 150.0809 m 0
 303.33 150.0809 351.8323 181.2432 371.519 216.9566 c 0
 381.0868 230.6433 387.2057 252.4322 387.2057 277.7889 c 0
 387.2057 370.3513 326 430.9625 254.0321 430.9625 c 0
 192.4109 430.9625 125.7563 385.368 125.7563 288.3567 c 0
 125.7563 193.5565 184.1731 150.0809 250.5732 150.0809 c 0
EndSplineSet
EndChar

StartChar: percent.oldstyle
Encoding: 63042 63042 264
Width: 810
Flags: HW
LayerCount: 2
Fore
SplineSet
182.811 601.7188 m 0
 271.6053 601.7188 330.9186 533.33 330.9186 408.0488 c 0
 330.9186 270.5999 260.3187 202.8377 177.811 202.8377 c 0
 98 202.8377 28.9245 267.5732 27.9245 398.7188 c 0
 27.4756 530.1189 98.9245 601.7188 182.811 601.7188 c 0
180.0321 551.9679 m 0
 123.9887 551.9679 93.7242 485.2378 93.7242 402.1677 c 0
 92.2753 317.9887 124.1998 252.9186 179.6921 252.9186 c 0
 239.4322 252.9186 265.8978 317.0054 265.8978 403.8377 c 0
 265.8978 484.5678 242.7622 551.9679 180.0321 551.9679 c 0
255.8752 -12.4489 m 1
 202.4376 -12.4489 l 1
 554.2265 606.9566 l 1
 607.443 606.9566 l 1
 255.8752 -12.4489 l 1
634.6374 392 m 0
 723.7617 392 782.8539 323.2812 782.8539 198 c 0
 782.8539 60.8811 712.254 -6.8811 629.1885 -6.8811 c 0
 550.1564 -6.8811 480.5298 57.5244 480.0809 188.4489 c 0
 479.4109 320.519 551.0809 392 634.6374 392 c 0
631.9674 341.9191 m 0
 575.924 341.9191 545.8806 275.6379 544.8806 192.1189 c 0
 544.2106 108.0488 576.3562 42.8698 631.5185 42.8698 c 0
 691.3675 42.8698 717.2753 106.9566 717.2753 193.7889 c 0
 717.2753 274.849 694.3675 341.9191 631.9674 341.9191 c 0
EndSplineSet
EndChar

StartChar: zero.fitted
Encoding: 63033 63033 265
Width: 509
Flags: HW
LayerCount: 2
Fore
SplineSet
260.3621 661 m 0
 394.0863 661 473.1297 542.038 473.1297 331.9078 c 0
 473.1297 109.481 390.2319 -11 248.8865 -11 c 0
 125.9679 -11 38.3567 104.632 36.2378 322.5511 c 0
 36.2378 543.8002 132.0868 661 260.3621 661 c 0
255.1243 597.4381 m 0
 176.3675 597.4381 118.2807 500.9946 118.6107 321.8811 c 0
 118.2807 151.1243 172.1297 53.0108 254.4543 53.0108 c 0
 346.5945 53.0108 390.6379 160.481 390.6379 328.1189 c 0
 390.6379 489.6379 349.0434 597.4381 255.1243 597.4381 c 0
EndSplineSet
EndChar

StartChar: one.fitted
Encoding: 63196 63196 266
Width: 320
Flags: HW
LayerCount: 2
Fore
SplineSet
150.6433 0 m 1
 150.6433 573.6926 l 1
 148.6433 573.6926 l 1
 36.8056 512.1248 l 1
 20.4001 574.6867 l 1
 159.9299 650 l 1
 229.8051 650 l 1
 229.8051 0 l 1
 150.6433 0 l 1
EndSplineSet
EndChar

StartChar: two.fitted
Encoding: 63034 63034 267
Width: 441
Flags: HW
LayerCount: 2
Fore
SplineSet
413.6808 0 m 1
 3 0 l 1
 3 50.1564 l 1
 70.5999 116.2319 l 1
 239.0434 277.481 315.0701 362.6433 315.4001 462.9679 c 0
 315.4001 529.9191 284.4001 593.0059 185.5244 593.0059 c 0
 125.2866 593.0059 76.9566 562.4381 47.1944 537.887 c 1
 20.5945 595.1189 l 1
 64.6867 633.1189 127.8544 661 201.2432 661 c 0
 340.6487 661 397.443 563.9566 397.443 473.849 c 0
 397.443 352.2378 309.3996 254.1944 168.3182 118.0863 c 2
 117.9127 70.2052 l 1
 117.9127 68.2052 l 1
 413.6808 68.2052 l 1
 413.6808 0 l 1
EndSplineSet
EndChar

StartChar: three.fitted
Encoding: 63035 63035 268
Width: 445
Flags: HW
LayerCount: 2
Fore
SplineSet
7 33.33 m 1
 30.0755 96.113 l 1
 54.4055 80.443 112.0488 55.443 173.5999 55.443 c 0
 289.0868 55.443 324.4001 130.151 323.4001 184.9566 c 0
 322.2812 278.9679 238.1944 318.6813 151.6754 318.6813 c 2
 103.9566 318.6813 l 1
 103.9566 380.481 l 1
 152.2432 380.481 l 2
 217.5244 380.481 300.0434 414.7622 300.0434 494.0868 c 0
 300.0434 547.038 266.5945 594.557 183.9566 594.557 c 0
 132.5244 594.557 82.8811 571.557 54.7622 551.3192 c 1
 31.6867 610.5511 l 1
 65.33 635.8811 130.3888 661 198.7676 661 c 0
 326.2753 661 382.9674 585.2111 382.9674 506.4756 c 0
 382.9674 439.5945 341.8485 382.0267 262.5185 353.3567 c 1
 262.5185 351.3567 l 1
 343.0863 336.0167 407.7563 275.1189 407.7563 183.7622 c 0
 407.7563 80.9245 328.292 -11 173.5565 -11 c 0
 101.7188 -11 38.1944 11.67 7 33.33 c 1
EndSplineSet
EndChar

StartChar: four.fitted
Encoding: 63036 63036 269
Width: 498
Flags: HW
LayerCount: 2
Fore
SplineSet
391.2052 0 m 1
 313.5945 0 l 1
 313.5945 179.3246 l 1
 10.6433 179.3246 l 1
 10.6433 232.9132 l 1
 304.0647 650 l 1
 391.2052 650 l 1
 391.2052 243.2265 l 1
 483.1564 243.2265 l 1
 483.1564 179.3246 l 1
 391.2052 179.3246 l 1
 391.2052 0 l 1
94.3996 243.2265 m 1
 313.5945 243.2265 l 1
 313.5945 467.6759 l 2
 313.5945 501.3192 314.4756 534.8436 316.9245 567.9191 c 1
 313.4756 568.368 l 1
 292.9245 529.8269 277.7134 502.8703 259.9512 474.0326 c 2
 94.3996 245.2265 l 1
 94.3996 243.2265 l 1
EndSplineSet
EndChar

StartChar: five.fitted
Encoding: 63037 63037 270
Width: 455
Flags: HW
LayerCount: 2
Fore
SplineSet
401.7075 650 m 1
 401.7075 581.1248 l 1
 154.8431 581.1248 l 1
 128.6808 407.481 l 1
 143.6808 409.9299 157.7997 411.5999 182.3942 411.5999 c 0
 232.0108 411.5999 279.8318 400.8377 319.8051 377.4322 c 0
 369.924 349.5678 413.7563 293 413.7563 210.1944 c 0
 413.7563 82.8377 313.443 -11 175.5999 -11 c 0
 105.0755 -11 45.8811 9.1189 15.2378 29.2378 c 1
 36.8811 91.7997 l 1
 63.3133 75.6808 115.9566 55.113 175.4055 55.113 c 0
 259.7134 55.113 331.4001 112.0054 331.4001 200.9733 c 0
 330.7301 286.1623 274.1623 347.4702 144.1623 347.4702 c 0
 106.5945 347.4702 77.3567 344.1302 53.9245 340.8002 c 1
 95.9245 650 l 1
 401.7075 650 l 1
EndSplineSet
EndChar

StartChar: six.fitted
Encoding: 63038 63038 271
Width: 510
Flags: HW
LayerCount: 2
Fore
SplineSet
414.0375 660.1189 m 1
 414.4864 592.7681 l 1
 396.0375 592.9892 373.1297 592.3192 347.2319 588.2003 c 0
 208.9941 564.8169 134.7129 460.4489 120.7296 349.632 c 1
 123.2807 349.632 l 1
 154.1618 392.4543 208.7563 427.8544 281.9186 427.8544 c 0
 398.1731 427.8544 478.0108 343.5999 478.0108 217.6433 c 0
 478.0108 99.6867 398.1998 -11 263.2265 -11 c 0
 128.1623 -11 36.8056 95.1243 36.8056 265.1944 c 0
 36.8056 393.5511 82.4756 494.8811 146 558.7622 c 0
 198.8377 610.9566 270.0054 644.0755 349.9186 655.2111 c 0
 375.7997 659.33 397.5886 660.4489 414.0375 660.1189 c 1
264.5732 52.3508 m 0
 342.1189 52.3508 395.0868 117.1998 395.0868 212.4322 c 0
 395.0868 308.9191 339.4322 365.1569 257.3621 365.1569 c 0
 203.0809 365.1569 152.2319 332.0113 127.6374 283.1623 c 0
 121.9674 272.7134 117.8485 260.0434 117.8485 244.6112 c 0
 118.9507 133.7676 169.7997 52.3508 264.5732 52.3508 c 0
EndSplineSet
EndChar

StartChar: seven.fitted
Encoding: 63039 63039 272
Width: 406
Flags: HW
LayerCount: 2
Fore
SplineSet
1.2111 650 m 1
 406.6541 650 l 1
 406.6541 595.3947 l 1
 121.8051 0 l 1
 37.9078 0 l 1
 320.6379 580.2437 l 1
 320.6379 582.2437 l 1
 1.2111 582.2437 l 1
 1.2111 650 l 1
EndSplineSet
EndChar

StartChar: eight.fitted
Encoding: 63040 63040 273
Width: 509
Flags: HW
LayerCount: 2
Fore
SplineSet
252.9132 -11 m 0
 120.6112 -11 37.8056 68.8377 37.8056 164.3133 c 0
 37.8056 246.8811 87.0434 305.2378 167.6379 339.8056 c 1
 166.9679 343.2545 l 1
 93.5945 376.9245 62.1456 432.7134 62.1456 489.0434 c 0
 62.1456 590.7889 148.7622 661 261.6921 661 c 0
 384.6808 661 448.0108 583.0434 448.0108 501.9245 c 0
 448.0108 446.9245 420.7997 387.2378 340.1785 349.33 c 1
 340.1785 345.8811 l 1
 422.3675 313.7355 471.5619 255.2699 471.5619 177.4055 c 0
 471.5619 64.7622 375.1297 -11 252.9132 -11 c 0
254.6754 49.8164 m 0
 336.2378 49.8164 389.0868 99.7676 389.0868 168.9733 c 0
 389.0868 249.519 332.4756 288.2057 242.1243 313.8002 c 1
 163.8919 290.8757 121.2807 239.4756 121.2807 176.0755 c 0
 118.1618 108.7676 169.113 49.8164 254.6754 49.8164 c 0
256.3621 601.5136 m 0
 181.1564 601.5136 140.2052 552.2324 140.2052 495.1623 c 0
 140.2052 428.2866 190.6975 392.481 267.2432 372.5732 c 1
 324.67 391.8377 369.2812 432.3133 369.2812 493.849 c 0
 369.2812 546.2324 337.3567 601.5136 256.3621 601.5136 c 0
EndSplineSet
EndChar

StartChar: nine.fitted
Encoding: 63041 63041 274
Width: 513
Flags: HW
LayerCount: 2
Fore
SplineSet
97.2545 -10.1189 m 1
 97.2545 57.5619 l 1
 115.8056 55.5619 138.1623 57.2319 168.1623 61.1297 c 0
 219.0701 68.0375 267.519 89.5131 305.5357 125.6754 c 0
 347.7568 166.6166 378.9946 224.5678 390.9946 303.9191 c 1
 388.7735 303.8002 l 1
 351.519 258.0701 298.8056 231.4756 232.67 231.4756 c 0
 115.1944 231.4756 41.7134 321.0868 41.7134 431.0167 c 0
 41.7134 552.5511 129.8811 661 262.1677 661 c 0
 391.2319 661 473.7997 555.2057 473.7997 387.3567 c 0
 473.7997 243.8811 425.113 143.7622 361.9186 82 c 0
 313.1998 33.9245 245.7188 3.9245 178.6379 -4.3133 c 0
 146.6112 -9.5511 117.7134 -11.1189 97.2545 -10.1189 c 1
254.5999 598.2003 m 0
 177.1564 598.2003 122.7563 529.9946 122.7563 435.5511 c 0
 123.0863 352.4376 173.3942 294.3942 251.2432 294.3942 c 0
 311.7622 294.3942 359.4001 324.5565 383.7735 365.4055 c 0
 387.9946 372.9566 391.4435 382.5077 391.4435 396.5999 c 0
 391.7735 511.6813 348.9245 598.2003 254.5999 598.2003 c 0
EndSplineSet
EndChar

StartChar: zero.slashfitted
Encoding: 57352 57352 275
Width: 509
Flags: HW
LayerCount: 2
Fore
SplineSet
142.0375 161.4484 m 1
 347.5678 545.3947 l 1
 326.6433 577.8703 296.1677 597.4381 254.7943 597.4381 c 0
 170.5886 597.4381 117.0863 489.8757 115.9674 328.1189 c 0
 115.9674 262.0809 124.773 205.8485 142.0375 161.4484 c 1
371 487.6438 m 1
 165.3675 102.6053 l 1
 187.7242 70.2486 216.9887 53.0108 253.1243 53.0108 c 0
 346.9245 53.0108 392.9512 160.481 392.9512 328.1189 c 0
 392.9512 388.9191 386.0434 443.0326 371 487.6438 c 1
260.3621 661 m 0
 394.0863 661 473.1297 542.038 473.1297 331.9078 c 0
 473.1297 109.481 390.2319 -11 248.8865 -11 c 0
 125.9679 -11 38.3567 104.632 36.2378 322.5511 c 0
 36.2378 543.8002 132.0868 661 260.3621 661 c 0
EndSplineSet
EndChar

StartChar: zero.taboldstyle
Encoding: 63043 63043 276
Width: 526
Flags: HW
LayerCount: 2
Fore
SplineSet
263.9299 -11 m 0
 142.8757 -11 41.3734 78.5565 41.3734 241.4322 c 0
 41.3734 400.519 142.4268 494.1944 263.9299 494.1944 c 0
 384.6541 494.1944 486.4864 404.0868 486.4864 241.4322 c 0
 486.4864 82.1243 384.8752 -11 263.9299 -11 c 0
263.9299 51.7997 m 0
 354.1456 51.7997 407.2057 132.7943 407.2057 241.4322 c 0
 407.2057 350.4001 353.9245 431.8436 263.9299 431.8436 c 0
 173.1564 431.8436 119.8752 350.4001 119.8752 241.4322 c 0
 119.8752 132.7943 173.6053 51.7997 263.9299 51.7997 c 0
EndSplineSet
EndChar

StartChar: one.taboldstyle
Encoding: 63044 63044 277
Width: 526
Flags: HW
LayerCount: 2
Fore
SplineSet
361.113 0 m 1
 282.849 0 l 1
 282.849 416.557 l 1
 280.849 416.557 l 1
 93.5678 331.6058 l 1
 78.4756 392.1677 l 1
 292.7889 486.0922 l 1
 361.113 486.0922 l 1
 361.113 0 l 1
EndSplineSet
EndChar

StartChar: two.taboldstyle
Encoding: 63045 63045 278
Width: 526
Flags: HW
LayerCount: 2
Fore
SplineSet
459.3187 0 m 1
 66.3567 0 l 1
 66.3567 45.292 l 1
 114.1944 78.4864 l 1
 267.0868 178.9132 342.7247 247.8811 342.7247 329.7568 c 0
 342.7247 396.2758 296.1135 428.5303 232.9679 428.5303 c 0
 180.4756 428.5303 130.1189 404.2758 95.5511 378.9191 c 1
 73.0434 431.9566 l 1
 108.8323 459.1944 173.6867 494.1944 253.6433 494.1944 c 0
 352.7676 494.1944 424.1998 438.1189 424.1998 340.2378 c 0
 424.1998 247.8811 351.962 179.5244 243.924 102.5131 c 2
 192.3295 64.4697 l 1
 192.3295 62.2486 l 1
 215.3883 64.2319 245.3182 65.5619 271.886 65.5619 c 2
 459.3187 65.5619 l 1
 459.3187 0 l 1
EndSplineSet
EndChar

StartChar: three.taboldstyle
Encoding: 63046 63046 279
Width: 526
Flags: HW
LayerCount: 2
Fore
SplineSet
61.7889 -95.0755 m 1
 71.7622 -34.3947 l 1
 96.6433 -42.9458 138.6433 -51.1736 180.2866 -51.1736 c 0
 281.2812 -51.1736 353.1302 -0.6379 353.1302 74 c 0
 353.1302 138.6379 291.519 178.6813 198 178.6813 c 0
 175.4322 178.6813 155.4322 177.6813 143 176.2324 c 1
 141.33 237.0488 l 1
 159.2866 238.5999 l 2
 254.5945 245.7188 325.3079 283.4489 325.3079 347.0868 c 0
 325.3079 402.6058 284.0434 430.0814 218.5511 430.0814 c 0
 167.1944 430.0814 119.0922 407.8436 95.1189 395.4114 c 1
 78.4923 449.5511 l 1
 107.8811 470.0755 170.3888 494.1944 236.3621 494.1944 c 0
 335.8431 494.1944 406.6808 443.5511 406.6808 361.2545 c 0
 406.6808 292.8056 357.2486 242.7134 288.7997 222.4756 c 1
 288.7997 219.8056 l 1
 367.9186 208.8056 436.4864 160.4756 436.4864 75.2378 c 0
 436.4864 -39.1677 321.4376 -114.9566 186.7943 -114.9566 c 0
 136.6433 -114.9566 84.2111 -104.9566 61.7889 -95.0755 c 1
EndSplineSet
EndChar

StartChar: four.taboldstyle
Encoding: 63047 63047 280
Width: 526
Flags: HW
LayerCount: 2
Fore
SplineSet
493.8431 52.0868 m 1
 401.5619 52.0868 l 1
 401.5619 -114.4055 l 1
 325.6112 -114.4055 l 1
 325.6112 52.0868 l 1
 32.6867 52.0868 l 1
 32.6867 105.1243 l 1
 314.7514 491.33 l 1
 401.5619 491.33 l 1
 401.5619 114.8865 l 1
 493.8431 114.8865 l 1
 493.8431 52.0868 l 1
325.6112 114.8865 m 1
 325.6112 321.3192 l 2
 325.6112 353.6325 325.1623 383.038 328.1623 414.1302 c 1
 324.1623 414.8002 l 1
 308.2812 383.1569 289.519 351.2003 270.7568 322.6759 c 2
 114.5619 117.4376 l 1
 116.113 114.8865 l 1
 325.6112 114.8865 l 1
EndSplineSet
EndChar

StartChar: five.taboldstyle
Encoding: 63048 63048 281
Width: 526
Flags: HW
LayerCount: 2
Fore
SplineSet
78.5945 -97.4055 m 1
 88.7889 -38.1569 l 1
 112.2378 -45.6058 152.67 -51.6058 190.4322 -51.6058 c 0
 277.2812 -51.6058 357.9191 -4.5457 357.9191 81.6867 c 0
 357.9191 110.8323 346.2324 136.7568 325.8757 156.8924 c 0
 286.1623 196.2758 204.7188 208.1569 97.4756 200.2491 c 1
 148.3567 483.1944 l 1
 431.8431 483.1944 l 1
 421.1998 416.3192 l 1
 203.8431 416.3192 l 1
 173.2319 261.8544 l 1
 255.443 263.6433 341.8164 252 394.3942 200.6433 c 0
 424.8431 171.6433 440.7242 130.0755 440.7242 88.4489 c 0
 440.7242 -34.7889 336.7997 -114.5077 190.5999 -114.5077 c 0
 147.7622 -114.5077 103.3567 -107.4055 78.5945 -97.4055 c 1
EndSplineSet
EndChar

StartChar: six.taboldstyle
Encoding: 63049 63049 282
Width: 526
Flags: HW
LayerCount: 2
Fore
SplineSet
438.1998 604.9566 m 1
 444.4109 544.4869 l 1
 263.7242 532.8002 168.2052 435.2378 144.9674 317.0375 c 1
 148.4163 317.1564 l 1
 173.4263 353.9887 225.7997 392.2699 297.0809 392.2699 c 0
 397.6053 392.2699 482.6053 319.9299 482.6053 201.1677 c 0
 482.6053 67.0488 379.4109 -11 277.5244 -11 c 0
 146.1623 -11 57.4001 87.1944 57.4001 234.1677 c 0
 57.4001 440.811 201.7889 590.7943 438.1998 604.9566 c 1
277.4055 51.6808 m 0
 338.5945 51.6808 401.5624 99.632 401.5624 197.0755 c 0
 401.5624 280.8323 351.2812 333.7735 277.0755 333.7735 c 0
 230.3621 333.7735 193.1998 309.849 174.0809 289.519 c 0
 148.2486 263.2378 140.2319 238.4322 140.2319 204.151 c 0
 140.2319 122.5565 194.1998 51.6808 277.4055 51.6808 c 0
EndSplineSet
EndChar

StartChar: seven.taboldstyle
Encoding: 63050 63050 283
Width: 526
Flags: HW
LayerCount: 2
Fore
SplineSet
450.6053 483.1944 m 1
 450.6053 430.9191 l 1
 388.3675 266.9679 267.443 42.4923 166.773 -113.9566 c 1
 90.4001 -98.7455 l 1
 172.1623 19.33 313.4702 273.0814 366.6813 413.3192 c 1
 366.6813 415.7681 l 1
 67.4756 415.7681 l 1
 67.4756 483.1944 l 1
 450.6053 483.1944 l 1
EndSplineSet
EndChar

StartChar: eight.taboldstyle
Encoding: 63051 63051 284
Width: 526
Flags: HW
LayerCount: 2
Fore
SplineSet
344.9674 319.4055 m 1
 344.9674 316.5244 l 1
 421.9186 289.4055 474.7997 235.9299 474.7997 164.8377 c 0
 474.7997 57.5244 377.6053 -11 259.7188 -11 c 0
 134.6867 -11 48.8323 58.2111 48.8323 154.0755 c 0
 48.8323 227.7622 100.6379 280.2111 175.1135 313.4489 c 1
 175.1135 316.33 l 1
 118.7735 339.3133 72.9512 381.7622 72.9512 445.5678 c 0
 72.9512 540.3133 158.7134 605.8377 267.481 605.8377 c 0
 377.0108 605.8377 451.4697 540 451.4697 455.7622 c 0
 451.4697 398.5678 417.7242 353.5511 344.9674 319.4055 c 1
266.481 549.4435 m 0
 203.8698 549.4435 152.443 512.0868 152.443 452 c 0
 152.443 396.481 198.6053 362.6921 275.1243 342.0054 c 1
 329.8811 358.6921 374.6112 394.7188 374.6112 452.2378 c 0
 374.6112 516.6379 321.7622 549.4435 266.481 549.4435 c 0
260.481 48.9353 m 0
 333.6867 48.9353 391.4435 91.8698 391.4435 156.9566 c 0
 391.4435 221.8056 338.9512 264.1623 245.5999 289.0868 c 1
 177.3942 266.6112 130.8752 219.8978 130.8752 162.3888 c 0
 130.8752 95.7509 180.4864 48.9353 260.481 48.9353 c 0
EndSplineSet
EndChar

